<svg xmlns="http://www.w3.org/2000/svg" xmlns:xlink="http://www.w3.org/1999/xlink" width="148.913" height="137.726" viewBox="0 0 148.913 137.726">
  <defs>
    <clipPath id="clip-path">
      <rect id="Rectangle_163" data-name="Rectangle 163" width="128.099" height="113.574" fill="none"/>
    </clipPath>
  </defs>
  <g id="Group_123" data-name="Group 123" transform="matrix(0.978, -0.208, 0.208, 0.978, 0, 26.633)">
    <g id="Group_122" data-name="Group 122" clip-path="url(#clip-path)">
      <path id="Path_241" data-name="Path 241" d="M111.035,113.574H17.063A17.114,17.114,0,0,1,0,96.511V17.063A17.113,17.113,0,0,1,17.063,0h93.972A17.114,17.114,0,0,1,128.1,17.063V96.511a17.114,17.114,0,0,1-17.064,17.064" fill="#fbebe0"/>
      <path id="Path_242" data-name="Path 242" d="M140.081,103.812H48.9A11,11,0,0,1,37.935,92.844V55.553A11,11,0,0,1,48.9,44.584h91.177a11,11,0,0,1,10.968,10.969V92.844a11,11,0,0,1-10.968,10.968" transform="translate(-30.443 -35.779)" fill="#f4ac6e"/>
      <path id="Path_243" data-name="Path 243" d="M89.237,84l-2.183,9.164H85.509l-2-7.156-2,7.156H79.965L77.77,84h1.374l1.631,7.547L82.847,84h1.324l2.061,7.547L87.863,84Z" transform="translate(-62.41 -67.409)" fill="#fff"/>
      <path id="Path_244" data-name="Path 244" d="M142.257,102.195a3.329,3.329,0,0,1-2.563-.971,3.767,3.767,0,0,1-.883-2.655,3.85,3.85,0,0,1,.9-2.682,3.211,3.211,0,0,1,2.453-.971,3.031,3.031,0,0,1,2.342.93,3.958,3.958,0,0,1,.859,2.722v.377h-5.347a2.356,2.356,0,0,0,.638,1.577,2.127,2.127,0,0,0,1.594.566,2.494,2.494,0,0,0,1.263-.323,3.667,3.667,0,0,0,.932-.782l.773.8a4.379,4.379,0,0,1-1.239,1.011,3.621,3.621,0,0,1-1.717.4m1.913-4.286a2.241,2.241,0,0,0-.613-1.429,1.973,1.973,0,0,0-1.386-.472,1.988,1.988,0,0,0-2.146,1.9Z" transform="translate(-111.396 -76.171)" fill="#fff"/>
      <path id="Path_245" data-name="Path 245" d="M180.135,102.195a3.328,3.328,0,0,1-2.563-.971,3.765,3.765,0,0,1-.883-2.655,3.85,3.85,0,0,1,.9-2.682,3.211,3.211,0,0,1,2.453-.971,3.032,3.032,0,0,1,2.343.93,3.959,3.959,0,0,1,.858,2.722v.377h-5.347a2.357,2.357,0,0,0,.638,1.577,2.127,2.127,0,0,0,1.594.566,2.5,2.5,0,0,0,1.263-.323,3.675,3.675,0,0,0,.932-.782l.773.8a4.385,4.385,0,0,1-1.239,1.011,3.624,3.624,0,0,1-1.717.4m1.913-4.286a2.24,2.24,0,0,0-.613-1.429,1.973,1.973,0,0,0-1.386-.472,1.988,1.988,0,0,0-2.146,1.9Z" transform="translate(-141.793 -76.171)" fill="#fff"/>
      <path id="Path_246" data-name="Path 246" d="M216.678,84h1.2v5.836l3.213-3.41h1.594l-2.539,2.628,3.029,4.11h-1.5l-2.355-3.248-1.447,1.55v1.7h-1.2Z" transform="translate(-173.884 -67.409)" fill="#fff"/>
      <rect id="Rectangle_162" data-name="Rectangle 162" width="1.202" height="9.164" transform="translate(50.239 16.59)" fill="#fff"/>
      <path id="Path_247" data-name="Path 247" d="M266.579,105.715a1.925,1.925,0,0,1-1.091-.31,2.64,2.64,0,0,1-.81-.849l.859-.7a2.463,2.463,0,0,0,.528.566.881.881,0,0,0,.515.162.721.721,0,0,0,.577-.243,1.927,1.927,0,0,0,.38-.633l.307-.7-2.894-6.725h1.263l2.22,5.283,2.207-5.283H271.9l-3.385,7.871a2.937,2.937,0,0,1-.748,1.132,1.767,1.767,0,0,1-1.19.431" transform="translate(-212.404 -77.265)" fill="#fff"/>
      <path id="Path_248" data-name="Path 248" d="M82.769,189.9a3.329,3.329,0,0,1-2.563-.971,3.767,3.767,0,0,1-.883-2.655,3.85,3.85,0,0,1,.9-2.682,3.211,3.211,0,0,1,2.453-.971,3.031,3.031,0,0,1,2.342.93,3.958,3.958,0,0,1,.859,2.722v.377H80.525a2.356,2.356,0,0,0,.638,1.577,2.127,2.127,0,0,0,1.594.566,2.5,2.5,0,0,0,1.263-.323,3.667,3.667,0,0,0,.932-.782l.773.8a4.38,4.38,0,0,1-1.239,1.011,3.621,3.621,0,0,1-1.717.4m1.913-4.286a2.241,2.241,0,0,0-.613-1.429,1.974,1.974,0,0,0-1.386-.472,1.988,1.988,0,0,0-2.146,1.9Z" transform="translate(-63.657 -146.555)" fill="#fff"/>
      <path id="Path_249" data-name="Path 249" d="M120.87,190.726l-1.913-2.574-1.925,2.574h-1.57l2.747-3.477-2.563-3.262h1.509l1.8,2.358,1.8-2.358h1.509l-2.563,3.262,2.747,3.477Z" transform="translate(-92.658 -147.65)" fill="#fff"/>
      <path id="Path_250" data-name="Path 250" d="M158.094,182.606a3,3,0,0,1-.944.7,3.516,3.516,0,0,1-1.472.3,2.724,2.724,0,0,1-1.864-.593,2.445,2.445,0,0,1-.736-1.914v-3.383h-1.165V176.6h1.165l.245-1.819h.957V176.6h2.98v1.119h-2.98v3.181a1.692,1.692,0,0,0,.355,1.173,1.422,1.422,0,0,0,1.1.391,2.228,2.228,0,0,0,1.006-.229,2.52,2.52,0,0,0,.736-.539Z" transform="translate(-121.91 -140.257)" fill="#fff"/>
      <path id="Path_251" data-name="Path 251" d="M192.466,183.647v1.213h-1.079a2.028,2.028,0,0,0-1.729.714,3.515,3.515,0,0,0-.527,2.143v2.736h-1.2v-6.739h1.2v1.456a2.09,2.09,0,0,1,.785-1.105,2.943,2.943,0,0,1,1.68-.418Z" transform="translate(-150.812 -147.376)" fill="#fff"/>
      <path id="Path_252" data-name="Path 252" d="M216.46,190.059a2.969,2.969,0,0,1-1.864-.566,2.011,2.011,0,0,1-.773-1.658,1.861,1.861,0,0,1,1.2-1.806,6.256,6.256,0,0,1,2.085-.391l2.048-.108a1.51,1.51,0,0,0-.564-1.267,2.21,2.21,0,0,0-1.324-.351,2.473,2.473,0,0,0-1.239.283,1.972,1.972,0,0,0-.859,1.065l-1.177-.323a2.7,2.7,0,0,1,1.337-1.685,3.9,3.9,0,0,1,1.889-.431,3.451,3.451,0,0,1,2.281.687,2.477,2.477,0,0,1,.846,2.022v2.426q0,.526.012.97t.037.862h-1.19q-.012-.256-.024-.526v-.58a2.657,2.657,0,0,1-1.079,1,3.681,3.681,0,0,1-1.643.377m.27-1.092a2.63,2.63,0,0,0,1.729-.566,2.171,2.171,0,0,0,.711-1.725V186.6l-1.84.108a5.277,5.277,0,0,0-1.545.283.911.911,0,0,0-.294,1.644,2.053,2.053,0,0,0,1.239.337" transform="translate(-171.593 -146.713)" fill="#fff"/>
      <path id="Path_253" data-name="Path 253" d="M271.233,189.9a4.064,4.064,0,0,1-2.269-.553,2.393,2.393,0,0,1-1.055-1.793l1.14-.2a1.587,1.587,0,0,0,.773,1.159,2.857,2.857,0,0,0,1.423.31,2.648,2.648,0,0,0,1.324-.283.914.914,0,0,0,.5-.822.787.787,0,0,0-.638-.782,11.329,11.329,0,0,0-1.729-.3,4.892,4.892,0,0,1-1.889-.579,1.588,1.588,0,0,1-.748-1.415,1.741,1.741,0,0,1,.785-1.482,3.686,3.686,0,0,1,2.085-.539,3.854,3.854,0,0,1,2.183.553,2.522,2.522,0,0,1,1.03,1.618l-1.153.2a1.561,1.561,0,0,0-.724-1,2.577,2.577,0,0,0-1.361-.3,2.458,2.458,0,0,0-1.226.256.763.763,0,0,0-.454.66.748.748,0,0,0,.576.7,5.743,5.743,0,0,0,1.41.283,6.432,6.432,0,0,1,2.06.485,1.622,1.622,0,0,1,.957,1.577,1.964,1.964,0,0,1-.809,1.644,3.608,3.608,0,0,1-2.2.593" transform="translate(-214.997 -146.554)" fill="#fff"/>
      <path id="Path_254" data-name="Path 254" d="M310.361,173.86a2.62,2.62,0,0,1,2,.822,3.642,3.642,0,0,1,.8,2.493v3.693h-1.2v-3.558a2.546,2.546,0,0,0-.564-1.793,1.767,1.767,0,0,0-1.312-.526,1.97,1.97,0,0,0-1.582.809,3.673,3.673,0,0,0-.638,2.224v2.844h-1.2V171.7h1.2v3.774a2.79,2.79,0,0,1,1.055-1.24,2.874,2.874,0,0,1,1.447-.377" transform="translate(-246.092 -137.792)" fill="#fff"/>
      <path id="Path_255" data-name="Path 255" d="M347.267,171.7h1.447v1.388h-1.447Zm.123,2.426h1.2v6.739h-1.2Z" transform="translate(-278.681 -137.792)" fill="#fff"/>
      <path id="Path_256" data-name="Path 256" d="M362.707,171.472a1.518,1.518,0,0,0-1.018.324,1.423,1.423,0,0,0-.392,1.092v.148h2.894v1.119H361.3v5.62h-1.2v-5.62H359v-1.119h1.092v-.148a2.434,2.434,0,0,1,.8-1.968,2.8,2.8,0,0,1,1.815-.579,3.741,3.741,0,0,1,1.1.162,3.04,3.04,0,0,1,.944.458l-.49.97a4.609,4.609,0,0,0-.736-.337,2.691,2.691,0,0,0-.822-.121" transform="translate(-288.099 -136.697)" fill="#fff"/>
      <path id="Path_257" data-name="Path 257" d="M392.631,182.606a3,3,0,0,1-.944.7,3.516,3.516,0,0,1-1.472.3,2.724,2.724,0,0,1-1.864-.593,2.444,2.444,0,0,1-.736-1.914v-3.383H386.45V176.6h1.165l.245-1.819h.957V176.6h2.98v1.119h-2.98v3.181a1.692,1.692,0,0,0,.355,1.173,1.422,1.422,0,0,0,1.1.391,2.228,2.228,0,0,0,1.006-.229,2.522,2.522,0,0,0,.736-.539Z" transform="translate(-310.125 -140.257)" fill="#fff"/>
      <path id="Path_258" data-name="Path 258" d="M85.138,261.565a2.62,2.62,0,0,1,2,.822,3.642,3.642,0,0,1,.8,2.493v3.693h-1.2v-3.558a2.545,2.545,0,0,0-.564-1.793,1.766,1.766,0,0,0-1.312-.526,1.97,1.97,0,0,0-1.582.809,3.672,3.672,0,0,0-.638,2.224v2.844h-1.2v-9.164h1.2v3.774a2.788,2.788,0,0,1,1.055-1.24,2.875,2.875,0,0,1,1.447-.377" transform="translate(-65.351 -208.175)" fill="#fff"/>
      <path id="Path_259" data-name="Path 259" d="M124,277.6a3.281,3.281,0,0,1-2.453-1,3.71,3.71,0,0,1-.932-2.6,3.87,3.87,0,0,1,.932-2.669,3.5,3.5,0,0,1,4.906-.013,3.851,3.851,0,0,1,.932,2.655,3.811,3.811,0,0,1-.932,2.628,3.281,3.281,0,0,1-2.453,1m0-1.105a2,2,0,0,0,1.57-.687,2.753,2.753,0,0,0,.589-1.819,2.851,2.851,0,0,0-.589-1.86,2.095,2.095,0,0,0-3.127,0,2.756,2.756,0,0,0-.6,1.846,2.714,2.714,0,0,0,.6,1.819,1.964,1.964,0,0,0,1.557.7" transform="translate(-96.795 -216.937)" fill="#fff"/>
      <path id="Path_260" data-name="Path 260" d="M167.6,271.693v6.739h-1.2v-1.348a2.7,2.7,0,0,1-1.055,1.227,2.732,2.732,0,0,1-1.435.391,2.522,2.522,0,0,1-1.974-.836,3.665,3.665,0,0,1-.773-2.48v-3.693h1.2v3.558a2.571,2.571,0,0,0,.54,1.779,1.65,1.65,0,0,0,1.276.526,1.97,1.97,0,0,0,1.582-.809,3.675,3.675,0,0,0,.638-2.224v-2.83Z" transform="translate(-129.335 -218.033)" fill="#fff"/>
      <path id="Path_261" data-name="Path 261" d="M207,271.352v1.213h-1.079a2.027,2.027,0,0,0-1.729.714,3.515,3.515,0,0,0-.528,2.143v2.736h-1.2v-6.739h1.2v1.456a2.09,2.09,0,0,1,.785-1.105,2.944,2.944,0,0,1,1.68-.418Z" transform="translate(-162.473 -217.76)" fill="#fff"/>
      <path id="Path_262" data-name="Path 262" d="M231.616,277.6a4.064,4.064,0,0,1-2.269-.553,2.394,2.394,0,0,1-1.055-1.793l1.141-.2a1.585,1.585,0,0,0,.773,1.159,2.856,2.856,0,0,0,1.423.31,2.648,2.648,0,0,0,1.325-.283.914.914,0,0,0,.5-.822.787.787,0,0,0-.638-.782,11.332,11.332,0,0,0-1.729-.3,4.89,4.89,0,0,1-1.889-.579,1.589,1.589,0,0,1-.748-1.415,1.741,1.741,0,0,1,.785-1.482,3.687,3.687,0,0,1,2.085-.539,3.854,3.854,0,0,1,2.183.553,2.522,2.522,0,0,1,1.03,1.618l-1.153.2a1.561,1.561,0,0,0-.723-1,2.578,2.578,0,0,0-1.361-.3,2.459,2.459,0,0,0-1.227.256.763.763,0,0,0-.454.66.747.747,0,0,0,.576.7,5.746,5.746,0,0,0,1.41.283,6.432,6.432,0,0,1,2.06.485,1.622,1.622,0,0,1,.957,1.577,1.965,1.965,0,0,1-.81,1.644,3.608,3.608,0,0,1-2.2.593" transform="translate(-183.204 -216.937)" fill="#fff"/>
      <path id="Path_263" data-name="Path 263" d="M282.666,259.177a1.518,1.518,0,0,0-1.018.323,1.423,1.423,0,0,0-.392,1.092v.148h2.894v1.119h-2.894v5.62h-1.2v-5.62h-1.092V260.74h1.092v-.148a2.434,2.434,0,0,1,.8-1.968,2.8,2.8,0,0,1,1.815-.579,3.742,3.742,0,0,1,1.1.162,3.04,3.04,0,0,1,.944.458l-.49.97a4.6,4.6,0,0,0-.736-.337,2.69,2.69,0,0,0-.822-.121" transform="translate(-223.867 -207.08)" fill="#fff"/>
      <path id="Path_264" data-name="Path 264" d="M311.407,277.6a3.281,3.281,0,0,1-2.453-1,3.71,3.71,0,0,1-.932-2.6,3.87,3.87,0,0,1,.932-2.669,3.5,3.5,0,0,1,4.906-.013,3.851,3.851,0,0,1,.932,2.655,3.811,3.811,0,0,1-.932,2.628,3.282,3.282,0,0,1-2.453,1m0-1.105a2,2,0,0,0,1.57-.687,2.753,2.753,0,0,0,.589-1.819,2.851,2.851,0,0,0-.589-1.86,2.095,2.095,0,0,0-3.127,0,2.755,2.755,0,0,0-.6,1.846,2.713,2.713,0,0,0,.6,1.819,1.964,1.964,0,0,0,1.558.7" transform="translate(-247.187 -216.937)" fill="#fff"/>
      <path id="Path_265" data-name="Path 265" d="M353.419,271.352v1.213H352.34a2.028,2.028,0,0,0-1.729.714,3.516,3.516,0,0,0-.527,2.143v2.736h-1.2v-6.739h1.2v1.456a2.09,2.09,0,0,1,.785-1.105,2.943,2.943,0,0,1,1.68-.418Z" transform="translate(-279.976 -217.76)" fill="#fff"/>
      <path id="Path_266" data-name="Path 266" d="M394.594,260.569v2.547h4.845v1.159h-4.845v4.3h-1.251V259.41h7.15v1.159Z" transform="translate(-315.657 -208.176)" fill="#fff"/>
      <path id="Path_267" data-name="Path 267" d="M440.106,271.352v1.213h-1.079a2.027,2.027,0,0,0-1.729.714,3.516,3.516,0,0,0-.528,2.143v2.736h-1.2v-6.739h1.2v1.456a2.092,2.092,0,0,1,.785-1.105,2.944,2.944,0,0,1,1.68-.418Z" transform="translate(-349.543 -217.76)" fill="#fff"/>
      <path id="Path_268" data-name="Path 268" d="M464.1,277.764a2.969,2.969,0,0,1-1.864-.566,2.012,2.012,0,0,1-.773-1.658,1.862,1.862,0,0,1,1.2-1.806,6.259,6.259,0,0,1,2.085-.391l2.048-.108a1.51,1.51,0,0,0-.564-1.267,2.21,2.21,0,0,0-1.325-.351,2.473,2.473,0,0,0-1.239.283,1.97,1.97,0,0,0-.858,1.065l-1.177-.323a2.7,2.7,0,0,1,1.337-1.685,3.9,3.9,0,0,1,1.889-.431,3.453,3.453,0,0,1,2.281.687,2.476,2.476,0,0,1,.846,2.022v2.426q0,.526.012.97t.037.862h-1.189q-.013-.256-.025-.526v-.58a2.657,2.657,0,0,1-1.08,1,3.678,3.678,0,0,1-1.643.377m.269-1.092a2.63,2.63,0,0,0,1.73-.566,2.17,2.17,0,0,0,.711-1.725V274.3l-1.84.108a5.284,5.284,0,0,0-1.545.283.911.911,0,0,0-.294,1.644,2.053,2.053,0,0,0,1.238.337" transform="translate(-370.322 -217.096)" fill="#fff"/>
      <path id="Path_269" data-name="Path 269" d="M505.952,270.327a2.542,2.542,0,0,1,1.974.822,3.722,3.722,0,0,1,.773,2.493v3.693h-1.2v-3.558a2.626,2.626,0,0,0-.54-1.793,1.651,1.651,0,0,0-1.275-.526,1.971,1.971,0,0,0-1.582.809,3.676,3.676,0,0,0-.638,2.224v2.844h-1.2V270.6h1.2v1.348a2.6,2.6,0,0,1,2.49-1.617" transform="translate(-403.063 -216.937)" fill="#fff"/>
      <path id="Path_270" data-name="Path 270" d="M543.243,259.409h1.2v5.836l3.213-3.41h1.595l-2.539,2.628,3.029,4.11h-1.5l-2.355-3.248-1.447,1.55v1.7h-1.2Z" transform="translate(-435.951 -208.176)" fill="#fff"/>
      <path id="Path_271" data-name="Path 271" d="M484.33,93.951a8.971,8.971,0,1,1-8.971-8.971,8.97,8.97,0,0,1,8.971,8.971" transform="translate(-374.276 -68.196)" fill="#fbebe0"/>
      <path id="Path_272" data-name="Path 272" d="M492.53,117.572a.281.281,0,0,1-.28-.281v-9.274a.281.281,0,0,1,.281-.28H499.7a.281.281,0,0,1,.28.28v9.274a.281.281,0,0,1-.28.281.283.283,0,0,1-.152-.045l-3.43-2.213-3.43,2.213a.283.283,0,0,1-.153.045m3.583-2.872a.283.283,0,0,1,.152.045l3.15,2.032V108.3h-6.6v8.479l3.149-2.032a.283.283,0,0,1,.152-.045" transform="translate(-395.03 -86.459)" fill="#f38214"/>
      <path id="Path_273" data-name="Path 273" d="M499.5,107.585a.231.231,0,0,1,.231.231v9.274a.231.231,0,0,1-.231.231.233.233,0,0,1-.125-.037l-3.457-2.23-3.457,2.23a.234.234,0,0,1-.126.037.232.232,0,0,1-.231-.231v-9.274a.231.231,0,0,1,.231-.231Zm-6.934,9.081,3.226-2.081a.232.232,0,0,1,.251,0l3.226,2.081v-8.619h-6.7v8.619m6.934-9.18h-7.165a.33.33,0,0,0-.33.33v9.274a.33.33,0,0,0,.33.33.333.333,0,0,0,.179-.053l3.4-2.2,3.4,2.2a.333.333,0,0,0,.179.053.33.33,0,0,0,.33-.33v-9.274a.33.33,0,0,0-.33-.33m-6.835.66h6.505v8.339l-3.074-1.983a.331.331,0,0,0-.358,0l-3.074,1.983Z" transform="translate(-394.83 -86.257)" fill="#f38214"/>
      <path id="Path_274" data-name="Path 274" d="M100.137,408.113a7.909,7.909,0,0,1-6.32-2.707q-2.4-2.706-2.463-8.38.029-5.706,2.611-9a8.7,8.7,0,0,1,7.152-3.359,10.709,10.709,0,0,1,3.531.522,9.1,9.1,0,0,1,3.858,2.511l-2.4,2.9a7.867,7.867,0,0,0-2.463-1.761,5.925,5.925,0,0,0-2.552-.489,5.585,5.585,0,0,0-4.392,1.924,6.793,6.793,0,0,0-1.513,4.272,6.27,6.27,0,0,1,2.879-2.25,8.141,8.141,0,0,1,2.76-.522,7.983,7.983,0,0,1,5.638,2.054,7.605,7.605,0,0,1,2.2,5.609,8.827,8.827,0,0,1-2.345,6.228,8.361,8.361,0,0,1-6.172,2.446m-.03-3.75a4.509,4.509,0,0,0,3.294-1.3,4.781,4.781,0,0,0,1.276-3.424,4.208,4.208,0,0,0-1.216-3.163,4.318,4.318,0,0,0-3.116-1.109,4.911,4.911,0,0,0-3.442,1.272,4.644,4.644,0,0,0-.059,6.457,4.47,4.47,0,0,0,3.264,1.272" transform="translate(-73.311 -308.689)" fill="#f38214"/>
      <path id="Path_275" data-name="Path 275" d="M234.3,417.578v16.3h-3.054v-7.5h-8.725v7.5h-3.054v-16.3h3.054v6.064h8.725v-6.064Z" transform="translate(-176.12 -335.106)" fill="#f38214"/>
      <path id="Path_276" data-name="Path 276" d="M311.978,449.94a6.242,6.242,0,0,1-4.537-1.75,6.376,6.376,0,0,1-1.723-4.578,6.837,6.837,0,0,1,1.723-4.794,6.592,6.592,0,0,1,9.074-.024,6.718,6.718,0,0,1,1.723,4.746,6.444,6.444,0,0,1-1.723,4.626,6.2,6.2,0,0,1-4.537,1.774m0-2.637a3.026,3.026,0,0,0,2.356-1.031,3.981,3.981,0,0,0,.894-2.685,4.531,4.531,0,0,0-.894-2.876,3.112,3.112,0,0,0-4.711,0,4.325,4.325,0,0,0-.895,2.828,4.171,4.171,0,0,0,.895,2.732,3.025,3.025,0,0,0,2.356,1.031" transform="translate(-245.338 -350.689)" fill="#f38214"/>
      <path id="Path_277" data-name="Path 277" d="M390.141,439.424v11.985h-2.966v-2.133a4.486,4.486,0,0,1-1.963,2.11,4.713,4.713,0,0,1-2.247.5,4.4,4.4,0,0,1-3.512-1.534,6.808,6.808,0,0,1-1.287-4.387v-6.544h2.967v6.184a4.3,4.3,0,0,0,.72,2.708,2.224,2.224,0,0,0,1.876.839,3,3,0,0,0,2.181-.887q1.156-.982,1.265-4.195v-4.65Z" transform="translate(-303.478 -352.637)" fill="#f38214"/>
      <path id="Path_278" data-name="Path 278" d="M460.862,438.938v2.972h-1.941a4.159,4.159,0,0,0-2.9.815q-1,.887-1,3.4v4.89H452.05V439.034h2.966v2.613a3.389,3.389,0,0,1,1.483-2.061,5.631,5.631,0,0,1,2.923-.647Z" transform="translate(-362.769 -352.247)" fill="#f38214"/>
      <path id="Path_279" data-name="Path 279" d="M506.661,449.941a8.167,8.167,0,0,1-4.079-.935,4.068,4.068,0,0,1-2.05-3.26l2.792-.432a2.315,2.315,0,0,0,1.374,1.774,4.626,4.626,0,0,0,1.985.359,5.211,5.211,0,0,0,2.029-.336,1.165,1.165,0,0,0,.807-1.079q-.044-.911-1.134-1.1-1.069-.192-2.574-.36a8.049,8.049,0,0,1-3.708-1.246,2.884,2.884,0,0,1-1.243-2.493,3.357,3.357,0,0,1,1.461-2.853,6.745,6.745,0,0,1,3.861-.983,7.567,7.567,0,0,1,3.926.935,4.108,4.108,0,0,1,1.963,2.876l-2.814.431a2.1,2.1,0,0,0-1.113-1.318,4.553,4.553,0,0,0-1.963-.384,3.872,3.872,0,0,0-1.81.359,1.053,1.053,0,0,0-.676.887,1.011,1.011,0,0,0,.894.935,12.679,12.679,0,0,0,2.116.359,12.364,12.364,0,0,1,3.948.911,2.881,2.881,0,0,1,1.7,2.852,3.517,3.517,0,0,1-1.527,3.02,7.106,7.106,0,0,1-4.166,1.079" transform="translate(-401.676 -350.689)" fill="#f38214"/>
    </g>
  </g>
</svg>
