<svg id="Group_176" data-name="Group 176" xmlns="http://www.w3.org/2000/svg" width="140" height="43" viewBox="0 0 140 43">
  <g id="Rectangle_601" data-name="Rectangle 601" fill="#fff" stroke="#000" stroke-width="1">
    <rect width="140" height="43" rx="7" stroke="none"/>
    <rect x="0.5" y="0.5" width="139" height="42" rx="6.5" fill="none"/>
  </g>
  <path id="Path_1221" data-name="Path 1221" d="M-8044.8-7042.855v-12.283h1.884v1.535h.036a3.382,3.382,0,0,1,3.018-1.633c2.407,0,3.992,1.852,3.992,4.713s-1.573,4.71-3.955,4.71a3.231,3.231,0,0,1-2.983-1.614h-.043v4.572Zm1.938-7.668c0,1.86,1,3.1,2.485,3.1,1.514,0,2.507-1.221,2.507-3.1s-.993-3.1-2.507-3.1C-8041.862-7053.622-8042.862-7052.365-8042.862-7050.523Zm-12.37,7.668v-12.283h1.882v1.535h.038a3.377,3.377,0,0,1,3.015-1.633c2.409,0,3.992,1.852,3.992,4.713s-1.573,4.71-3.954,4.71a3.227,3.227,0,0,1-2.982-1.614h-.043v4.572Zm1.938-7.668c0,1.86,1,3.1,2.483,3.1,1.515,0,2.508-1.221,2.508-3.1s-.993-3.1-2.508-3.1C-8052.294-7053.622-8053.295-7052.365-8053.295-7050.523Zm22.329,1.084h1.992c.146,1.258,1.4,2.08,3.107,2.08,1.641,0,2.822-.821,2.822-1.957,0-.982-.712-1.571-2.4-1.972l-1.685-.4c-2.389-.564-3.5-1.648-3.5-3.415,0-2.184,1.957-3.685,4.731-3.685,2.749,0,4.632,1.5,4.693,3.685h-1.961c-.12-1.261-1.192-2.028-2.761-2.028s-2.64.773-2.64,1.9c0,.893.688,1.423,2.36,1.826l1.434.34c2.669.613,3.778,1.658,3.778,3.511,0,2.368-1.937,3.854-5.021,3.854C-8028.893-7045.7-8030.841-7047.146-8030.966-7049.438Zm32.892-1.043c0-2.892,1.72-4.773,4.385-4.773,2.623,0,4.272,1.755,4.272,4.557v.647h-6.692v.115a2.433,2.433,0,0,0,2.55,2.614,2.147,2.147,0,0,0,2.188-1.3h1.848c-.264,1.676-1.937,2.827-4.082,2.827C-7996.363-7045.794-7998.074-7047.6-7998.074-7050.482Zm1.972-.892h4.741a2.254,2.254,0,0,0-2.328-2.346A2.372,2.372,0,0,0-7996.1-7051.374Zm-17.839.851c0-2.905,1.756-4.732,4.5-4.732s4.5,1.827,4.5,4.732-1.741,4.729-4.5,4.729S-8013.941-7047.612-8013.941-7050.523Zm1.982,0c0,2,.937,3.167,2.515,3.167s2.514-1.169,2.514-3.167-.939-3.17-2.514-3.17S-8011.959-7052.509-8011.959-7050.523Zm-6.785,2.174v-5.292h-1.377v-1.5h1.377v-2.184h1.956v2.184h1.8v1.5h-1.8v5.087c0,.795.36,1.161,1.154,1.161.2,0,.514-.029.64-.044v1.493a5.466,5.466,0,0,1-1.082.087C-8018-7045.857-8018.744-7046.559-8018.744-7048.349Zm15.4,2.442v-9.231h1.856v1.569h.043a2.256,2.256,0,0,1,2.281-1.667,3.015,3.015,0,0,1,.668.072v1.771a2.862,2.862,0,0,0-.875-.114,1.932,1.932,0,0,0-2.027,2.124v5.476Zm-55.232,0-1.186-3.421h-4.958l-1.19,3.421h-2.1l4.7-12.658h2.181l4.7,12.658Zm-5.629-5h3.926l-1.934-5.551h-.058Zm-27.309,2.078c-2.018-2.872-3.589-8.088-1.484-11.637a5.811,5.811,0,0,1,4.873-2.9c1.543-.029,2.977,1.019,3.929,1.019.932,0,2.7-1.256,4.534-1.067a5.56,5.56,0,0,1,4.344,2.288,5.243,5.243,0,0,0-2.564,4.4,5.088,5.088,0,0,0,3.18,4.666,11.568,11.568,0,0,1-1.655,3.279c-.975,1.419-1.994,2.8-3.615,2.83-1.576.034-2.105-.9-3.91-.9-1.824,0-2.39.878-3.9.938h-.083C-8089.371-7045.914-8090.526-7047.454-8091.516-7048.833Zm92.93-15.465a2.138,2.138,0,0,1,2.175-2.4,2.041,2.041,0,0,1,2.1,2.314v.316h-3.328v.05a1.228,1.228,0,0,0,1.256,1.315,1.136,1.136,0,0,0,1.121-.559h.9a1.918,1.918,0,0,1-2.047,1.331A2.108,2.108,0,0,1-7998.586-7064.3Zm.948-.438h2.38a1.121,1.121,0,0,0-1.158-1.189A1.187,1.187,0,0,0-7997.638-7064.735Zm-23.459.419a2.131,2.131,0,0,1,2.223-2.381,2.132,2.132,0,0,1,2.223,2.381,2.131,2.131,0,0,1-2.223,2.387A2.13,2.13,0,0,1-8021.1-7064.316Zm.958,0c0,1,.455,1.583,1.265,1.583s1.265-.583,1.265-1.583-.459-1.578-1.265-1.578S-8020.139-7065.312-8020.139-7064.316Zm-19.819,0a2.131,2.131,0,0,1,2.223-2.381,2.134,2.134,0,0,1,2.226,2.381,2.132,2.132,0,0,1-2.226,2.387A2.132,2.132,0,0,1-8039.958-7064.316Zm.961,0c0,1,.454,1.583,1.262,1.583s1.268-.583,1.268-1.583-.461-1.578-1.268-1.578S-8039-7065.312-8039-7064.316Zm-21.419,0a2.132,2.132,0,0,1,2.223-2.381,2.132,2.132,0,0,1,2.226,2.381,2.132,2.132,0,0,1-2.226,2.387A2.132,2.132,0,0,1-8060.416-7064.316Zm.962,0c0,1,.454,1.583,1.261,1.583s1.269-.583,1.269-1.583-.461-1.578-1.269-1.578S-8059.454-7065.312-8059.454-7064.316Zm24.922,1c0-.825.633-1.3,1.755-1.37l1.278-.07v-.4c0-.485-.331-.76-.966-.76-.521,0-.881.188-.982.514h-.9c.095-.788.856-1.294,1.928-1.294,1.182,0,1.851.57,1.851,1.541v3.139h-.9v-.648h-.072a1.6,1.6,0,0,1-1.418.724A1.41,1.41,0,0,1-8034.532-7063.315Zm1.879-.7c-.648.042-.942.256-.942.663s.369.654.875.654a1.1,1.1,0,0,0,1.222-1.006v-.381Zm3.3-.3c0-1.452.77-2.368,1.962-2.368a1.554,1.554,0,0,1,1.44.8h.073v-2.523h.927v6.385h-.891v-.725h-.071a1.646,1.646,0,0,1-1.479.8C-8028.6-7061.945-8029.354-7062.863-8029.354-7064.316Zm.963,0c0,.974.471,1.559,1.261,1.559s1.269-.592,1.269-1.556-.49-1.559-1.269-1.559S-8028.392-7065.283-8028.392-7064.316Zm21.32,1.084v-2.592h-.748v-.762h.748v-1.167h.932v1.167h1.022v.762h-1.022v2.359c0,.483.205.692.667.692.142,0,.223-.009.355-.02v.754a3.091,3.091,0,0,1-.507.046C-8006.66-7061.993-8007.071-7062.345-8007.071-7063.232Zm6.351,1.217v-2.74c0-.734-.354-1.107-1.008-1.107a1.089,1.089,0,0,0-1.188,1.165v2.682h-.931v-6.384h.922v2.527h.076a1.45,1.45,0,0,1,1.437-.82,1.531,1.531,0,0,1,1.622,1.714v2.963Zm-41.461,0v-6.384h.93v6.384Zm29.852,0v-2.747c0-.737-.329-1.1-1.018-1.1a1.067,1.067,0,0,0-1.126,1.167v2.683h-.93v-4.592h.9v.729h.07a1.414,1.414,0,0,1,1.406-.817,1.51,1.51,0,0,1,1.631,1.706v2.975Zm-32.269,0v-2.747c0-.737-.328-1.1-1.017-1.1a1.064,1.064,0,0,0-1.124,1.167v2.683h-.933v-4.592h.9v.729h.069a1.415,1.415,0,0,1,1.408-.817,1.51,1.51,0,0,1,1.63,1.706v2.975Zm-6.425,0-.975-3.381h-.072l-.972,3.381H-8054l-1.3-4.592h.947l.843,3.5h.067l.971-3.5h.894l.969,3.5h.072l.844-3.5h.93l-1.3,4.592Zm-15.684,0v-6.084h2.254a2.725,2.725,0,0,1,2.94,3.023,2.737,2.737,0,0,1-2.94,3.062Zm.968-.861h1.177a1.936,1.936,0,0,0,2.063-2.187,1.942,1.942,0,0,0-2.062-2.175h-1.177Zm-18.646-.8a4.83,4.83,0,0,1,1.245-3.562,5.444,5.444,0,0,1,3.5-1.759,5.078,5.078,0,0,1-1.217,3.7,4.6,4.6,0,0,1-3.291,1.63C-8084.229-7063.671-8084.308-7063.674-8084.386-7063.68Z" transform="translate(8111.711 7077.435)" stroke="rgba(0,0,0,0)" stroke-width="1"/>
</svg>
