<svg xmlns="http://www.w3.org/2000/svg" width="101.107" height="53" viewBox="0 0 101.107 53">
  <path id="Path_358" data-name="Path 358" d="M93.927,52V49.007H92.99V48.26h2.882v.747h-.937V52Zm-7.284,0-1.138-2.325a3.091,3.091,0,0,1-.147-.348c-.044-.125-.085-.263-.122-.41.036.223.062.428.078.615s.025.352.025.494V52h-.91V48.26h1.259l1.1,2.243a3.375,3.375,0,0,1,.131.314c.05.135.1.3.166.493-.033-.184-.056-.353-.071-.507s-.023-.3-.023-.424V48.26h.91V52ZM77.1,52V48.26h2.628v.7H78.11v.756h1.528v.711H78.11v.853h1.68V52Zm-5.6,0V49.488c0-.119,0-.243.011-.371s.016-.265.029-.41c-.022.112-.048.22-.073.323s-.053.2-.081.291L70.58,52h-.861l-.793-2.636c-.027-.09-.053-.191-.078-.3s-.049-.229-.07-.354c.012.177.021.337.029.478s.012.248.012.32V52h-.841V48.26h1.464l.658,2.248a2.259,2.259,0,0,1,.062.3c.017.111.029.231.036.359.012-.138.029-.265.046-.383a2.761,2.761,0,0,1,.062-.3l.659-2.226h1.442V52Zm-9.5,0-1.139-2.325a3.344,3.344,0,0,1-.147-.348c-.044-.125-.084-.263-.121-.41.036.223.062.429.078.615s.026.353.026.494V52h-.91V48.26h1.259l1.1,2.243c.037.075.081.18.131.314s.1.3.165.493c-.033-.184-.056-.353-.071-.507s-.022-.3-.022-.424V48.26h.91V52ZM53.88,52V48.26h1.008V52Zm-5.374,0-.268-.793H46.782L46.5,52h-1l1.435-3.74h1.216L49.584,52ZM48,50.5l-.473-1.4-.49,1.4ZM39.6,52V49.007h-.937V48.26h2.882v.747h-.937V52Zm-6.179,0-.333-1.025a.647.647,0,0,0-.218-.342.777.777,0,0,0-.431-.094H32.3V52h-.988V48.26h1.5a2.043,2.043,0,0,1,1.114.241.819.819,0,0,1,.364.733.907.907,0,0,1-.192.6.95.95,0,0,1-.554.314.921.921,0,0,1,.479.612v0L34.475,52Zm-.774-2.125a.84.84,0,0,0,.49-.116.407.407,0,0,0,.164-.353.412.412,0,0,0-.183-.37,1.081,1.081,0,0,0-.576-.118H32.3v.958ZM23.8,52V48.26h2.627v.7H24.811v.756H26.34v.711H24.811v.853h1.68V52ZM17.15,52V49.007h-.936V48.26h2.881v.747h-.936V52Zm-7.3,0L8.708,49.675a3.092,3.092,0,0,1-.147-.348c-.043-.125-.084-.263-.121-.41q.053.335.078.615c.017.187.025.352.025.494V52h-.91V48.26H8.892l1.1,2.243a3.177,3.177,0,0,1,.13.314c.051.135.105.3.166.493-.033-.184-.055-.353-.07-.507a4.119,4.119,0,0,1-.023-.424V48.26h.91V52ZM.128,52V48.26H2.755v.7H1.136v.756H2.664v.711H1.136v.853h1.68V52Zm65-7.489a5.181,5.181,0,0,1,0-1.187v0a4.872,4.872,0,0,0-.012-1.235,6.846,6.846,0,0,0-.472-1.542,9.343,9.343,0,0,1-.409-1.182,3.012,3.012,0,0,1-.034-.808,2.287,2.287,0,0,0-.105-1.057,2.834,2.834,0,0,0-.868-.859c-.475-.355-.925-.691-.891-1.231a3.5,3.5,0,0,1,.949-1.946l0,0,.205-.266a6.068,6.068,0,0,0,.681-1.43v0c.066-.176.121-.321.177-.456a3.885,3.885,0,0,0,.282-1.329,1.462,1.462,0,0,0-.134-.725A1.8,1.8,0,0,0,64,28.7,19.106,19.106,0,0,0,60.5,26.728l-.038-.019-.29-.139a.14.14,0,0,0-.06-.013c-.169,0-.333.3-.333.467a.529.529,0,0,0,.129.288.614.614,0,0,1,.128.263,2.433,2.433,0,0,1-.059.722,1.563,1.563,0,0,0,.028.985,1.594,1.594,0,0,0,.618.561c.33.213.641.412.551.754a.954.954,0,0,1-.547.735,1.228,1.228,0,0,1-.588.118l-.094,0-.131,0a6.818,6.818,0,0,1-.785-.062h-.012a6.589,6.589,0,0,0-.767-.061,2.308,2.308,0,0,0-.487.047,8.639,8.639,0,0,0-2.043.8l-.112.056c-.075.037-.152.077-.225.116l-.01,0a2.678,2.678,0,0,1-1.19.4h-.037a.461.461,0,0,1-.342-.157,2.158,2.158,0,0,1-.246-1.386c.027-.327.277-.465.543-.61a1.26,1.26,0,0,0,.567-.478,1.329,1.329,0,0,0,.057-.7h0A1.221,1.221,0,0,1,54.8,28.7a1.176,1.176,0,0,1,.589-.389,1.182,1.182,0,0,0,.588-.387.831.831,0,0,0-.011-.581v0A1.52,1.52,0,0,1,55.917,27a7.186,7.186,0,0,1,.069-.752v-.006a5.431,5.431,0,0,0,.062-.967c-.005-.113-.026-.258-.046-.411v0a3,3,0,0,1-.044-.831.6.6,0,0,1,.235-.394.7.7,0,0,0,.248-.369,2.174,2.174,0,0,0,.029-.833,2.16,2.16,0,0,1,.036-.85c.034-.1.18-.129.322-.155s.289-.055.268-.168c-.024-.133-.161-.164-.294-.195s-.268-.061-.293-.193a5.931,5.931,0,0,1,.064-2.553,2.067,2.067,0,0,1,.427-.69,2.077,2.077,0,0,0,.424-.678,1.877,1.877,0,0,0,0-.794v0a1.8,1.8,0,0,1,0-.822.816.816,0,0,1,.392-.379c.171-.107.347-.217.393-.4a5.985,5.985,0,0,0,.118-1.334,5.779,5.779,0,0,1,.125-1.363,2.791,2.791,0,0,1,.63-1.209l.046-.045.013-.012a1.062,1.062,0,0,0,.343-.487.91.91,0,0,0-.039-.536v0a1.108,1.108,0,0,1-.058-.483,1.269,1.269,0,0,1,.277-.542,2.7,2.7,0,0,0,.187-.28,3.819,3.819,0,0,0,.248-.616l0-.005a4.117,4.117,0,0,1,.228-.573c.105-.2.226-.392.342-.578l0,0,0,0a4.969,4.969,0,0,0,.517-.98,1.7,1.7,0,0,0,0-.737,1.525,1.525,0,0,1,.021-.8,1.361,1.361,0,0,1,.623-.572,1.343,1.343,0,0,0,.626-.578,1.376,1.376,0,0,0,.03-.772,1.336,1.336,0,0,1,.036-.781,1.008,1.008,0,0,1,.922-.5h.023a.768.768,0,0,1,.689.439,2.437,2.437,0,0,1,.105.786,2.3,2.3,0,0,0,.125.832,5.6,5.6,0,0,0,.679,1.117,5.471,5.471,0,0,1,.694,1.161,2.156,2.156,0,0,1,.073.884v0a2.692,2.692,0,0,0,.026.72c.044.184.085.372.123.554l.007.031v0a12.03,12.03,0,0,0,.351,1.371c.115.332.251.666.383.988l0,0a13.259,13.259,0,0,1,.507,1.386,10.43,10.43,0,0,1,.25,1.3v0c.045.3.092.616.157.919a8.193,8.193,0,0,0,.384,1.2l0,.01c.04.107.081.216.121.325a.346.346,0,0,0,.206.19.319.319,0,0,1,.205.2,1.169,1.169,0,0,1-.062.624v0a1.246,1.246,0,0,0-.069.6,2.4,2.4,0,0,0,.354.7,2.251,2.251,0,0,1,.366.751,6.271,6.271,0,0,1,.037,1.468v0c-.015.28-.03.571-.023.863a18.427,18.427,0,0,0,.192,2.105,5.464,5.464,0,0,0,.162.678,3.415,3.415,0,0,1,.149.677c.01.257.019.512.029.767.033.886.068,1.8.078,2.71.018,1.481.026,3.413-.066,5.225a.453.453,0,0,1-.164.276h0a.655.655,0,0,0-.154.21c-.084.221-.161.408-.237.59a7.148,7.148,0,0,0-.424,1.238c-.031.132-.052.27-.072.4v0a2.757,2.757,0,0,1-.189.757.994.994,0,0,1-.312.3.906.906,0,0,0-.331.335,2.188,2.188,0,0,0-.034.943v0a4.307,4.307,0,0,1,.035.731,2.544,2.544,0,0,1-.337,1.055c-.054.108-.107.215-.16.332l-.063.141a8.713,8.713,0,0,0-.454,1.126,1.717,1.717,0,0,0-.012.6,1.655,1.655,0,0,1-.02.625.593.593,0,0,1-.194.249.551.551,0,0,0-.2.268,2.715,2.715,0,0,0-.019.756h0a2.3,2.3,0,0,1-.048.861c-.073.231-.128.252-.289.314-.045.018-.092.035-.148.06a1.386,1.386,0,0,1-.493.1C65.278,44.64,65.143,44.618,65.128,44.511ZM63.015,24c.095.031.14.123.185.213s.1.192.2.217a1.835,1.835,0,0,1,.811.485h0c.09.079.183.161.285.238a.747.747,0,0,0,.4.091c.242,0,.488-.069.495-.222.047-.892.072-1.808.075-2.725,0-1-.02-2.04-.069-3.087,0-.072-.085-.091-.169-.111s-.166-.038-.177-.108a6.632,6.632,0,0,1-.048-.943v-.008a6.022,6.022,0,0,0-.061-1.013c-.007-.041-.036-.06-.094-.06a.644.644,0,0,0-.086.008.835.835,0,0,1-.1.008.157.157,0,0,1-.091-.022.628.628,0,0,1-.162-.21.482.482,0,0,0-.2-.228A.566.566,0,0,0,64,16.483c-.049,0-.1,0-.147.007h0c-.048,0-.1.007-.152.007a.581.581,0,0,1-.212-.034.925.925,0,0,1-.383-.4l-.024-.036a3.452,3.452,0,0,1-.193-.357l0,0a2.5,2.5,0,0,0-.273-.468,1.637,1.637,0,0,1-.208-.381c-.035-.082-.057-.136-.08-.136-.046,0-.1.221-.149.634a10.888,10.888,0,0,0-.067,1.345v.022a.391.391,0,0,1-.094.155,1.405,1.405,0,0,0-.157.236,4.366,4.366,0,0,0-.184.484v0a1.164,1.164,0,0,1-.072.192c-.047.068-.16.077-.264.077l-.089,0h-.01l-.1,0c-.118,0-.231.012-.257.1a2.018,2.018,0,0,0,.042.926,2.546,2.546,0,0,1,.074.771,1.172,1.172,0,0,1-.182.439v0a1.114,1.114,0,0,0-.184.459c-.034.437-.051.912-.052,1.491,0,.4.005.8.012,1.162,0,.174.005.355.008.533a.352.352,0,0,1-.012.067v0c-.01.039-.019.078-.006.1a.025.025,0,0,0,.018.011,1.131,1.131,0,0,0,.14.008,3.774,3.774,0,0,0,.452-.039h.008a3.572,3.572,0,0,1,.4-.034A4.659,4.659,0,0,1,63.015,24ZM40.483,44.3c-.281-.011-.267-.547-.528-.652a.783.783,0,0,0-.486.023.935.935,0,0,1-.436.042c-.449-.108-.955-.533-1.413-.586a9.99,9.99,0,0,0-1.794,0,9.662,9.662,0,0,1-1.876-.01c-.276-.038-.315-.567-.593-.587-1.5-.109-2.974-.078-4.446-.047-1.317.027-2.637.056-3.982-.017-.611-.034-.666-.244-1.054-.355a3.589,3.589,0,0,0-2.046.02c-.962.445-.959,1.289-1.963,1.638a3.737,3.737,0,0,1-1.572.065,7.353,7.353,0,0,0-.849-.049c-.245.005-.645.2-.88.128-.257-.075-.662-.579-.5-.792.628-.827,1.865-.93,2.438-1.8.338-.509.021-1.194.167-1.786.045-.181.366-.165.461-.325a.423.423,0,0,0,0-.457.188.188,0,0,0-.225-.065c-.105.028-.183.056-.238-.435a10.318,10.318,0,0,1-.032-2.131c.042-.45.373-.355.435-.592.116-.442-.126-.769-.006-1.21.054-.2.424-.148.528-.326a.593.593,0,0,0,0-.586c-.225-.333-.835-.328-.9-.722a11.985,11.985,0,0,1-.045-2.225c.013-.767-.04-1.536.025-2.318.012-.146.343-.139.4-.275a1.758,1.758,0,0,0,0-.848c-.029-.225.04-.684.023-.91-.027-.347-.177-.476-.014-.785.113-.215.484-.086.519-.325.18-1.27-.205-2.572-.066-3.846.023-.216.366-.182.425-.392a1.526,1.526,0,0,0-.03-1.042c-.071-.15-.408-.15-.421-.315-.148-1.864.11-3.624-.04-5.487-.014-.175-.448.071-.456-.686-.009-.794-.083-1.533-.072-2.117.009-.447.984-.459.975-.907a10.891,10.891,0,0,0-.066-2.151c-.051-.225-.348-.188-.447-.4a.706.706,0,0,1,.08-.593c.1-.241.381-.392.447-.646a3.034,3.034,0,0,0,0-1.434c-.036-.153-.3-.3-.375-.439-.136-.256-.075-.482-.258-.708-.127-.156-.5-.06-.654-.19-.4-.334-.624-.706-.956-1.01a4.08,4.08,0,0,1-.972-.923A.834.834,0,0,1,16.981.8a.692.692,0,0,1,.7,0c.174.092.17.455.365.482a4.454,4.454,0,0,0,1.19-.049,3.862,3.862,0,0,1,1.339-.021c.366.079.385.536.725.689a.815.815,0,0,0,.4.011.687.687,0,0,1,.442.033,6.414,6.414,0,0,1,.8.877c.308.31.573.449.731.888a4.7,4.7,0,0,1,.1,1.7c-.008.51.076,1.026.029,1.543-.016.174-.354.092-.4.26a1.173,1.173,0,0,0,.131.893c.113.193.42.094.493.306a2.922,2.922,0,0,1,.066,1.6c-.047.189-.416.067-.427.26a45.459,45.459,0,0,0,.066,7.367c.043.415.706.563.751.977a47.087,47.087,0,0,1-.074,6.975,2.577,2.577,0,0,1-.316.992c-.152.275-.058.551-.052.855a9.422,9.422,0,0,0,.02,1.217c.035.228.5.445.488.675a9.662,9.662,0,0,0,.086,1.558c.019.3-.535.489-.711.735a.793.793,0,0,0-.1.711c.1.181.272.089.326.286a.936.936,0,0,1-.057.769c-.092.162-.43.141-.461.325-.09.516.206,1.047.131,1.565-.022.155-.372.106-.4.261-.118.773.133,1.575,0,2.346-.05.292-.506.422-.527.717-.012.165.383.05.461.2.124.231-.188.709.066.782a5.461,5.461,0,0,0,2.737-.04c.481-.125.685-.793,1.181-.839.6-.056,1.037.334,1.627.438a5.656,5.656,0,0,0,2.393-.039c.45-.12.712-.594,1.174-.654a26.764,26.764,0,0,1,4.165-.133c.564.011,1.134.023,1.717.02,1.911-.011,4.356-.106,5.774.048.809.026-.069,2.857.224,4.353.063.325.344.507.514.809.269.481.374.725-.326.721-.527,0-1.056.011-1.593.026-.5.013-1,.027-1.517.027C41.132,44.319,40.81,44.314,40.483,44.3ZM74.1,41.787a6.063,6.063,0,0,0-1.364-1.716,21.427,21.427,0,0,0-1.854-1.348l-.064-.04-.047-.031c-.522-.329-.933-.589-.785-1.169a17.945,17.945,0,0,1,.92-2.521l0-.008c.254-.6.517-1.225.764-1.925.036-.1.079-.205.121-.307a1.866,1.866,0,0,0,.226-1.042.65.65,0,0,0-.254-.324c-.126-.106-.244-.2-.251-.353-.087-1.7-.071-3.415-.055-5.068.013-1.391.027-2.829-.021-4.263a14.059,14.059,0,0,0-.511-3.044,1.641,1.641,0,0,0-.123-.283l0,0a1.285,1.285,0,0,1-.141-.362,3.927,3.927,0,0,1-.027-.727,4.35,4.35,0,0,0-.014-.648,2.135,2.135,0,0,0-.2-.616l0,0a2.262,2.262,0,0,1-.2-.594c-.074-.535-.1-1.035-.128-1.518a11.842,11.842,0,0,0-.251-2.141c-.091-.4-.179-.788-.256-1.183a9.21,9.21,0,0,0-.237-.9,2.838,2.838,0,0,1-.074-2.275,1.993,1.993,0,0,1,.84-.676c.119-.064.231-.125.323-.188a11.082,11.082,0,0,0,1.4-1.082l.07-.063c.277-.245.655-.581.446-.84a.692.692,0,0,0-.592-.28,2.524,2.524,0,0,0-.349.032,1.176,1.176,0,0,0-.414.2.875.875,0,0,1-.379.18.14.14,0,0,1-.128-.08c-.109-.2-.2-.376-.285-.548l0,0v0a4.184,4.184,0,0,0-.672-1.065,4.874,4.874,0,0,0-1.7-1.214,1.85,1.85,0,0,0-.551-.1h0a1.4,1.4,0,0,1-.674-.172.4.4,0,0,1-.2-.365.175.175,0,0,1,.169-.125A10.9,10.9,0,0,1,67.993.9c.455,0,.908.021,1.346.042h.008c.441.021.9.043,1.365.043.366,0,.7-.013,1.027-.041a.849.849,0,0,0,.368-.181A.771.771,0,0,1,72.5.586l.039,0a.7.7,0,0,1,.42.279.758.758,0,0,0,.4.282,1.817,1.817,0,0,0,.416.042c.176,0,.351-.018.52-.034H74.3c.169-.016.343-.033.513-.033a1.92,1.92,0,0,1,.385.035,5.713,5.713,0,0,1,1.2.429,7.341,7.341,0,0,0,.949.37,2.52,2.52,0,0,0,.719.082h.21a1.92,1.92,0,0,1,.864.157,4.93,4.93,0,0,1,1.911,1.617,10.5,10.5,0,0,1,1.8,3.943,3.962,3.962,0,0,1-.22,1.793,7.131,7.131,0,0,0-.246,1.1,3.254,3.254,0,0,0,.025.689v0a2.209,2.209,0,0,1-.035.96,8.6,8.6,0,0,1-1.555,3,3.564,3.564,0,0,1-2.359,1.375.789.789,0,0,0,0,.848.185.185,0,0,0,.14.052.828.828,0,0,0,.216-.041h0l.006,0a.871.871,0,0,1,.225-.043.23.23,0,0,1,.128.034c.06.041.121.08.185.122l.059.038a5.5,5.5,0,0,1,1.707,1.458c.091.146.017.269-.062.4a.393.393,0,0,0-.077.4.127.127,0,0,0,.127.073.6.6,0,0,0,.1-.011.632.632,0,0,1,.107-.012.167.167,0,0,1,.136.056,3.038,3.038,0,0,1,.714,1.517,13.052,13.052,0,0,1,.093,2.1v0a15.633,15.633,0,0,0,.047,1.74,1.675,1.675,0,0,0,.408,1.036.706.706,0,0,0,.426.257c.211.051.34.083.354.964A25.953,25.953,0,0,0,83.829,31l.012.077a1.083,1.083,0,0,1-.269.567c-.156.215-.3.419-.243.646.045.164.242.171.45.178a.647.647,0,0,1,.47.125,1.743,1.743,0,0,1,.3,1.108l.005.1a21.477,21.477,0,0,1-.035,2.173c-.009.165-.019.36-.028.557-.008.179-.012.362-.016.539v.017a10.162,10.162,0,0,1-.092,1.365c-.065.415-.118.824-.169,1.219v.006a22.047,22.047,0,0,1-.407,2.427c-.147.611-.253,1.052-.661,1.052a1.8,1.8,0,0,1-.794-.286c-.171-.094-.333-.2-.475-.285l-.023-.014-.122-.076a3.793,3.793,0,0,1-.9-.876,3.3,3.3,0,0,0-1.036-.944,2.8,2.8,0,0,0-1.14-.167h-.025c-.438,0-.655-.052-.752-.182-.128-.174-.026-.49.144-1.015l.006-.019a7.88,7.88,0,0,1,.557-1.229l0,0a7.685,7.685,0,0,0,.591-1.33,6.207,6.207,0,0,0,.2-2.021,32.371,32.371,0,0,0-.409-4.65,21.569,21.569,0,0,0-1.124-3.942.478.478,0,0,0-.3-.235c-.136-.06-.265-.116-.282-.265a4.139,4.139,0,0,1,.13-1.338,3.7,3.7,0,0,0,.11-1.452,5.216,5.216,0,0,0-1.184-2.043l-.119-.151c-.03-.038-.062-.082-.094-.128v0c-.1-.143-.214-.3-.315-.3a.119.119,0,0,0-.092.054c-.212.456-.415.992-.629,1.559l-.005.015,0,.011c-.092.243-.186.494-.283.741a3.248,3.248,0,0,0,.1,1.194,6.3,6.3,0,0,1,.107.625c.062.6.119,1.214.175,1.805l0,.048c.1,1.049.2,2.133.333,3.2.033.261.087.523.14.777A5.253,5.253,0,0,1,75.8,31.68c-.01.131-.161.193-.307.253s-.3.122-.307.252c-.012.168.115.294.251.427v0a.749.749,0,0,1,.259.38,10.513,10.513,0,0,1,0,2.528,1.255,1.255,0,0,1-.158.437v0a1.535,1.535,0,0,0-.148.37,1.571,1.571,0,0,0,0,.707,1.256,1.256,0,0,0,.2.37,1.046,1.046,0,0,1,.21.439,10.78,10.78,0,0,1,0,2.425.7.7,0,0,1-.155.317.784.784,0,0,0-.152.29,9.1,9.1,0,0,0-.09,1.537v0a3.19,3.19,0,0,1-.211,1.593A24.5,24.5,0,0,0,74.1,41.787ZM74.576,5.35c-.09.089-.089.276-.089.616V6c0,.291.017.6.033.9v0c.016.312.033.634.034.947,0,.394-.012.775-.026,1.144V9c-.012.354-.028.755-.027,1.162,0,.428.019.892.034,1.3s.034.9.034,1.335c0,.271-.02.637-.041,1.023v.014a12.953,12.953,0,0,0-.031,1.515c.034.363.06.575.205.7a1.509,1.509,0,0,0,.907.153c.615,0,1.4-.758,1.629-.99a1.484,1.484,0,0,0,.316-.811v0a1.521,1.521,0,0,1,.094-.37c.062-.123.14-.244.215-.362v0a2.092,2.092,0,0,0,.36-.786,3.011,3.011,0,0,0,.021-.531.99.99,0,0,1,.235-.847,8.5,8.5,0,0,0,.289-2.1c0-.25-.15-.83-1.149-1.916-.177-.193-.368-.377-.538-.54l0,0a4.919,4.919,0,0,1-.6-.639,1.838,1.838,0,0,0-1.154-.928,2.946,2.946,0,0,0-.547-.087A.275.275,0,0,0,74.576,5.35ZM7.566,43.942c-.2-.025-.243-.127-.3-.256a.712.712,0,0,0-.2-.288.477.477,0,0,0-.3-.1.429.429,0,0,0-.292.1,4.03,4.03,0,0,0-.475.43c-.068.071-.091.1-.14.1a.609.609,0,0,1-.113-.018,4.152,4.152,0,0,0-.514-.075c-.134-.012-.291-.019-.48-.019-.339,0-.729.019-1.141.04H3.6l-.045,0H3.542c-.385.019-.864.042-1.313.042a6.688,6.688,0,0,1-1.291-.1C.514,43.712.243,43.55.2,43.355a.273.273,0,0,1,.117-.281,1.082,1.082,0,0,1,.44-.131,1.5,1.5,0,0,0,.34-.08,2.115,2.115,0,0,0,.738-.511,1.543,1.543,0,0,0,.206-.781,2.94,2.94,0,0,1,.253-1.063,31.19,31.19,0,0,0,.1-7.813c-.157-1.528-.062-5.9-.016-8,.014-.628.022-1.021.022-1.19.029-.054.058-.1.083-.145A1.424,1.424,0,0,0,2.7,22.4a1.767,1.767,0,0,1,.035-.275,1.063,1.063,0,0,0-.046-.743,3.691,3.691,0,0,1-.214-1.725c0-.212,0-.386,0-.54a3.35,3.35,0,0,1,.2-1.562l.007-.019c.037-.115.079-.244.128-.4a1.662,1.662,0,0,0,0-1.122.4.4,0,0,0-.306-.278c-.152-.043-.271-.076-.257-.744.01-.47.022-.98.038-1.653v-.014c.051-2.105.1-4.283.047-6.415.008-.128.124-.2.246-.273A.523.523,0,0,0,2.829,6.4a1.237,1.237,0,0,0,0-.917c-.021-.042-.069-.062-.15-.062a1.543,1.543,0,0,0-.165.014,1.284,1.284,0,0,1-.169.015.2.2,0,0,1-.139-.039c-.239-.225-.5-.426-.752-.621l0,0a4.154,4.154,0,0,1-1.4-1.5,1.334,1.334,0,0,1,.465-1.37,1.758,1.758,0,0,1,.775-.133c.207,0,.427.015.621.028h.011c.209.014.407.027.593.027a2.3,2.3,0,0,0,.368-.026,1.807,1.807,0,0,0,.419-.138h0a1.376,1.376,0,0,1,.512-.144c.614-.026,1.255-.062,1.82-.093h.005c1.312-.072,2.667-.146,4-.146.953,0,1.8.037,2.6.116.243.024.393.262.552.514h0a1.265,1.265,0,0,0,.44.5,3.391,3.391,0,0,0,.724.211h0a1.992,1.992,0,0,1,1.066.446,3.638,3.638,0,0,1,1.257,2.315c.037.424.088.881.133,1.285v0A20.6,20.6,0,0,1,16.6,8.946a4.7,4.7,0,0,1-.6,2.18,27.423,27.423,0,0,1-1.7,2.718,5.691,5.691,0,0,1-.448.545l0,0a2.822,2.822,0,0,0-.709,1.078.227.227,0,0,0,.027.2c.105.144.422.167.756.191.407.029.866.063,1.025.323a1.076,1.076,0,0,1-.013.907,1.438,1.438,0,0,0-.081.827c.078.258.342.4.6.546s.539.3.6.575a6.81,6.81,0,0,1-.041,2.185v0a7.177,7.177,0,0,0-.058,2.094c.039.224.24.342.435.457s.4.234.434.46c.064.731.062,1.477.062,2.267v0c0,.253,0,.514,0,.774,0,.416.011.839.019,1.247v.016c.012.663.026,1.349.017,2a.926.926,0,0,1-.3.519h0a.976.976,0,0,0-.3.5,7.293,7.293,0,0,0,.029,1.467,5.927,5.927,0,0,1-.024,1.787,4.976,4.976,0,0,1-.761,1.558v0l0,0a5.923,5.923,0,0,0-.7,1.335,7.1,7.1,0,0,0-.232,1.206v0a3.367,3.367,0,0,1-.459,1.605,9.278,9.278,0,0,0-2.4,1.257,11.2,11.2,0,0,0-1.074.926l0,0c-.319.3-.55.521-.7.534a1.4,1.4,0,0,1-.888.192,2.1,2.1,0,0,0-.663.074,1.092,1.092,0,0,0-.367.24.584.584,0,0,1-.418.2A.78.78,0,0,1,7.566,43.942Zm.7-24.958c0,.407-.023.782-.046,1.145v.005c-.022.363-.046.738-.046,1.146-.114.311-.206.564-.3.816.057.47.123,1,.2,1.631a6.632,6.632,0,0,1-.078.9v0a6.5,6.5,0,0,0-.079.9c-.119.14-.23.251-.319.341v0c-.174.175-.279.28-.272.4s.116.25.393.477c0,.333.024.673.046,1v0c.023.327.047.666.047,1v4.415l-.112.153q-.242.332-.485.662c.067,1.489.136,2.986.2,4.383q-.166.314-.33.627l-.108.2-.259.494a6.618,6.618,0,0,1,.874-.25h0a6.416,6.416,0,0,0,.876-.25c.251-.235.534-.464.834-.7a12.652,12.652,0,0,0,1.089-.946l.166-.168.024-.024a1.622,1.622,0,0,0,.652-1.421c.012-.176.026-.354.038-.506v0c.033-.43.067-.876.084-1.313.152-.6.38-1.508.606-2.407a3.081,3.081,0,0,0,0-1.8,5.828,5.828,0,0,0-.277-.782,1.464,1.464,0,0,1-.171-.724,2.539,2.539,0,0,1,.3-.86c.058-.127.132-.285.208-.462.138-.324.1-.367-.078-.55l0,0c-.036-.038-.077-.081-.122-.133a1.623,1.623,0,0,1-.463-.9,2.563,2.563,0,0,1,.171-1c.056-.19.12-.407.179-.657a1.648,1.648,0,0,0-.13-1.094,1.62,1.62,0,0,1-.119-1.123,1.1,1.1,0,0,0-.035-.838,1.73,1.73,0,0,0-.523-.5l0,0h0a4.967,4.967,0,0,1-.49-.4l-.3-.285-.244-.233q-.272-.259-.545-.517c-.2-.19-.36-.362-.491-.5l0-.005,0,0a1.506,1.506,0,0,0-.383-.348A.1.1,0,0,0,8.4,18C8.283,18,8.262,18.259,8.262,18.984ZM8.851,5.867c-.371.058-.638.1-.627.5.007.286-.018,1.252-.036,1.958v.034c-.013.5-.025.941-.022,1.037.007.234.069,4.511.07,4.552.168.005.308.014.41.02s.189.012.264.012a.552.552,0,0,0,.213-.032c.15-.061.236-.226.444-.624v0l.028-.052c.3-.577.734-1.275,1.094-1.328a8.186,8.186,0,0,0,.929-.18s.319-.066.21-.838c-.03-.214-.068-.42-.1-.619-.095-.519-.177-.967-.032-1.118a.967.967,0,0,0,.029-1.049c-.205-.234-.417-.474-.07-.809.193-.187.369-.467.3-.642-.045-.106-.169-.16-.374-.16a1.565,1.565,0,0,0-.163.01,2.2,2.2,0,0,1-.241.015c-.492,0-.563-.222-.626-.418q-.015-.05-.032-.1c-.074-.186-.635-.195-1.086-.2-.126,0-.255,0-.362-.01C8.991,5.845,8.919,5.856,8.851,5.867Zm76.386,37.4c-.084-.264.057-.369.206-.48a1.32,1.32,0,0,0,.144-.118,1.869,1.869,0,0,0,.637-1.049,1.648,1.648,0,0,1,.11-.294l0-.006v0a2.217,2.217,0,0,0,.18-.535,2.452,2.452,0,0,0-.164-1.248,2.555,2.555,0,0,0-.171-.319l-.005-.008a.782.782,0,0,1-.168-.646c.023-.155.264-.223.543-.3a3.709,3.709,0,0,0,.473-.157.967.967,0,0,0,.492-.477c.053-.132-.021-.18-.121-.246a.668.668,0,0,1-.258-.259,2.461,2.461,0,0,1-.186-.592,2,2,0,0,0-.142-.464c-.051-.093-.111-.193-.174-.3l0-.008a2.761,2.761,0,0,1-.486-1.163,12.129,12.129,0,0,1,.2-2.17,14.832,14.832,0,0,0,.186-1.632,6.468,6.468,0,0,1,.123-1.012,4.494,4.494,0,0,0,.085-1.326,2.664,2.664,0,0,0-.452-1.151c-.06-.1-.113-.2-.169-.3-.071-.131-.152-.264-.228-.392l0-.007,0,0a4.168,4.168,0,0,1-.454-.906,4.364,4.364,0,0,1-.095-1.326v0a5.483,5.483,0,0,0-.037-1.072c-.012-.074-.112-.157-.209-.237s-.205-.172-.212-.25a15.434,15.434,0,0,1-.033-1.71v-.01c.009-.48.018-.976-.014-1.457a.438.438,0,0,0-.109-.21.38.38,0,0,1-.106-.221,8.93,8.93,0,0,1-.013-1.142V18.03c.005-.172.011-.333.011-.492,0-.212-.015-.407-.03-.613-.017-.226-.034-.459-.034-.731a.583.583,0,0,0-.084-.264.609.609,0,0,1-.085-.255c-.022-.656-.016-1.361-.01-2.043v-.041c0-.485.009-.986,0-1.457,0-.294-.012-.583-.019-.863l0-.064v0a23.6,23.6,0,0,1,.027-2.595c.009-.1.115-.151.218-.2s.213-.1.209-.2c-.014-.341-.034-.6-.053-.848A12.218,12.218,0,0,1,84.7,5.977a.665.665,0,0,1,.119-.242l0,0a.675.675,0,0,0,.113-.221c.006-.08.013-.161.021-.242A5.355,5.355,0,0,0,84.9,3.294a1.39,1.39,0,0,0-.679-.767c-.076-.052-.162-.11-.249-.175a7.545,7.545,0,0,1-.578-.5l0,0a6.607,6.607,0,0,0-.542-.467A4.036,4.036,0,0,1,81.786.326c-.058-.084-.073-.148-.048-.2.053-.1.289-.119.546-.126l.189,0a8.429,8.429,0,0,1,1.246.1,1.116,1.116,0,0,1,.343.191l0,0A1.366,1.366,0,0,0,84.3.437a.807.807,0,0,0,.3.053c.062,0,.122-.005.181-.011s.123-.011.188-.011a.857.857,0,0,1,.262.039,17.84,17.84,0,0,1,1.7.84,2.064,2.064,0,0,1,.458.377,1.765,1.765,0,0,0,.525.4c.075.034,1.407.413,1.573.453a.616.616,0,0,0,.154.019,1.119,1.119,0,0,0,.317-.06h0a1.1,1.1,0,0,1,.32-.061.661.661,0,0,1,.155.019c.418.1,1.164.311,1.643.453a.968.968,0,0,1,.336.219.859.859,0,0,0,.371.226,5.665,5.665,0,0,0,.851.1c.447.026.553.033,1.284.757a3.766,3.766,0,0,0,.421.337,2.364,2.364,0,0,1,.627.579,3.53,3.53,0,0,1,.383,1.067,5.914,5.914,0,0,0,.183.65,3.133,3.133,0,0,0,.271.523v0a2.23,2.23,0,0,1,.333.74,10.349,10.349,0,0,1,.1,2.066v.006a12.394,12.394,0,0,0,.048,1.752,1.721,1.721,0,0,0,.245.586,1.685,1.685,0,0,1,.246.6,19.027,19.027,0,0,1,.005,4.426,1.3,1.3,0,0,1-.28.605v0a1.365,1.365,0,0,0-.282.592,5.666,5.666,0,0,0,.02,1.379v.007a6.872,6.872,0,0,1,.045,1.141,2.779,2.779,0,0,1-.467,1.168,1.06,1.06,0,0,1-.3.277.859.859,0,0,0-.326.333,5.018,5.018,0,0,0-.269,1.546v0a8.767,8.767,0,0,1-.1.9c-.043,1.453-.014,2.6.051,4.082.009.214.021.426.033.631l0,.026a12.133,12.133,0,0,1-.016,2.338,1.107,1.107,0,0,1-.2.458l0,0h0a1.15,1.15,0,0,0-.2.448,10.656,10.656,0,0,0-.078,1.641v.011a13.273,13.273,0,0,1-.039,1.33.661.661,0,0,1-.157.28.746.746,0,0,0-.149.249l-.005.071c0,.053-.007.108-.012.162a10.781,10.781,0,0,1-.511,3.008,4.039,4.039,0,0,1-1.513,1.737,4.507,4.507,0,0,1-1.494.531l-.013,0c-.133.03-.27.062-.407.1a3.732,3.732,0,0,1-.514.078h0a2.207,2.207,0,0,0-.794.181c-.125.064-.14.1-.157.132a.344.344,0,0,1-.137.144.414.414,0,0,1-.236.069.35.35,0,0,1-.222-.069.639.639,0,0,1-.128-.136.387.387,0,0,0-.182-.146,1.131,1.131,0,0,0-.478-.1,1.3,1.3,0,0,0-.5.1.339.339,0,0,0-.174.16.255.255,0,0,1-.2.146l-.087.017-.029.005a7.136,7.136,0,0,1-1.328.173h-.107a1.714,1.714,0,0,0-.2.013l-.014,0h0c-.054.005-.106.011-.152.011A.215.215,0,0,1,85.237,43.263Zm3.235-33.227c-.1.1-.13.3-.126.72q.021,1.793.043,3.585l.021,1.8v.024c0,.078,0,.154,0,.227a2.942,2.942,0,0,0,.307,1.583c.02.058.038.114.057.168.012.034.023.068.034.1a5.223,5.223,0,0,1,.375,1.749,1.181,1.181,0,0,1,.375.971c0,.04,0,.079.007.123-.035,3.149-.061,5.547-.085,7.778q-.019,3.658-.039,7.316c0,.473.086.8.235.863a.142.142,0,0,0,.061.013c.15,0,.33-.222.507-.624l.211-.479.129-.293q.107-.245.216-.489l.006-.015a3.693,3.693,0,0,0,.455-1.782,2.884,2.884,0,0,1,.467-1.566,6.643,6.643,0,0,0,.784-3.063c.017-1.2.035-2.424.053-3.619l.01-.676.025-1.7c0-.12,0-.228,0-.307a2.312,2.312,0,0,1,.077-.781,2.644,2.644,0,0,1,.381-.684,1.963,1.963,0,0,0,.411-1.154,3.152,3.152,0,0,1,.421-1.266,7.063,7.063,0,0,0,.287-3.375c-.014-.207-.025-.377-.033-.53a6.38,6.38,0,0,0-1.463-2.775l-.573-.547-.023-.038a2.349,2.349,0,0,0-1.079-1.076,1.626,1.626,0,0,0-.875-.264c-.1,0-.21.006-.349.014h-.008l-.143.008c-.074,0-.146.005-.221.005-.138,0-.261-.006-.375-.012l-.045,0c-.085-.005-.164-.011-.233-.011A.38.38,0,0,0,88.472,10.036Zm-41.8,30.939a8.127,8.127,0,0,1-.008-2.5c.012-.092.116-.091.226-.09s.208,0,.255-.07a.92.92,0,0,0,.18-.774c-.029-.076-.07-.06-.115-.043s-.088.031-.13-.034a.61.61,0,0,1,.06-.655c.2-.25.6-.185.738-.475.186-.4-.134-.894,0-1.311.021-.066.117-.033.212,0s.192.068.209,0c.156-.636-.038-1.316.06-1.963.026-.169.177-.248.2-.417a7.284,7.284,0,0,0,0-2.143c-.078-.437-.435-.751-.5-1.191a18.9,18.9,0,0,1-.084-4.925A21.806,21.806,0,0,1,49.4,20.07c.293-.725.438-.5.7-1.236a1.124,1.124,0,0,0,.06-.714c-.095-.282-.432-.5-.384-.792.058-.36.506-.351.625-.7.162-.469-.164-1.02,0-1.489.193-.551.86-.867,1.023-1.428.156-.535-.011-1.39.143-1.926a12.636,12.636,0,0,1,1.182-2.717,18.175,18.175,0,0,0,1.074-1.667,10.582,10.582,0,0,0,.309-1.844c-.214-.265-.584-.17-.967-.076a1.536,1.536,0,0,1-.839.057c-.286-.1-.285-.567-.57-.678a2.411,2.411,0,0,0-1.625.266c-.581.432-.587.938-.814,1.62-.34,1.02-.08,2.166-.5,3.155-.168.392-.852.5-1.181.773-.173.145-.254.3-.481.3s-.425-.078-.481-.3a6.751,6.751,0,0,1,0-1.369c-.018-.359-.212-.723-.12-1.071.047-.182.466-.111.481-.3C47.216,5.9,46.969,3.865,47,1.91c.01-.6.152-.6.65-.592h.228c.653-.007,1.524-.007,2.4-.007.663,0,1.328,0,1.9,0,2.32-.011,4.646-.1,6.959-.034.344.025.793.152.817.491a4,4,0,0,1-.74,1.965c-.171.323-.552.534-.678.877-.213.581.018,1.269-.208,1.846-.137.354-.838.419-.973.773-.191.5.138,1.109-.06,1.608-.1.247-.633.106-.723.356-.3.849-.125,1.809-.36,2.678-.131.481-.5.817-.565,1.31-.181,1.338.118,2.7,0,4.048-.026.291-.337.493-.422.773-.2.66-.323,1.373-.552,2.024-.1.28-.465.427-.541.714-.113.422.17.907,0,1.31-.215.505-.968.713-1.083,1.25-.325,1.515.189,3.112-.05,4.643-.107.685-.717,1.223-.843,1.9-.161.878.117,1.916-.1,2.782a23.576,23.576,0,0,1-1.133,2.366c-.071.79-1.03,1.516-.507,2.114a4.856,4.856,0,0,0,2.407-.119c.336-.152-.053-.85.241-1.072a17.426,17.426,0,0,1,2.938-1.429,12.06,12.06,0,0,0,1.816-.952c.261-.2.291-.665.6-.773.187-.065.226.384.422.416a3.088,3.088,0,0,0,.9-.015,2.687,2.687,0,0,1,1.016.015c.264.069.256.42.324.681.062.234.169.486.037.689-.039.059-.128.057-.215.055s-.179,0-.207.064a1.48,1.48,0,0,0,0,.893c.055.225.263.365.283.6a18.3,18.3,0,0,1,0,3.631.562.562,0,0,1-.429.543c-1.736-.078-3.34.047-5.079.052-.178-.016-.076-.329-.241-.4a3.409,3.409,0,0,0-1.732-.108c-.554.125-.6.576-1.157.685a8.408,8.408,0,0,1-1.686.093,9.581,9.581,0,0,0-1.487.062c-.358.054-.63.354-.981.44a3.493,3.493,0,0,1-.8.116A.763.763,0,0,1,46.673,40.975ZM25.444,36.833c0-.728,1.456-1.572,1.456-1.572q.2-.392.406-.785.049-2.156.1-4.314c.391-.649.51-.582-.051-1.064a6.256,6.256,0,0,1,.1-1.625,2.835,2.835,0,0,0,.253-.9l-.1-5.827c-.017-1.653,0-3.306-.016-4.958s-.068-3.306-.085-4.958L27.356,4.11a1.154,1.154,0,0,0-1.214-.756,2.477,2.477,0,0,1-1.214-.55c-.333-.262-.516-.729.355-.991l1.062-.056c.808.018,1.488.1,2.317.122.47.01.978,0,1.489-.005s1.025-.014,1.508,0a.558.558,0,0,1,.455.9.72.72,0,0,1-.759.673c-.456,0-1.012,1.12-1.012,1.12v.728c.326.272.588.473.582.713-.006.309-.329.525-.6.942.068,3.492.1,7.123.168,10.614a4.588,4.588,0,0,1,.239,1.274c-.036.217-.154.431-.644.576V21.59c.119.6.133,1.333.251,1.931-.05.467.176.8.126,1.263-.169.243-.511.486-.679.728v.728l.253.336q.049.954.1,1.9.151.336.3.672v2.521l-.557.784q.1.757.2,1.513c.675.523,1.584.859,2.259,1.381.467.3.6,1.316-.047,1.382a9.9,9.9,0,0,0-1-.131c-.252,0-.3.337-.81-.056s-2.615,0-3.122,0-.711.5-1.217.84a.4.4,0,0,1-.218.076C25.59,37.465,25.444,36.833,25.444,36.833Zm12.38.012c-.166,0-.323,0-.447,0-.3-.144-.32-.7-.65-.759a5.577,5.577,0,0,0-1.487.026,6.315,6.315,0,0,1-1.343.045c-.291-.037-.309-.482-.36-.767-.037-.2.436-.205.473-.409.151-.844-.058-1.443.111-2.283.042-.206.362-.161.453-.351a.835.835,0,0,0,0-.759c-.124-.2-.477-.131-.65-.292a.772.772,0,0,1-.229-.7c.037-.259.507-.277.591-.526.062-.182-.146-.356-.236-.527-.107-.2-.35-.357-.355-.584a9.923,9.923,0,0,1,.3-2.221c.124-.6.237-1.158.373-1.753a8.382,8.382,0,0,1,.454-1.87c.258-.519.826-1.009,1.109-1.515a5.748,5.748,0,0,0,.427-1.232,3.372,3.372,0,0,1,.59-1.169c.207-.238.528-.187.67-.467.193-.384-.011-.863.059-1.286a7.837,7.837,0,0,1,.414-1.578,7.51,7.51,0,0,1,.834-1.675c.3-.43.774-.643,1.1-1.058A6.214,6.214,0,0,0,41.1,11.366c.181-.6-.347-1.3.006-1.818a13.331,13.331,0,0,1,1.064-1.241A7.482,7.482,0,0,0,43.522,6.4a5.7,5.7,0,0,0,0-1.929c-.01-.13-.045-.331-.177-.325-.611.026-1.191.022-1.737.019a18.4,18.4,0,0,0-1.946.052,2.273,2.273,0,0,0-1.162.721,3.384,3.384,0,0,0-.886,1.228c-.135.325.079.644-.138.922-.084.106-.235.061-.391.016a.492.492,0,0,0-.377-.016,1.115,1.115,0,0,0-.473.759c-.154.962.118,2.09-.038,3.052-.029.177-.351.182-.414.35-.088.238.24.674,0,.76a1.935,1.935,0,0,1-.656,0c-.315-.02-.036-.632-.112-.935-.063-.253-.283-.45-.354-.7-.125-.65-.213-1.129-.309-1.8,0-.194.235-.456.25-.65a4.356,4.356,0,0,0-.177-1.812c-.075-.205-.508-.075-.512-.293-.02-1.174.039-2.237,0-3.214a1.134,1.134,0,0,1,.216-.715.831.831,0,0,1,.591-.22c.938-.064,1.879-.042,2.819-.02.577.013,1.153.026,1.73.02,1.852-.022,3.677-.063,5.527.013.119.005.078.1.086.22.037.605-.045,1.2-.059,1.87,0,.179.4.172.413.351a65.261,65.261,0,0,1-.078,6.6c-.007.183-.278.285-.3.467a6.935,6.935,0,0,1-.1,1.654,10.415,10.415,0,0,1-.873,1.528c-.289.539-.27,1.018-.531,1.57a6.035,6.035,0,0,0-.617,1.137c-.161.663.078,1.333-.177,1.967-.062.153-.217.149-.383.146a.653.653,0,0,0-.371.063,2.162,2.162,0,0,0-.926,1.052c-.154.564.177,1.2,0,1.753-.071.224-.517.1-.65.292a16.9,16.9,0,0,0-1.634,3.5c-.4,1.083-.575,1.773-.946,2.866-.579,1.7-1.275,3.432-1.811,5.15-.066.213.2.586.414.527.715-.2,1.044-.709,1.732-.986a7.1,7.1,0,0,0,1.917-.691c.626-.521.578-1.139,1.123-1.744.458-.509,1.444-.806,1.9-1.313.284-.313-.093-.812.243-1.071a.777.777,0,0,1,.669-.018.948.948,0,0,0,.63.018c.073-.035.075-.109.054-.2-.033-.146-.127-.332-.054-.445.037-.057.121-.029.207,0s.169.057.207,0c.151-.231-.053-.811.171-.975a1.257,1.257,0,0,1,1,.183,5.7,5.7,0,0,1,.1,1.871c-.017.168-.224.171-.261.341-.113.513-.62.823-.67,1.344-.153,1.631.2,3.443-.027,5.066-.025.174-.235.152-.459.129a.755.755,0,0,0-.486.047c-.228.164.055.558-.223.6a21.668,21.668,0,0,1-2.27.011c-.62-.019-1.25-.037-1.911-.011-.18-.021.052-.465-.119-.527a1.252,1.252,0,0,0-1,.117c-.236.137-.171.576-.414.7h-.5ZM97.559,3.453a1.792,1.792,0,0,1-.573-.386A1.736,1.736,0,0,1,96.6,2.5a1.694,1.694,0,0,1-.135-.664,1.726,1.726,0,0,1,.136-.673,1.787,1.787,0,0,1,.392-.577A1.651,1.651,0,0,1,97.55.215a1.787,1.787,0,0,1,.678-.128,1.831,1.831,0,0,1,.687.13,1.735,1.735,0,0,1,.953.945,1.771,1.771,0,0,1,.132.675,1.74,1.74,0,0,1-.129.672,1.639,1.639,0,0,1-.381.553,1.89,1.89,0,0,1-.588.387,1.74,1.74,0,0,1-1.344,0ZM97.69.546a1.335,1.335,0,0,0-.447.3,1.444,1.444,0,0,0-.31.459,1.371,1.371,0,0,0,0,1.062,1.439,1.439,0,0,0,.764.756,1.4,1.4,0,0,0,1.073,0,1.437,1.437,0,0,0,.465-.309,1.3,1.3,0,0,0,.3-.441,1.373,1.373,0,0,0,.1-.534,1.374,1.374,0,0,0-.409-.981,1.382,1.382,0,0,0-1-.409A1.446,1.446,0,0,0,97.69.546Zm.775,2.2-.339-.725h-.059v.725h-.6V.851h.784a1.134,1.134,0,0,1,.624.142.465.465,0,0,1,.216.414.509.509,0,0,1-.1.315.59.59,0,0,1-.285.2l.419.825Zm-.4-1.072h.127a.317.317,0,0,0,.205-.057.21.21,0,0,0,.07-.17.19.19,0,0,0-.074-.168.407.407,0,0,0-.236-.054h-.091Z" transform="translate(0.607 0.5)" fill="#1a1818" stroke="rgba(0,0,0,0)" stroke-width="1"/>
</svg>
