<svg xmlns="http://www.w3.org/2000/svg" width="140" height="44" viewBox="0 0 140 44">
  <g id="Group_174" data-name="Group 174" transform="translate(0 0.267)">
    <g id="Rectangle_602" data-name="Rectangle 602" transform="translate(0 -0.267)" fill="#fff" stroke="#000" stroke-width="1">
      <rect width="140" height="44" rx="7" stroke="none"/>
      <rect x="0.5" y="0.5" width="139" height="43" rx="6.5" fill="none"/>
    </g>
    <path id="Path_1220" data-name="Path 1220" d="M-8028.3-7109.737l1.685-.694a2.424,2.424,0,0,0,2.213,1.552,2.237,2.237,0,0,0,2.348-2.554v-.625h-.064a3.018,3.018,0,0,1-2.317.987,4.332,4.332,0,0,1-4.216-4.335,4.351,4.351,0,0,1,4.216-4.365,3.072,3.072,0,0,1,2.317.971h.064v-.706h1.832v7.808c0,3.212-1.911,4.532-4.18,4.532A4.189,4.189,0,0,1-8028.3-7109.737Zm1.581-5.669a2.51,2.51,0,0,0,2.451,2.619,2.442,2.442,0,0,0,2.349-2.619,2.463,2.463,0,0,0-2.349-2.653A2.53,2.53,0,0,0-8026.717-7115.407Zm45.165,7.948,1.961-4.311-3.443-7.746h2.081l2.294,5.542h.068l2.21-5.542h2.144l-5.3,12.056Zm-111.272-1.021,12.169-12.159,3.746,3.737-14.468,8.138a2.248,2.248,0,0,1-1.1.32A1.653,1.653,0,0,1-8092.824-7108.479Zm-1.177-1.786v-22.6a2.432,2.432,0,0,1,.164-.917l12.238,12.2-12.241,12.229A2.424,2.424,0,0,1-8094-7110.265Zm77.978-5.158a4.154,4.154,0,0,1,4.148-4.349,4.078,4.078,0,0,1,3.765,2.767l.2.5-5.88,2.4a2.241,2.241,0,0,0,2.132,1.317,2.52,2.52,0,0,0,2.167-1.2l1.5.987a4.383,4.383,0,0,1-3.665,1.93A4.281,4.281,0,0,1-8016.023-7115.423Zm1.916-.132,3.933-1.613a1.708,1.708,0,0,0-1.634-.924A2.4,2.4,0,0,0-8014.107-7115.555Zm-24.175.132a4.309,4.309,0,0,1,4.411-4.349,4.312,4.312,0,0,1,4.415,4.349,4.324,4.324,0,0,1-4.415,4.351A4.321,4.321,0,0,1-8038.282-7115.423Zm1.931,0a2.526,2.526,0,0,0,2.48,2.635,2.526,2.526,0,0,0,2.481-2.635,2.519,2.519,0,0,0-2.481-2.637A2.519,2.519,0,0,0-8036.352-7115.423Zm-11.56,0a4.309,4.309,0,0,1,4.411-4.349,4.311,4.311,0,0,1,4.413,4.349,4.322,4.322,0,0,1-4.413,4.351A4.321,4.321,0,0,1-8047.911-7115.423Zm1.93,0a2.528,2.528,0,0,0,2.481,2.635,2.526,2.526,0,0,0,2.483-2.635,2.519,2.519,0,0,0-2.483-2.637A2.521,2.521,0,0,0-8045.981-7115.423Zm-15.9-2.4a6.888,6.888,0,0,1,6.929-6.755,6.537,6.537,0,0,1,4.68,1.861l-1.314,1.3a4.777,4.777,0,0,0-3.365-1.32,4.874,4.874,0,0,0-4.9,4.913,4.873,4.873,0,0,0,4.9,4.909,4.584,4.584,0,0,0,3.448-1.35,3.842,3.842,0,0,0,1.017-2.322h-4.465v-1.846h6.28a6.114,6.114,0,0,1,.1,1.153,6.056,6.056,0,0,1-1.614,4.317,6.29,6.29,0,0,1-4.765,1.9A6.889,6.889,0,0,1-8061.882-7117.828Zm71.119,3.92c0-1.876,1.878-2.879,3.723-2.879a4.3,4.3,0,0,1,2.014.494v-.133a1.852,1.852,0,0,0-2.027-1.646,1.828,1.828,0,0,0-1.763.938l-1.715-.707a3.633,3.633,0,0,1,3.443-1.958c2.212,0,3.923,1.271,3.923,3.54v4.9h-1.861v-.984h-.068a2.726,2.726,0,0,1-2.458,1.25A2.974,2.974,0,0,1-7990.763-7113.907Zm1.928.035c0,.774.883,1.082,1.513,1.082a2.33,2.33,0,0,0,2.3-2.021,3.5,3.5,0,0,0-1.763-.429C-7987.737-7115.241-7988.835-7114.861-7988.835-7113.873Zm-4.923,2.537v-12.788h1.929v12.788Zm-9.924,0v-12.788h4.621a4.078,4.078,0,0,1,4.239,3.972,4.078,4.078,0,0,1-4.239,3.972h-2.692v4.845Zm1.929-6.624h2.74a2.243,2.243,0,0,0,2.265-2.193,2.23,2.23,0,0,0-2.265-2.19h-2.74Zm-17.135,6.624v-12.788h1.934v12.788Zm-60.821-10.246,3.986-3.984,4.491,2.525c1.443.812,1.443,2.141,0,2.953l-4.466,2.51Zm-13.1-13.068a2.06,2.06,0,0,1,1.438.285l14.442,8.121-3.722,3.719Zm60.053,5.132a3.131,3.131,0,0,1-.914-2.277,3.118,3.118,0,0,1,.914-2.272,3.055,3.055,0,0,1,2.275-.931,3.058,3.058,0,0,1,2.27.932,3.128,3.128,0,0,1,.919,2.271,3.139,3.139,0,0,1-.914,2.277,3.061,3.061,0,0,1-2.274.931A3.056,3.056,0,0,1-8032.761-7129.518Zm.589-4.035a2.389,2.389,0,0,0-.687,1.758,2.393,2.393,0,0,0,.688,1.762,2.288,2.288,0,0,0,1.687.69,2.28,2.28,0,0,0,1.684-.69,2.384,2.384,0,0,0,.69-1.762,2.38,2.38,0,0,0-.69-1.758,2.282,2.282,0,0,0-1.684-.69A2.29,2.29,0,0,0-8032.172-7133.552Zm-28.451,4.043a3.074,3.074,0,0,1-.938-2.285,3.072,3.072,0,0,1,.938-2.282,3.143,3.143,0,0,1,2.285-.923,3.258,3.258,0,0,1,1.271.256,2.6,2.6,0,0,1,.972.686l-.545.541a2.107,2.107,0,0,0-1.7-.726,2.364,2.364,0,0,0-1.694.679,2.336,2.336,0,0,0-.716,1.769,2.332,2.332,0,0,0,.716,1.771,2.365,2.365,0,0,0,1.694.681,2.356,2.356,0,0,0,1.729-.683,1.91,1.91,0,0,0,.521-1.245h-2.251v-.735h3a2.463,2.463,0,0,1,.045.463,2.75,2.75,0,0,1-.771,2.046,3.016,3.016,0,0,1-2.278.91A3.149,3.149,0,0,1-8060.623-7129.509Zm18.275.786v-6.139h.8v6.139Zm-11.8,0v-6.137h3.623v.753h-2.823v1.946h2.544v.738h-2.544v1.945h2.823v.755Zm31.918,0-3.157-5h-.03l.03,1.185v3.82h-.794v-6.137h.969l3.014,4.776h.035l-.035-1.183v-3.594h.8v6.137Zm-16.584,0v-5.384h-1.73v-.753h4.26v.753h-1.73v5.384Zm-9.149,0v-5.384h-1.73v-.753h4.263v.753h-1.733v5.384Z" transform="translate(8104.121 7142.771)" stroke="rgba(0,0,0,0)" stroke-width="1"/>
  </g>
</svg>
