<svg height="43" viewBox="0 0 140 43" width="140" xmlns="http://www.w3.org/2000/svg"><g transform="translate(0 -.466)"><g fill="#fff" stroke="#000"><rect height="43" rx="7" stroke="none" width="140" y=".466"/><rect fill="none" height="42" rx="6.5" width="139" x=".5" y=".966"/></g><path d="m-7473.218-7222.009v-1.188h.842a1.382 1.382 0 0 0 .918-.284 3.507 3.507 0 0 0 .715-1.321l.264-.643-3.517-8.534h1.514l2.714 6.776 2.7-6.776h1.513l-3.808 9.473a5.2 5.2 0 0 1 -1.181 2.03 2.351 2.351 0 0 1 -1.532.468zm-56.78 0v-11.971h1.435v1.309a2.964 2.964 0 0 1 1.122-1.144 3.361 3.361 0 0 1 1.649-.38 3.1 3.1 0 0 1 2.559 1.26 5.144 5.144 0 0 1 .994 3.3 5.174 5.174 0 0 1 -.994 3.3 3.11 3.11 0 0 1 -2.559 1.249 3.453 3.453 0 0 1 -1.649-.37 3.031 3.031 0 0 1 -1.122-1.154v4.6zm2.064-10.093a4.21 4.21 0 0 0 -.634 2.47 4.206 4.206 0 0 0 .634 2.468 2.107 2.107 0 0 0 1.789.889 2.06 2.06 0 0 0 1.768-.889 4.127 4.127 0 0 0 .654-2.468 4.131 4.131 0 0 0 -.654-2.47 2.044 2.044 0 0 0 -1.768-.9 2.1 2.1 0 0 0 -1.789.902zm-12.133 10.093v-11.971h1.425v1.309a2.952 2.952 0 0 1 1.135-1.144 3.333 3.333 0 0 1 1.64-.38 3.112 3.112 0 0 1 2.566 1.26 5.133 5.133 0 0 1 1 3.3 5.163 5.163 0 0 1 -1 3.3 3.119 3.119 0 0 1 -2.566 1.249 3.424 3.424 0 0 1 -1.64-.37 3.039 3.039 0 0 1 -1.135-1.154v4.6zm2.067-10.091a4.166 4.166 0 0 0 -.646 2.47 4.162 4.162 0 0 0 .646 2.468 2.107 2.107 0 0 0 1.787.889 2.057 2.057 0 0 0 1.769-.889 4.113 4.113 0 0 0 .655-2.468 4.117 4.117 0 0 0 -.655-2.47 2.042 2.042 0 0 0 -1.769-.9 2.1 2.1 0 0 0 -1.787.9zm-35.154 9.529a11.684 11.684 0 0 1 -3.186-.365 4.733 4.733 0 0 1 -2.115-1.179 4.726 4.726 0 0 1 -1.18-2.117 11.7 11.7 0 0 1 -.364-3.183v-10.622a11.667 11.667 0 0 1 .364-3.181 4.709 4.709 0 0 1 1.18-2.115 4.724 4.724 0 0 1 2.115-1.177 11.771 11.771 0 0 1 3.186-.362h10.621a11.74 11.74 0 0 1 3.182.362 4.72 4.72 0 0 1 2.114 1.177 4.724 4.724 0 0 1 1.177 2.115 11.752 11.752 0 0 1 .362 3.181v10.622a11.7 11.7 0 0 1 -.364 3.183 4.761 4.761 0 0 1 -1.178 2.117 4.745 4.745 0 0 1 -2.114 1.179 11.64 11.64 0 0 1 -3.179.365zm-.489-10.337a1.471 1.471 0 0 0 .355 1.042 1.343 1.343 0 0 0 1 .373 1.281 1.281 0 0 0 1.377-1.437v-1.8h-.646v1.821c0 .515-.256.8-.724.8s-.722-.283-.722-.819v-1.8h-.645zm8.543-.722.724 2.087h.546l1.1-3.183h-.674l-.7 2.187-.724-2.187h-.529l-.714 2.187-.7-2.187h-.693l1.113 3.183h.528l.724-2.087zm-10.083.788v1.3h.645v-3.183h-.645v1.278h-1.454v-1.278h-.645v3.183h.645v-1.3zm16.137 1.288h.645v-3.172h-.645zm-3.162 0h2.4v-.574h-1.768v-.783h1.174v-.585h-1.174v-.645h1.7v-.584h-2.333zm-5.972-.653.283.653h.674l-1.394-3.172h-.565l-1.4 3.172h.654l.3-.653zm-2.523-7.747a4.017 4.017 0 0 0 2.86 1.185 4.047 4.047 0 0 0 4.042-4.042h-.565a3.475 3.475 0 0 1 -3.477 3.467 3.475 3.475 0 0 1 -3.477-3.467h-.565a4.015 4.015 0 0 0 1.185 2.855zm82.093 13.666a4.393 4.393 0 0 1 -1.209-3.264 4.761 4.761 0 0 1 1.153-3.377 4 4 0 0 1 3.1-1.259 3.521 3.521 0 0 1 2.765 1.135 4.359 4.359 0 0 1 1.021 3.053v.705h-6.551a3.3 3.3 0 0 0 .879 2.244 3.082 3.082 0 0 0 2.218.759 6.48 6.48 0 0 0 1.584-.194 6.951 6.951 0 0 0 1.533-.6v1.349a9.118 9.118 0 0 1 -1.573.5 8.114 8.114 0 0 1 -1.629.166 4.48 4.48 0 0 1 -3.293-1.22zm1.14-6.017a2.85 2.85 0 0 0 -.818 1.895h5.086a2.728 2.728 0 0 0 -.664-1.874 2.18 2.18 0 0 0 -1.689-.695 2.7 2.7 0 0 0 -1.917.671zm-19.974 6.482a2.662 2.662 0 0 1 -.781-2.014 2.625 2.625 0 0 1 .976-2.208 4.829 4.829 0 0 1 2.928-.742h1.993v-.137a1.866 1.866 0 0 0 -.644-1.522 2.759 2.759 0 0 0 -1.814-.536 6.007 6.007 0 0 0 -1.445.175 5.755 5.755 0 0 0 -1.358.536v-1.319a9.29 9.29 0 0 1 1.523-.449 6.739 6.739 0 0 1 1.426-.155 3.709 3.709 0 0 1 2.813.975 4.185 4.185 0 0 1 .927 2.965v4.95h-1.427v-1.318a3.146 3.146 0 0 1 -1.21 1.173 3.92 3.92 0 0 1 -1.787.37 2.961 2.961 0 0 1 -2.122-.746zm1.308-3.449a1.437 1.437 0 0 0 -.664 1.35 1.534 1.534 0 0 0 .5 1.21 1.971 1.971 0 0 0 1.356.439 2.375 2.375 0 0 0 1.905-.841 3.338 3.338 0 0 0 .712-2.236v-.321h-1.417a5.037 5.037 0 0 0 -2.394.397zm-12.869 2.609a6.1 6.1 0 0 1 -1.522-4.412 6.107 6.107 0 0 1 1.522-4.413 5.62 5.62 0 0 1 4.247-1.593 7.841 7.841 0 0 1 2.139.284 6.667 6.667 0 0 1 1.884.82v1.668a6.282 6.282 0 0 0 -1.844-1.113 5.74 5.74 0 0 0 -2.051-.369 4.1 4.1 0 0 0 -3.192 1.179 5.177 5.177 0 0 0 -1.054 3.533 5.143 5.143 0 0 0 1.054 3.523 4.108 4.108 0 0 0 3.192 1.179 7.491 7.491 0 0 0 1.484-.135 3.992 3.992 0 0 0 1.162-.442v-3.1h-2.55v-1.288h4.1v4.97a6.836 6.836 0 0 1 -2 .976 8.121 8.121 0 0 1 -2.323.319 5.636 5.636 0 0 1 -4.25-1.588zm25.444 1.358v-12.046h1.425v12.046zm-4.405 0v-12.046h1.425v12.046zm-45.3 0-1.053-2.967h-5.207l-1.055 2.967h-1.647l4.412-11.56h1.769l4.411 11.56zm-5.788-4.266h4.245l-2.129-5.75zm69.515 4.263v-8.669h1.425v1.35a2.891 2.891 0 0 1 1.175-1.173 3.611 3.611 0 0 1 1.747-.392 1.982 1.982 0 0 1 .33.03 2.936 2.936 0 0 1 .391.05l.011 1.462a2 2 0 0 0 -.529-.2 2.548 2.548 0 0 0 -.614-.071 2.289 2.289 0 0 0 -1.864.79 3.462 3.462 0 0 0 -.646 2.254v4.571zm-89.854-7.475.485-1.134.489 1.134zm67.388-8.868a3.249 3.249 0 0 1 -.749-2.254 3.259 3.259 0 0 1 .749-2.254 2.565 2.565 0 0 1 2.005-.841 2.577 2.577 0 0 1 2.014.839 3.251 3.251 0 0 1 .75 2.254 3.257 3.257 0 0 1 -.75 2.254 2.573 2.573 0 0 1 -2.014.839 2.577 2.577 0 0 1 -2.01-.839zm.618-4.038a2.814 2.814 0 0 0 -.518 1.789 2.828 2.828 0 0 0 .518 1.788 1.685 1.685 0 0 0 1.395.654 1.683 1.683 0 0 0 1.4-.654 2.881 2.881 0 0 0 .509-1.788 2.836 2.836 0 0 0 -.509-1.789 1.674 1.674 0 0 0 -1.4-.655 1.685 1.685 0 0 0 -1.4.653zm-30.544 4.038a3.25 3.25 0 0 1 -.751-2.254 3.26 3.26 0 0 1 .751-2.254 2.593 2.593 0 0 1 2.022-.839 2.557 2.557 0 0 1 2 .839 3.243 3.243 0 0 1 .752 2.254 3.258 3.258 0 0 1 -.752 2.254 2.557 2.557 0 0 1 -2 .839 2.6 2.6 0 0 1 -2.027-.841zm.618-4.038a2.855 2.855 0 0 0 -.511 1.789 2.869 2.869 0 0 0 .511 1.788 1.71 1.71 0 0 0 1.4.654 1.653 1.653 0 0 0 1.384-.654 2.84 2.84 0 0 0 .521-1.788 2.791 2.791 0 0 0 -.521-1.789 1.645 1.645 0 0 0 -1.384-.655 1.71 1.71 0 0 0 -1.405.653zm11.11 4.767v-5.97h3.77v.674h-2.959v1.768h2.841v.685h-2.841v2.158h3.037v.686zm-21.334 0v-5.97h1.814a2.256 2.256 0 0 1 1.524.451 1.7 1.7 0 0 1 .509 1.327 1.7 1.7 0 0 1 -.509 1.339 2.259 2.259 0 0 1 -1.524.45h-1.014v2.4zm.8-3.068h1.014a1.257 1.257 0 0 0 .879-.286 1.111 1.111 0 0 0 .306-.839 1.084 1.084 0 0 0 -.306-.818 1.232 1.232 0 0 0 -.879-.3h-1.014zm-11.581 3.068v-5.97h3.768v.674h-2.967v1.768h2.842v.685h-2.842v2.158h3.047v.686zm59.774-.005-2.646-4.989v4.989h-.78v-5.965h1.083l2.647 4.99v-4.99h.791v5.965zm-16.179 0v-5.291h-2.118v-.674h5.047v.674h-2.118v5.291zm-3.711 0v-5.965h.811v5.965zm-24.173 0v-5.965h.811v5.282h2.907v.683zm-6.863 0-1.668-2.538-1.7 2.538h-.87l2.128-3.181-1.854-2.784h.868l1.485 2.217 1.482-2.217h.87l-1.913 2.862 2.038 3.1zm21.363 0-.761-1.534a2.227 2.227 0 0 0 -.574-.79 1.323 1.323 0 0 0 -.761-.194h-.879v2.518h-.809v-5.962h1.822a2.328 2.328 0 0 1 1.534.43 1.6 1.6 0 0 1 .5 1.288 1.59 1.59 0 0 1 -.265.938 1.351 1.351 0 0 1 -.768.506 1.2 1.2 0 0 1 .511.38 4.067 4.067 0 0 1 .5.791l.821 1.628zm-2.979-3.178h1.015a1.244 1.244 0 0 0 .879-.276 1.009 1.009 0 0 0 .306-.79.99.99 0 0 0 -.306-.789 1.28 1.28 0 0 0 -.879-.265h-1.015z" fill="#010202" transform="translate(7592.779 7256.373)"/></g></svg>