<svg xmlns="http://www.w3.org/2000/svg" xmlns:xlink="http://www.w3.org/1999/xlink" width="263.695" height="101.087" viewBox="0 0 263.695 101.087">
  <defs>
    <clipPath id="clip-path">
      <rect id="Rectangle_226" data-name="Rectangle 226" width="260.568" height="43.589" fill="none"/>
    </clipPath>
  </defs>
  <g id="Group_201" data-name="Group 201" transform="translate(0 58.615) rotate(-13)">
    <g id="Group_200" data-name="Group 200" clip-path="url(#clip-path)">
      <path id="Path_376" data-name="Path 376" d="M30.448,49.895a19.447,19.447,0,1,1,0-38.895H247.426a19.447,19.447,0,1,1,0,38.895Z" transform="translate(-8.653 -8.653)" fill="#62baaf"/>
      <path id="Path_377" data-name="Path 377" d="M238.773,4.694a17.1,17.1,0,1,1,0,34.2H21.795a17.1,17.1,0,1,1,0-34.2Zm0-4.694H21.795a21.795,21.795,0,1,0,0,43.589H238.773a21.795,21.795,0,1,0,0-43.589" transform="translate(0 0)" fill="#b3e2dc"/>
      <path id="Path_378" data-name="Path 378" d="M428.7,75.092a5.846,5.846,0,0,1,4.436,1.781,7.482,7.482,0,0,1,0,9.3,5.811,5.811,0,0,1-4.436,1.8h-5.247V75.092Zm-.035,11.257a4.167,4.167,0,0,0,3.055-1.194,5.892,5.892,0,0,0,0-7.239,4.168,4.168,0,0,0-3.055-1.194h-3.452v9.627Z" transform="translate(-333.1 -59.07)" fill="#fff"/>
      <path id="Path_379" data-name="Path 379" d="M486.63,75.093h2.037v1.952H486.63ZM486.8,78.5h1.692v9.475H486.8Z" transform="translate(-382.798 -59.07)" fill="#fff"/>
      <path id="Path_380" data-name="Path 380" d="M507.765,102.249a3.524,3.524,0,0,1-2.088-.588,2.1,2.1,0,0,1-.846-1.743,2.428,2.428,0,0,1,.38-1.346,2.931,2.931,0,0,1,.915-.891,1.45,1.45,0,0,1-.414-.587,1.728,1.728,0,0,1-.121-.606,1.576,1.576,0,0,1,.293-.929,2.276,2.276,0,0,1,.794-.739,3.618,3.618,0,0,1-.915-1.137,3.287,3.287,0,0,1-.328-1.478,3.248,3.248,0,0,1,1.26-2.615,5.012,5.012,0,0,1,3.176-.985,5.752,5.752,0,0,1,1.916.3,4.265,4.265,0,0,1,1.45.853,1.912,1.912,0,0,1,.552-.985,1.5,1.5,0,0,1,1.018-.36h.846V89.95h-.759a2.192,2.192,0,0,0-.673.095.6.6,0,0,0-.4.417,3.01,3.01,0,0,1,.363.815,3.477,3.477,0,0,1,.121.929,3.213,3.213,0,0,1-1.26,2.615,5.06,5.06,0,0,1-3.176.986,6.405,6.405,0,0,1-1.122-.095,4.546,4.546,0,0,1-.984-.284,1.023,1.023,0,0,0-.4.341.665.665,0,0,0-.138.4.707.707,0,0,0,.242.531,1.056,1.056,0,0,0,.742.265h3.607a3.613,3.613,0,0,1,2.3.644,2.4,2.4,0,0,1,.846,1.952,2.475,2.475,0,0,1-.846,1.99,3.475,3.475,0,0,1-2.313.7Zm3.987-1.478a1.928,1.928,0,0,0,1.156-.3,1.034,1.034,0,0,0,.414-.891,1.051,1.051,0,0,0-.4-.891,1.814,1.814,0,0,0-1.122-.3h-3.366q-.225,0-.552-.019a5.755,5.755,0,0,1-.673-.114,2.044,2.044,0,0,0-.518.549,1.289,1.289,0,0,0-.224.72,1.119,1.119,0,0,0,.38.872,1.862,1.862,0,0,0,1.26.379Zm-1.881-6.462a3.3,3.3,0,0,0,2-.587,1.845,1.845,0,0,0,.759-1.535,1.877,1.877,0,0,0-.742-1.516,3.872,3.872,0,0,0-4.039,0,1.86,1.86,0,0,0-.759,1.516,1.879,1.879,0,0,0,.777,1.554,3.428,3.428,0,0,0,2,.569" transform="translate(-397.115 -69.55)" fill="#fff"/>
      <path id="Path_381" data-name="Path 381" d="M561.7,75.093h2.037v1.952H561.7Zm.173,3.411h1.692v9.475h-1.692Z" transform="translate(-441.85 -59.07)" fill="#fff"/>
      <path id="Path_382" data-name="Path 382" d="M587.144,90.1a4.218,4.218,0,0,1-1.329.985,4.947,4.947,0,0,1-2.071.417,3.835,3.835,0,0,1-2.624-.834,3.436,3.436,0,0,1-1.036-2.691V83.221h-1.64V81.648h1.64l.345-2.558h1.346v2.558h4.194v1.573h-4.194v4.472a2.376,2.376,0,0,0,.5,1.649,2,2,0,0,0,1.553.55,3.138,3.138,0,0,0,1.416-.322,3.547,3.547,0,0,0,1.036-.758Z" transform="translate(-455.022 -62.215)" fill="#fff"/>
      <path id="Path_383" data-name="Path 383" d="M627.861,99.739a4.18,4.18,0,0,1-2.624-.8,2.827,2.827,0,0,1-1.087-2.331,2.617,2.617,0,0,1,1.692-2.54,8.814,8.814,0,0,1,2.934-.549l2.883-.152a2.124,2.124,0,0,0-.794-1.781A3.116,3.116,0,0,0,629,91.1a3.483,3.483,0,0,0-1.743.4,2.768,2.768,0,0,0-1.208,1.5l-1.657-.455a3.8,3.8,0,0,1,1.882-2.369,5.49,5.49,0,0,1,2.658-.606,4.861,4.861,0,0,1,3.211.967,3.481,3.481,0,0,1,1.191,2.843v3.411q0,.739.017,1.365.017.645.052,1.213h-1.674q-.017-.36-.035-.739v-.815a3.738,3.738,0,0,1-1.519,1.4,5.186,5.186,0,0,1-2.313.53m.38-1.535a3.7,3.7,0,0,0,2.434-.8,3.049,3.049,0,0,0,1-2.426v-.114l-2.589.151a7.443,7.443,0,0,0-2.175.4,1.281,1.281,0,0,0-.414,2.312,2.892,2.892,0,0,0,1.743.474" transform="translate(-490.975 -70.451)" fill="#fff"/>
      <rect id="Rectangle_224" data-name="Rectangle 224" width="1.692" height="12.886" transform="translate(144.86 16.023)" fill="#fff"/>
      <path id="Path_384" data-name="Path 384" d="M725.549,86.961a6.869,6.869,0,0,1-3.832-1.023,4.514,4.514,0,0,1-1.951-3.2l1.761-.379a3.487,3.487,0,0,0,1.45,2.236,4.538,4.538,0,0,0,2.555.663,4.394,4.394,0,0,0,2.641-.682,2.182,2.182,0,0,0,.863-1.8,1.444,1.444,0,0,0-1.053-1.5,15.122,15.122,0,0,0-3.141-.625,9.467,9.467,0,0,1-3.159-.872,2.859,2.859,0,0,1-1.571-2.672,3.291,3.291,0,0,1,1.415-2.8,6.27,6.27,0,0,1,3.711-.986,6.189,6.189,0,0,1,3.642.986,4.753,4.753,0,0,1,1.83,2.937l-1.76.4a3.5,3.5,0,0,0-1.467-2.123,4.394,4.394,0,0,0-2.313-.531,4.735,4.735,0,0,0-2.382.512,1.746,1.746,0,0,0-.9,1.5,1.4,1.4,0,0,0,.984,1.346,10.368,10.368,0,0,0,2.9.663,10.875,10.875,0,0,1,3.349.8,3.023,3.023,0,0,1,1.709,2.956,3.755,3.755,0,0,1-1.381,3.089,6.159,6.159,0,0,1-3.9,1.118" transform="translate(-566.19 -57.673)" fill="#fff"/>
      <path id="Path_385" data-name="Path 385" d="M784.8,99.536a4.619,4.619,0,0,1-3.452-1.4,5.211,5.211,0,0,1-1.312-3.657,5.437,5.437,0,0,1,1.312-3.752,4.926,4.926,0,0,1,6.9-.019,5.412,5.412,0,0,1,1.312,3.733,5.357,5.357,0,0,1-1.312,3.7,4.619,4.619,0,0,1-3.452,1.4m0-1.554a2.809,2.809,0,0,0,2.209-.967,3.87,3.87,0,0,0,.829-2.558,4.009,4.009,0,0,0-.829-2.615,2.95,2.95,0,0,0-4.4,0,3.872,3.872,0,0,0-.846,2.6A3.813,3.813,0,0,0,782.6,97a2.765,2.765,0,0,0,2.192.986" transform="translate(-613.597 -70.248)" fill="#fff"/>
      <rect id="Rectangle_225" data-name="Rectangle 225" width="1.692" height="12.886" transform="translate(178.138 16.023)" fill="#fff"/>
      <path id="Path_386" data-name="Path 386" d="M864.407,91.079v9.476h-1.692v-1.9a3.8,3.8,0,0,1-1.484,1.725,3.847,3.847,0,0,1-2.02.55,3.551,3.551,0,0,1-2.779-1.175,5.151,5.151,0,0,1-1.087-3.487V91.079h1.692v5a3.613,3.613,0,0,0,.759,2.5,2.323,2.323,0,0,0,1.8.739,2.771,2.771,0,0,0,2.227-1.137,5.164,5.164,0,0,0,.9-3.127v-3.98Z" transform="translate(-672.84 -71.645)" fill="#fff"/>
      <path id="Path_387" data-name="Path 387" d="M914.6,90.1a4.218,4.218,0,0,1-1.329.985,4.947,4.947,0,0,1-2.071.417,3.835,3.835,0,0,1-2.624-.834,3.436,3.436,0,0,1-1.036-2.691V83.221H905.9V81.648h1.64l.345-2.558h1.346v2.558h4.194v1.573h-4.194v4.472a2.377,2.377,0,0,0,.5,1.649,2,2,0,0,0,1.553.55,3.138,3.138,0,0,0,1.415-.322,3.547,3.547,0,0,0,1.036-.758Z" transform="translate(-712.611 -62.215)" fill="#fff"/>
      <path id="Path_388" data-name="Path 388" d="M953.551,75.093h2.037v1.952h-2.037Zm.172,3.411h1.692v9.475h-1.692Z" transform="translate(-750.092 -59.07)" fill="#fff"/>
      <path id="Path_389" data-name="Path 389" d="M977.163,99.536a4.619,4.619,0,0,1-3.452-1.4,5.212,5.212,0,0,1-1.312-3.657,5.437,5.437,0,0,1,1.312-3.752,4.926,4.926,0,0,1,6.9-.019,5.412,5.412,0,0,1,1.312,3.733,5.357,5.357,0,0,1-1.312,3.7,4.619,4.619,0,0,1-3.452,1.4m0-1.554a2.809,2.809,0,0,0,2.209-.967,3.87,3.87,0,0,0,.829-2.558,4.009,4.009,0,0,0-.829-2.615,2.95,2.95,0,0,0-4.4,0,3.873,3.873,0,0,0-.846,2.6A3.813,3.813,0,0,0,974.971,97a2.765,2.765,0,0,0,2.192.986" transform="translate(-764.918 -70.248)" fill="#fff"/>
      <path id="Path_390" data-name="Path 390" d="M1032.44,89.3a3.581,3.581,0,0,1,2.779,1.156,5.233,5.233,0,0,1,1.087,3.506v5.192h-1.692v-5a3.692,3.692,0,0,0-.76-2.521,2.325,2.325,0,0,0-1.795-.739,2.773,2.773,0,0,0-2.227,1.137,5.162,5.162,0,0,0-.9,3.127v4h-1.692V89.683h1.692v1.9a3.654,3.654,0,0,1,3.5-2.274" transform="translate(-808.062 -70.249)" fill="#fff"/>
      <path id="Path_391" data-name="Path 391" d="M1084.02,99.537a5.72,5.72,0,0,1-3.193-.777,3.365,3.365,0,0,1-1.484-2.52l1.605-.284a2.23,2.23,0,0,0,1.087,1.63,4.023,4.023,0,0,0,2,.436,3.731,3.731,0,0,0,1.864-.4,1.285,1.285,0,0,0,.708-1.156,1.108,1.108,0,0,0-.9-1.1,15.978,15.978,0,0,0-2.434-.417,6.885,6.885,0,0,1-2.658-.815,2.234,2.234,0,0,1-1.053-1.99,2.448,2.448,0,0,1,1.1-2.085,5.191,5.191,0,0,1,2.934-.758,5.424,5.424,0,0,1,3.072.777,3.543,3.543,0,0,1,1.45,2.274l-1.622.284a2.2,2.2,0,0,0-1.018-1.4,3.628,3.628,0,0,0-1.916-.417,3.46,3.46,0,0,0-1.726.36,1.073,1.073,0,0,0-.639.929,1.051,1.051,0,0,0,.811.986,8.078,8.078,0,0,0,1.985.4,9.059,9.059,0,0,1,2.9.682,2.281,2.281,0,0,1,1.346,2.217,2.764,2.764,0,0,1-1.139,2.312,5.081,5.081,0,0,1-3.09.834" transform="translate(-849.043 -70.249)" fill="#fff"/>
      <path id="Path_392" data-name="Path 392" d="M179.343,139.531a4.937,4.937,0,0,0-2.226-1.433,2.2,2.2,0,0,0-1.8.208c-.779.436-1.578.846-2.348,1.293a1.2,1.2,0,0,1-1.238.032,12.363,12.363,0,0,0-3.791-1.067,2.967,2.967,0,0,0-2.273.505,3.812,3.812,0,0,1-1.793.572,5.244,5.244,0,0,1-3.559-.742,5.469,5.469,0,0,0-2.477-.636,3.518,3.518,0,0,0-1.155.265,2.75,2.75,0,0,0-.564.3,3.856,3.856,0,0,1-3.3.323c-.625-.2-1.249-.4-1.879-.593a6.6,6.6,0,0,0-3.3-.118,4.291,4.291,0,0,0-.915.4c-.424.2-.833.427-1.266.614a1.753,1.753,0,0,1-1.185.067c-.751-.21-1.512-.4-2.248-.641a6.383,6.383,0,0,0-2.079-.333,4.141,4.141,0,0,0-1.284.268,4.774,4.774,0,0,0-1.087.564,3.287,3.287,0,0,1-2.766.374,6.937,6.937,0,0,1-1.39-.514,8.533,8.533,0,0,0-2.135-.731,7.568,7.568,0,0,0-1.387-.111,1.568,1.568,0,0,0-1,.33c-.164.128-.36.227-.519.359a3.552,3.552,0,0,1-2.775.617c-.862-.088-1.728-.148-2.594-.2a.894.894,0,0,0-.566.129,1.763,1.763,0,0,0-.425.64c-.09.221.189.535.488.562,1.248.114,2.5.217,3.748.316a4.294,4.294,0,0,0,2.85-.836,2,2,0,0,1,1.683-.259,10.77,10.77,0,0,1,2.235.8,5.651,5.651,0,0,0,5.242-.3,3.571,3.571,0,0,1,3.361-.182,13.275,13.275,0,0,0,1.887.576,3.623,3.623,0,0,0,1.858-.059,8.956,8.956,0,0,0,1.7-.669,4.22,4.22,0,0,1,3.431-.242c.533.163,1.033.4,1.564.573a5.743,5.743,0,0,0,3.275-.005,11.391,11.391,0,0,0,1.6-.6,1.951,1.951,0,0,1,1.628-.046q.814.349,1.618.713a3.161,3.161,0,0,0,1.377.364c.932-.015,1.871.024,2.794-.062a4.615,4.615,0,0,0,2.232-.758,1.419,1.419,0,0,1,1.079-.214,7.281,7.281,0,0,1,2.9,1,2.093,2.093,0,0,0,1.495.266,6.111,6.111,0,0,0,2.291-.914q.591-.363,1.2-.709a1.37,1.37,0,0,1,1.32-.084,9.1,9.1,0,0,1,.986.506c.637.4,1.06.32,1.413-.3a1.039,1.039,0,0,0,.058-.17" transform="translate(-95.974 -108.548)" fill="#b3e2dc"/>
      <path id="Path_393" data-name="Path 393" d="M133.146,64.774c-.124.137-.05.3-.05.437.05,2.021.149,4.07.274,6.091a1.373,1.373,0,0,1-.1.71.652.652,0,0,1-.672.465.713.713,0,0,1-.622-.546,2.96,2.96,0,0,1-.1-.929c-.174-4.37-.323-8.768-.473-13.138a7.6,7.6,0,0,1,.05-1.5c.074-.41.274-.628.6-.628.3,0,.522.218.6.628a19.883,19.883,0,0,1,.174,2.13c.075,1.475.149,2.977.2,4.452,0,.355.124.437.4.41,1.194-.137,2.413-.191,3.632-.382a2.454,2.454,0,0,0,.6-.164c.6-.246.721-.465.721-1.147.025-1.5,0-3.032.124-4.534a4.325,4.325,0,0,1,.249-1.256.89.89,0,0,1,.846-.71.957.957,0,0,1,.846.737,3.223,3.223,0,0,1,.174.819,14.4,14.4,0,0,1-.547,5.244,4.267,4.267,0,0,0-.2,1.257c.025,2.622,0,5.217-.075,7.811a5.1,5.1,0,0,1-.025.628.727.727,0,0,1-1.443.027,7.276,7.276,0,0,1-.025-.737c.025-2.021.05-4.07.075-6.091a1.5,1.5,0,0,0-.05-.574,18.406,18.406,0,0,1-5.174.492" transform="translate(-103.355 -43.391)" fill="#fff"/>
      <path id="Path_394" data-name="Path 394" d="M175.476,86.713c-.149,2.13-.348,4.261-.622,6.364a48.107,48.107,0,0,1-2.189,10.461,14.7,14.7,0,0,1-1.617,3.223,7.346,7.346,0,0,1-2.189,2.13,2.833,2.833,0,0,1-3.159,0,5.773,5.773,0,0,1-2.562-4.07,9.857,9.857,0,0,1-.224-2.567,2.168,2.168,0,0,1,.224-.9c.174-.246.373-.437.7-.328a.659.659,0,0,1,.473.628c.025.328,0,.655,0,.983a8.06,8.06,0,0,0,.572,3.086,3.375,3.375,0,0,0,1.692,1.939,1.361,1.361,0,0,0,1.368,0,5.364,5.364,0,0,0,1.941-1.748,17.006,17.006,0,0,0,2.338-5.681,61.074,61.074,0,0,0,1.343-7.921c.174-1.5.373-3,.547-4.479a5.224,5.224,0,0,0,0-.628,2.2,2.2,0,0,0-.5.655A18.338,18.338,0,0,1,171.346,91a3.815,3.815,0,0,1-1.667,1.229,1.811,1.811,0,0,1-2.463-1.8,6.577,6.577,0,0,1,.274-2.212,1.9,1.9,0,0,1,.149-.328.54.54,0,0,1,.622-.164.505.505,0,0,1,.323.492,6.634,6.634,0,0,1-.149,1.2,5,5,0,0,0-.05.874c.05.628.4.874.97.683a2.122,2.122,0,0,0,.9-.628,19.316,19.316,0,0,0,2.537-3.387c.274-.437.572-.9.846-1.366a2.894,2.894,0,0,1,.522-.6.733.733,0,0,1,1.244.492,4.1,4.1,0,0,1,.075,1.229" transform="translate(-128.148 -66.696)" fill="#fff"/>
      <path id="Path_395" data-name="Path 395" d="M232.492,62.993a1.523,1.523,0,0,1-.174.574.6.6,0,0,1-.647.328.665.665,0,0,1-.523-.546,1.22,1.22,0,0,1,0-.519c.249-2.458.323-4.944.473-7.429.174-2.868.348-5.708.522-8.576.05-.6.075-1.2.149-1.83.025-.328.074-.656.448-.737.249-.055.448.246.522.737a23.467,23.467,0,0,1-.05,3.742c-.05,1.8-.149,3.605-.224,5.408-.05.956-.1,1.884-.124,2.813a.658.658,0,0,0,.075.355c.224-.41.448-.792.672-1.2a7.637,7.637,0,0,1,2.587-2.868c1.542-.983,2.96-.546,3.831,1.175a4.185,4.185,0,0,1,.348,3,8.86,8.86,0,0,1-2.363,4.589,2.974,2.974,0,0,1-4.3.382c-.3-.246-.6-.464-.9-.71a5.916,5.916,0,0,0-.323,1.311m4.727-2.185a7.622,7.622,0,0,0,1.916-4.042,2.723,2.723,0,0,0-.6-2.185.991.991,0,0,0-1.119-.355,6.11,6.11,0,0,0-.6.3c-1.816,1.256-2.637,3.25-3.458,5.271a.4.4,0,0,0,.124.464,5.438,5.438,0,0,0,1.617,1.284,1.2,1.2,0,0,0,.523.109,2.117,2.117,0,0,0,1.592-.847" transform="translate(-181.806 -34.808)" fill="#fff"/>
      <path id="Path_396" data-name="Path 396" d="M285.289,95.966a11.119,11.119,0,0,1,2.488-3.278,2.9,2.9,0,0,1,.97-.628.661.661,0,0,1,.9.355.813.813,0,0,1-.3.956c-2.09,1.311-3.109,3.441-3.831,5.845-.1.383-.174.792-.274,1.2a.756.756,0,0,1-.7.655c-.323,0-.572-.273-.672-.683a3.461,3.461,0,0,1-.075-.874c-.074-1.994-.2-3.96-.348-5.927a8.7,8.7,0,0,1-.025-1.393c0-.41.2-.683.473-.683a.583.583,0,0,1,.572.519,13.643,13.643,0,0,1,.3,2.021c.05.765.124,1.557.2,2.4a1.3,1.3,0,0,0,.323-.492" transform="translate(-222.936 -71.988)" fill="#fff"/>
      <path id="Path_397" data-name="Path 397" d="M318.735,77.847a.812.812,0,0,1,.647,1.011c-.1.792-.224,1.584-.348,2.376q-.224,1.639-.3,3.359c-.025.109-.025.246-.05.355-.05.546-.348.847-.746.82a.851.851,0,0,1-.7-.9,10.966,10.966,0,0,1,.1-1.8,32.242,32.242,0,0,1,.672-4.4c.1-.546.373-.819.722-.819m1.02-5.79a.657.657,0,0,1,.622.71.65.65,0,1,1-1.294,0,.732.732,0,0,1,.672-.71" transform="translate(-249.541 -56.682)" fill="#fff"/>
      <path id="Path_398" data-name="Path 398" d="M343.049,62.672c.1-.628.2-1.229.274-1.857a1.684,1.684,0,0,1,.124-.382c.149-.437.448-.628.821-.519a.8.8,0,0,1,.448.874c-.1.737-.224,1.475-.348,2.212-.174,1.311-.274,2.649-.323,3.988-.124,2.7-.2,5.408-.075,8.112v.055c.025.6-.274,1.038-.672,1.038-.373,0-.721-.41-.721-.983q-.075-2.581,0-5.162V69.5c-.2.109-.2.3-.274.464a19.484,19.484,0,0,1-2.09,3.769,3.408,3.408,0,0,1-1.517,1.2,1.606,1.606,0,0,1-1.965-.546,4.6,4.6,0,0,1-.945-2.185,6.038,6.038,0,0,1,1.07-5.08,4.482,4.482,0,0,1,3.508-1.857,3.079,3.079,0,0,1,1.542.437c.124.055.249.191.423.164a19.677,19.677,0,0,0,.721-3.2M337.1,71.658a3.364,3.364,0,0,0,.572,1.611c.249.355.4.41.746.191a2.511,2.511,0,0,0,.9-.847,21.045,21.045,0,0,0,2.438-4.834.42.42,0,0,0-.149-.546,2.264,2.264,0,0,0-1.542-.464,3.973,3.973,0,0,0-3.035,4.07,5.983,5.983,0,0,0,.075.819" transform="translate(-264.03 -47.106)" fill="#fff"/>
    </g>
  </g>
</svg>
