<svg xmlns="http://www.w3.org/2000/svg" width="57.966" height="58.127" viewBox="0 0 57.966 58.127">
  <g id="Group_157" data-name="Group 157" transform="translate(-9466.594 -7607.725)">
    <path id="Path_321" data-name="Path 321" d="M33.361,31.2,48.22,53.6,76.629,13.52l-27.4,25.41Z" transform="translate(9446.063 7599.444)" fill="#142662" fill-rule="evenodd"/>
    <path id="Path_322" data-name="Path 322" d="M31.79,29.92,46.353,52.374,76.394,11.411,47.16,37.883Z" transform="translate(9447.033 7600.746)" fill="#00a1ed" fill-rule="evenodd"/>
    <path id="Path_323" data-name="Path 323" d="M31.79,29.92,46.353,52.374,76.394,11.411,47.16,37.883Z" transform="translate(9447.033 7600.746)" fill="none" stroke="#00a1ed" stroke-width="0.567"/>
    <path id="Path_333" data-name="Path 333" d="M9517.632,7645.068s-3.841,5.366-4.052,5.7-2.936,2.833-3.1,3.037-4.51,3.04-4.51,3.04l-4.051,2.309-7.024.247-5.767-.63-4.878-1.926-3.92-3.26s-2.828-3.143-3.008-3.341-1.665-2.824-1.665-2.824l-2.76-8.9-4.339,8.181s1.76,2.485,1.837,2.735,3.64,4.8,3.887,4.989,4.922,4.971,4.922,4.971,5.028,3.019,5.412,3.116,7.741,2.21,7.741,2.21,5.891.274,6.443.253,5.874-1.42,5.874-1.42l4.295-2.038s7.27-5.185,7.034-5.079,3.474-4.256,3.474-4.256l2.094-4.276-.862-2.1Z" fill="#fff"/>
    <path id="Path_324" data-name="Path 324" d="M28.983.108A28.743,28.743,0,0,1,49.413,8.6L43.9,13.383a21.651,21.651,0,1,0,4.356,5.831L53,12.981A28.861,28.861,0,1,1,28.983.108M4.72,37.679a2.141,2.141,0,0,1,.9-.294,1.544,1.544,0,0,1,.592.085,1.384,1.384,0,0,1,.5.3,2.181,2.181,0,0,1,.475.693A1.926,1.926,0,0,1,6.3,41.106a1.737,1.737,0,0,1-1.432.208,1.739,1.739,0,0,1-1.009-1,2.03,2.03,0,0,1-.134-1.5,1.981,1.981,0,0,1,.995-1.134m.357.725a1.419,1.419,0,0,0-.7.737,1.107,1.107,0,0,0,.04.862.943.943,0,0,0,.6.549,1.268,1.268,0,0,0,.965-.19,1.416,1.416,0,0,0,.7-.724,1.1,1.1,0,0,0-.052-.86.955.955,0,0,0-.6-.561,1.255,1.255,0,0,0-.955.189m1.966-.9.53-.293.266.583-.53.293Zm.474,1.04.53-.293.266.583-.53.293ZM5,42.231l.535-.412,3,.235-.963-1.515.5-.384L9.576,42.53l-.461.355L6,42.64l1.172,1.845-.5.383Zm2.115,3,2.735-2.571,1.727,2.229-.462.435L9.858,43.7l-.607.571,1.167,1.506-.462.435L8.788,44.708l-.741.7,1.3,1.679-.462.434Zm2.345,2.8,2.355-2.949.547.529-1.953,2.447,1.354,1.311-.4.5Zm3.373,2.994,2.106-3.21.59.47-2.106,3.21Zm2.321-3.482.382-.583.549.437-.382.583Zm-.588,3.19.647.327a1.036,1.036,0,0,0-.041.639.835.835,0,0,0,.368.45.748.748,0,0,0,.529.152.441.441,0,0,0,.328-.23.4.4,0,0,0,.046-.248.678.678,0,0,0-.147-.292c-.058-.075-.2-.232-.42-.471a2.168,2.168,0,0,1-.524-.794,1.128,1.128,0,0,1,.082-.873.977.977,0,0,1,.394-.4.893.893,0,0,1,.571-.1,1.681,1.681,0,0,1,.672.273,1.6,1.6,0,0,1,.725.85,1.279,1.279,0,0,1-.095.96l-.641-.381a.75.75,0,0,0,.031-.491.763.763,0,0,0-.332-.37.755.755,0,0,0-.49-.149.264.264,0,0,0-.212.149.329.329,0,0,0-.017.267,2.039,2.039,0,0,0,.452.6,3.732,3.732,0,0,1,.543.68,1.2,1.2,0,0,1,.158.569,1.271,1.271,0,0,1-.166.624,1.105,1.105,0,0,1-.441.455.942.942,0,0,1-.621.111,1.92,1.92,0,0,1-.742-.31,1.667,1.667,0,0,1-.745-.882,1.643,1.643,0,0,1,.086-1.113m3.359,3.349,1.119-3.051-.987-.439.228-.621,2.645,1.177-.228.621-.983-.437L18.6,54.382Zm2.237.829,1.181-3.74.688.264-1.182,3.74Zm1.317-4.068.215-.679.64.245-.214.679Zm.173,4.581.839-3.85.708.187-.331,1.517,1.377.364.331-1.517.708.187-.84,3.851-.708-.187.367-1.683-1.377-.364-.367,1.683ZM25.615,52.3l1.319.124a2.35,2.35,0,0,1,.675.139,1.209,1.209,0,0,1,.511.414,1.8,1.8,0,0,1,.292.671,3.227,3.227,0,0,1,.045.944,2.816,2.816,0,0,1-.175.829,1.737,1.737,0,0,1-.437.661,1.217,1.217,0,0,1-.531.267,1.964,1.964,0,0,1-.645.024l-1.358-.127Zm.674.735-.2,2.612.538.051a1.761,1.761,0,0,0,.438,0,.627.627,0,0,0,.3-.137.836.836,0,0,0,.218-.362,2.81,2.81,0,0,0,.129-.716,2.605,2.605,0,0,0-.019-.709.942.942,0,0,0-.175-.4.68.68,0,0,0-.319-.217,3,3,0,0,0-.588-.093Zm6.037,3.29-.782.058-.365-.877-1.439.106-.243.922-.768.057,1.152-4.054.767-.057ZM30.9,54.858l-.588-1.426-.4,1.5ZM32.84,56.3l-.6-3.9,1.075-.2,1.046,2.544.217-2.78,1.077-.2.6,3.9-.663.124-.477-3.073-.225,3.2-.689.129L33.032,53.1l.472,3.074Zm4.126-5.13,1.341-.571a3.976,3.976,0,0,1,.607-.217.867.867,0,0,1,.4,0,.9.9,0,0,1,.62.586,1.009,1.009,0,0,1,.04.528.958.958,0,0,1-.23.47.878.878,0,0,1,.588.136.946.946,0,0,1,.36.488,1.284,1.284,0,0,1,.066.536,1.135,1.135,0,0,1-.157.506,1.073,1.073,0,0,1-.393.369q-.162.091-.808.373l-1.142.486Zm.895.325.3.851.443-.189c.263-.112.425-.186.486-.222a.5.5,0,0,0,.227-.248.457.457,0,0,0,0-.329.425.425,0,0,0-.183-.241.379.379,0,0,0-.3-.021q-.105.03-.582.233Zm.514,1.465.348.991.627-.267a3.239,3.239,0,0,0,.457-.22A.491.491,0,0,0,40,53.209a.538.538,0,0,0-.015-.355.515.515,0,0,0-.173-.252.415.415,0,0,0-.271-.079,2.293,2.293,0,0,0-.62.2Zm1.6-3.084.633-.4.961,1.866a4.582,4.582,0,0,0,.32.561.571.571,0,0,0,.366.221.705.705,0,0,0,.479-.13.762.762,0,0,0,.339-.372.6.6,0,0,0,.009-.4,4.7,4.7,0,0,0-.274-.6l-.983-1.907.634-.4.933,1.811a5.612,5.612,0,0,1,.4.909,1.232,1.232,0,0,1,.034.551,1.25,1.25,0,0,1-.222.51,2.367,2.367,0,0,1-1.281.789,1.023,1.023,0,0,1-.518-.068.991.991,0,0,1-.373-.272,4.824,4.824,0,0,1-.512-.836Zm.391-.658-.293-.567.515-.323.293.568Zm.919-.575-.292-.567.515-.322.292.567Zm3.727,2.65-2.208-3.126,1.207-1.034a2.588,2.588,0,0,1,.721-.482.75.75,0,0,1,.541.016,1.052,1.052,0,0,1,.472.386,1.13,1.13,0,0,1,.224.741,1.307,1.307,0,0,1-.355.768,1.511,1.511,0,0,1,.49,0,3.776,3.776,0,0,1,.684.229l.777.313-.685.587-.893-.331a4.648,4.648,0,0,0-.627-.2.512.512,0,0,0-.264.018,1.2,1.2,0,0,0-.315.213l-.116.1.922,1.305Zm-.7-2.3.424-.363a2.909,2.909,0,0,0,.487-.479.466.466,0,0,0,.067-.27.546.546,0,0,0-.108-.285.437.437,0,0,0-.257-.19.409.409,0,0,0-.3.062q-.078.049-.425.347l-.447.383Zm2.3-1.393a2.532,2.532,0,0,1-.552-.836,2.018,2.018,0,0,1-.124-.643,1.7,1.7,0,0,1,.088-.617,2.212,2.212,0,0,1,.435-.724,1.628,1.628,0,0,1,1.239-.633,1.824,1.824,0,0,1,1.321.67,2.164,2.164,0,0,1,.655,1.419,1.941,1.941,0,0,1-.523,1.381,1.632,1.632,0,0,1-1.239.639,1.79,1.79,0,0,1-1.3-.656m.5-.612a1.308,1.308,0,0,0,.864.484.883.883,0,0,0,.725-.328,1.069,1.069,0,0,0,.27-.806A1.566,1.566,0,0,0,48.5,45.4a1.309,1.309,0,0,0-.854-.489.878.878,0,0,0-.72.34,1.077,1.077,0,0,0-.28.81,1.544,1.544,0,0,0,.479.929m2.711-1.89.356-.678a.687.687,0,0,0,1.015-.258.946.946,0,0,0,.187-.566.5.5,0,0,0-.178-.381.31.31,0,0,0-.22-.073.566.566,0,0,0-.277.134c-.074.056-.228.2-.465.416a1.926,1.926,0,0,1-.766.5.871.871,0,0,1-.782-.172,1.022,1.022,0,0,1-.329-.469,1.176,1.176,0,0,1-.035-.635,2.053,2.053,0,0,1,.31-.712,1.521,1.521,0,0,1,.836-.715.986.986,0,0,1,.859.194l-.4.667a.571.571,0,0,0-.441-.08.737.737,0,0,0-.365.329.951.951,0,0,0-.181.523.3.3,0,0,0,.116.247.254.254,0,0,0,.24.044,1.873,1.873,0,0,0,.585-.44,3.491,3.491,0,0,1,.666-.532.931.931,0,0,1,.528-.12,1.017,1.017,0,0,1,.548.24,1.153,1.153,0,0,1,.37.525,1.24,1.24,0,0,1,.042.692,2.338,2.338,0,0,1-.35.784,1.579,1.579,0,0,1-.867.734,1.26,1.26,0,0,1-1-.2m-.007-4.409L50.191,40l1.684,1.08a4.029,4.029,0,0,0,.533.308.534.534,0,0,0,.417-.012A.8.8,0,0,0,53.179,41a.856.856,0,0,0,.123-.509.565.565,0,0,0-.174-.35,4.075,4.075,0,0,0-.512-.369l-1.72-1.1.366-.693L52.9,39.021a4.871,4.871,0,0,1,.762.563,1.13,1.13,0,0,1,.282.457,1.309,1.309,0,0,1,.041.563A2.724,2.724,0,0,1,53.234,42a1.067,1.067,0,0,1-.479.228.9.9,0,0,1-.447-.029,4.18,4.18,0,0,1-.825-.438Z" transform="translate(9466.594 7607.724)" fill="#142662" fill-rule="evenodd"/>
    <path id="Path_325" data-name="Path 325" d="M28.983.108A28.743,28.743,0,0,1,49.413,8.6L43.9,13.383a21.651,21.651,0,1,0,4.356,5.831L53,12.981A28.861,28.861,0,1,1,28.983.108ZM4.72,37.679a2.141,2.141,0,0,1,.9-.294,1.544,1.544,0,0,1,.592.085,1.384,1.384,0,0,1,.5.3,2.181,2.181,0,0,1,.475.693A1.926,1.926,0,0,1,6.3,41.106a1.737,1.737,0,0,1-1.432.208,1.739,1.739,0,0,1-1.009-1,2.03,2.03,0,0,1-.134-1.5A1.981,1.981,0,0,1,4.72,37.679Zm.357.725a1.419,1.419,0,0,0-.7.737,1.107,1.107,0,0,0,.04.862.943.943,0,0,0,.6.549,1.268,1.268,0,0,0,.965-.19,1.416,1.416,0,0,0,.7-.724,1.1,1.1,0,0,0-.052-.86.955.955,0,0,0-.6-.561A1.255,1.255,0,0,0,5.077,38.4Zm1.966-.9.53-.293.266.583-.53.293Zm.474,1.04.53-.293.266.583-.53.293ZM5,42.231l.535-.412,3,.235-.963-1.515.5-.384L9.576,42.53l-.461.355L6,42.64l1.172,1.845-.5.383Zm2.115,3,2.735-2.571,1.727,2.229-.462.435L9.858,43.7l-.607.571,1.167,1.506-.462.435L8.788,44.708l-.741.7,1.3,1.679-.462.434Zm2.345,2.8,2.355-2.949.547.529-1.953,2.447,1.354,1.311-.4.5Zm3.373,2.994,2.106-3.21.59.47-2.106,3.21Zm2.321-3.482.382-.583.549.437-.382.583Zm-.588,3.19.647.327a1.036,1.036,0,0,0-.041.639.835.835,0,0,0,.368.45.748.748,0,0,0,.529.152.441.441,0,0,0,.328-.23.4.4,0,0,0,.046-.248.678.678,0,0,0-.147-.292c-.058-.075-.2-.232-.42-.471a2.168,2.168,0,0,1-.524-.794,1.128,1.128,0,0,1,.082-.873.977.977,0,0,1,.394-.4.893.893,0,0,1,.571-.1,1.681,1.681,0,0,1,.672.273,1.6,1.6,0,0,1,.725.85,1.279,1.279,0,0,1-.095.96l-.641-.381a.75.75,0,0,0,.031-.491.763.763,0,0,0-.332-.37.755.755,0,0,0-.49-.149.264.264,0,0,0-.212.149.329.329,0,0,0-.017.267,2.039,2.039,0,0,0,.452.6,3.732,3.732,0,0,1,.543.68,1.2,1.2,0,0,1,.158.569,1.271,1.271,0,0,1-.166.624,1.105,1.105,0,0,1-.441.455.942.942,0,0,1-.621.111,1.92,1.92,0,0,1-.742-.31,1.667,1.667,0,0,1-.745-.882A1.643,1.643,0,0,1,14.564,50.733Zm3.359,3.349,1.119-3.051-.987-.439.228-.621,2.645,1.177-.228.621-.983-.437L18.6,54.382Zm2.237.829,1.181-3.74.688.264-1.182,3.74Zm1.317-4.068.215-.679.64.245-.214.679Zm.173,4.581.839-3.85.708.187-.331,1.517,1.377.364.331-1.517.708.187-.84,3.851-.708-.187.367-1.683-1.377-.364-.367,1.683ZM25.615,52.3l1.319.124a2.35,2.35,0,0,1,.675.139,1.209,1.209,0,0,1,.511.414,1.8,1.8,0,0,1,.292.671,3.227,3.227,0,0,1,.045.944,2.816,2.816,0,0,1-.175.829,1.737,1.737,0,0,1-.437.661,1.217,1.217,0,0,1-.531.267,1.964,1.964,0,0,1-.645.024l-1.358-.127Zm.674.735-.2,2.612.538.051a1.761,1.761,0,0,0,.438,0,.627.627,0,0,0,.3-.137.836.836,0,0,0,.218-.362,2.81,2.81,0,0,0,.129-.716,2.605,2.605,0,0,0-.019-.709.942.942,0,0,0-.175-.4.68.68,0,0,0-.319-.217,3,3,0,0,0-.588-.093Zm6.037,3.29-.782.058-.365-.877-1.439.106-.243.922-.768.057,1.152-4.054.767-.057.981,2.248ZM30.9,54.858l-.588-1.426-.4,1.5ZM32.84,56.3l-.6-3.9,1.075-.2,1.046,2.544.217-2.78,1.077-.2.6,3.9-.663.124-.477-3.073-.225,3.2-.689.129L33.032,53.1l.472,3.074Zm4.126-5.13,1.341-.571a3.976,3.976,0,0,1,.607-.217.867.867,0,0,1,.4,0,.9.9,0,0,1,.62.586,1.009,1.009,0,0,1,.04.528.958.958,0,0,1-.23.47.878.878,0,0,1,.588.136.946.946,0,0,1,.36.488,1.284,1.284,0,0,1,.066.536,1.135,1.135,0,0,1-.157.506,1.073,1.073,0,0,1-.393.369q-.162.091-.808.373l-1.142.486Zm.895.325.3.851.443-.189c.263-.112.425-.186.486-.222a.5.5,0,0,0,.227-.248.457.457,0,0,0,0-.329.425.425,0,0,0-.183-.241.379.379,0,0,0-.3-.021q-.105.03-.582.233Zm.514,1.465.348.991.627-.267a3.239,3.239,0,0,0,.457-.22A.491.491,0,0,0,40,53.209a.538.538,0,0,0-.015-.355.515.515,0,0,0-.173-.252.415.415,0,0,0-.271-.079,2.293,2.293,0,0,0-.62.2Zm1.6-3.084.633-.4.961,1.866a4.582,4.582,0,0,0,.32.561.571.571,0,0,0,.366.221.705.705,0,0,0,.479-.13.762.762,0,0,0,.339-.372.6.6,0,0,0,.009-.4,4.7,4.7,0,0,0-.274-.6l-.983-1.907.634-.4.933,1.811a5.612,5.612,0,0,1,.4.909,1.232,1.232,0,0,1,.034.551,1.25,1.25,0,0,1-.222.51,2.367,2.367,0,0,1-1.281.789,1.023,1.023,0,0,1-.518-.068.991.991,0,0,1-.373-.272,4.824,4.824,0,0,1-.512-.836Zm.391-.658-.293-.567.515-.323.293.568Zm.919-.575-.292-.567.515-.322.292.567Zm3.727,2.65-2.208-3.126,1.207-1.034a2.588,2.588,0,0,1,.721-.482.75.75,0,0,1,.541.016,1.052,1.052,0,0,1,.472.386,1.13,1.13,0,0,1,.224.741,1.307,1.307,0,0,1-.355.768,1.511,1.511,0,0,1,.49,0,3.776,3.776,0,0,1,.684.229l.777.313-.685.587-.893-.331a4.648,4.648,0,0,0-.627-.2.512.512,0,0,0-.264.018,1.2,1.2,0,0,0-.315.213l-.116.1.922,1.305Zm-.7-2.3.424-.363a2.909,2.909,0,0,0,.487-.479.466.466,0,0,0,.067-.27.546.546,0,0,0-.108-.285.437.437,0,0,0-.257-.19.409.409,0,0,0-.3.062q-.078.049-.425.347l-.447.383Zm2.3-1.393a2.532,2.532,0,0,1-.552-.836,2.018,2.018,0,0,1-.124-.643,1.7,1.7,0,0,1,.088-.617,2.212,2.212,0,0,1,.435-.724,1.628,1.628,0,0,1,1.239-.633,1.824,1.824,0,0,1,1.321.67,2.164,2.164,0,0,1,.655,1.419,1.941,1.941,0,0,1-.523,1.381,1.632,1.632,0,0,1-1.239.639A1.79,1.79,0,0,1,46.619,47.6Zm.5-.612a1.308,1.308,0,0,0,.864.484.883.883,0,0,0,.725-.328,1.069,1.069,0,0,0,.27-.806A1.566,1.566,0,0,0,48.5,45.4a1.309,1.309,0,0,0-.854-.489.878.878,0,0,0-.72.34,1.077,1.077,0,0,0-.28.81A1.544,1.544,0,0,0,47.121,46.992Zm2.711-1.89.356-.678a.687.687,0,0,0,1.015-.258.946.946,0,0,0,.187-.566.5.5,0,0,0-.178-.381.31.31,0,0,0-.22-.073.566.566,0,0,0-.277.134c-.074.056-.228.2-.465.416a1.926,1.926,0,0,1-.766.5.871.871,0,0,1-.782-.172,1.022,1.022,0,0,1-.329-.469,1.176,1.176,0,0,1-.035-.635,2.053,2.053,0,0,1,.31-.712,1.521,1.521,0,0,1,.836-.715.986.986,0,0,1,.859.194l-.4.667a.571.571,0,0,0-.441-.08.737.737,0,0,0-.365.329.951.951,0,0,0-.181.523.3.3,0,0,0,.116.247.254.254,0,0,0,.24.044,1.873,1.873,0,0,0,.585-.44,3.491,3.491,0,0,1,.666-.532.931.931,0,0,1,.528-.12,1.017,1.017,0,0,1,.548.24,1.153,1.153,0,0,1,.37.525,1.24,1.24,0,0,1,.042.692,2.338,2.338,0,0,1-.35.784,1.579,1.579,0,0,1-.867.734A1.26,1.26,0,0,1,49.831,45.1Zm-.007-4.409L50.191,40l1.684,1.08a4.029,4.029,0,0,0,.533.308.534.534,0,0,0,.417-.012A.8.8,0,0,0,53.179,41a.856.856,0,0,0,.123-.509.565.565,0,0,0-.174-.35,4.075,4.075,0,0,0-.512-.369l-1.72-1.1.366-.693L52.9,39.021a4.871,4.871,0,0,1,.762.563,1.13,1.13,0,0,1,.282.457,1.309,1.309,0,0,1,.041.563,2.147,2.147,0,0,1-.252.717l-.093.168-.4.507a1.067,1.067,0,0,1-.479.228.9.9,0,0,1-.447-.029,4.18,4.18,0,0,1-.825-.438Z" transform="translate(9466.594 7607.724)" fill="none" stroke="#1a1818" stroke-width="0.216"/>
    <path id="Path_326" data-name="Path 326" d="M55,6.968l-.359.861a3.583,3.583,0,0,0-2.816.484s-.323.5.61.448c0,0,2.26-.825,3-.225a1.255,1.255,0,0,1,.2,1.56,4.136,4.136,0,0,1-4.412.987l.394-.852A3.756,3.756,0,0,0,54.5,9.964s.612-.645-.045-.78-2.332.789-3.228.341a1.11,1.11,0,0,1-.045-1.812A4.741,4.741,0,0,1,55,6.968" transform="translate(9435.343 7603.562)" fill="#fff" fill-rule="evenodd"/>
    <path id="Path_327" data-name="Path 327" d="M58.149,18.347l.968-.368.26.61L58.454,19Z" transform="translate(9430.76 7596.691)" fill="#fff" fill-rule="evenodd"/>
    <path id="Path_328" data-name="Path 328" d="M45.637,13.5l-.9.511,1.466,2.748.892-.543Z" transform="translate(9439.038 7599.456)" fill="#fff" fill-rule="evenodd"/>
    <path id="Path_329" data-name="Path 329" d="M44.706,11.784l-.906.529-.339-.7.883-.475Z" transform="translate(9439.827 7600.914)" fill="#fff" fill-rule="evenodd"/>
    <path id="Path_330" data-name="Path 330" d="M67.824,4.537l-1.013.045.152,4.125,1.058-.018-.054-1.327.924-.744,1.946,1.847,1.408-.081-2.574-2.34,2.063-1.7-1.471.072L67.9,6.385Z" transform="translate(9425.412 7605.111)" fill="#fff" fill-rule="evenodd"/>
    <path id="Path_331" data-name="Path 331" d="M84.219,4.8,83.2,4.55l-.484,2.457s-.448,1.4,1.812,2.081,2.905-.879,2.905-.879l.556-2.672-1.022-.269-.448,2.17s.018,1.309-1.668.843c0,0-1.255-.143-1.076-1.255s.448-2.224.448-2.224" transform="translate(9415.616 7604.981)" fill="#fff" fill-rule="evenodd"/>
    <path id="Path_332" data-name="Path 332" d="M99.331,8.91l-1.794,3.623.915.52.645-1.291,1.56.771.215,1.722,1.076.466-.161-1.668a1.4,1.4,0,0,0,1.363-1.847s.3-.484-3.82-2.3m.52,1.219-.359.861,1.758.9s.592.251.879-.179-.43-.717-.43-.717Z" transform="translate(9406.441 7602.29)" fill="#fff" fill-rule="evenodd"/>
  </g>
</svg>
