<svg xmlns="http://www.w3.org/2000/svg" width="121.505" height="96.573" viewBox="0 0 121.505 96.573">
  <g id="Group_160" data-name="Group 160" transform="translate(0.5 0.5)">
    <path id="Path_335" data-name="Path 335" d="M-2184.268-40.239V-86.344l3.653,1.773,3.66-1.1,5.463-7.132,7.5-16.2.4,68.761Zm24.262,0-.4-59.5,2.932,7.034,4.7,1.453,6.664-1.312,3.651-1.123v53.449Z" transform="translate(2226.692 115.92)" fill="#edc8a3"/>
    <path id="Path_336" data-name="Path 336" d="M-2167.658-41.713l-.4-56,2.951,4.908,4.033-.239,5.7,1.014,5.021-5.388v55.7Zm-16.61,0V-92.025l1.975-12.546,6.344-4.429,4.459,1.662.4,65.625Z" transform="translate(2270.86 117.394)" fill="#d3c9fb" stroke="rgba(0,0,0,0)" stroke-width="1"/>
    <g id="Group_159" data-name="Group 159" transform="translate(0 0)">
      <g id="Group_158" data-name="Group 158">
        <path id="Path_337" data-name="Path 337" d="M-2162.349-52.656l0-50.676c-.045-.749,0-5.668,0-5.668l4.55,4.253,11.493-2.224,2.309,3.388v5.316l.4,45.612Zm-21.918,0v-50.928h18.323l.4,50.928Z" transform="translate(2184.268 128.912)" fill="#bce1dc"/>
        <path id="Path_338" data-name="Path 338" d="M-2184.268-83.566V-109h3.771v21.918h14.552v3.517Z" transform="translate(2184.268 109)" fill="#231f20" stroke="rgba(0,0,0,0)" stroke-width="1"/>
        <path id="Path_339" data-name="Path 339" d="M-2176.869-88.838h0a8.344,8.344,0,0,1-5.213-1.586,5.687,5.687,0,0,1-2.185-4.67v-.016c.183-2.62,1.329-4.334,3.4-5.094a17.44,17.44,0,0,1,5.773-1.081l5.433-.286a3.9,3.9,0,0,0-1.464-3.165,5.9,5.9,0,0,0-3.53-.929,6.631,6.631,0,0,0-3.315.754,5.253,5.253,0,0,0-2.275,2.828l-.057.142-3.55-.974.057-.172a7.6,7.6,0,0,1,3.752-4.712,10.912,10.912,0,0,1,5.254-1.2,9.67,9.67,0,0,1,6.357,1.921,6.964,6.964,0,0,1,2.38,5.665v6.643c0,.959.012,1.851.034,2.652.023.831.055,1.624.1,2.356l.012.182h-3.606l-.008-.164q-.034-.7-.066-1.439V-92.2a7.589,7.589,0,0,1-2.708,2.31,10.321,10.321,0,0,1-4.58,1.053Zm2.4-9.189a14.363,14.363,0,0,0-4.186.765,2.4,2.4,0,0,0-1.8,2.21,2.4,2.4,0,0,0,1.041,1.994,5.5,5.5,0,0,0,3.292.887,7.073,7.073,0,0,0,4.628-1.511,5.808,5.808,0,0,0,1.887-4.594v-.036Z" transform="translate(2205.617 115.01)" fill="#231f20" stroke="rgba(0,0,0,0)" stroke-width="1"/>
        <path id="Path_340" data-name="Path 340" d="M-2178.832-82.827h0a5.468,5.468,0,0,1-3.087-.878,7.419,7.419,0,0,1-2.269-2.378l-.078-.128,2.61-2.128.106.147a6.659,6.659,0,0,0,1.405,1.511,2.261,2.261,0,0,0,1.313.411,1.8,1.8,0,0,0,1.449-.6,5.129,5.129,0,0,0,1.012-1.685l.813-1.857L-2183.564-109h3.836l5.969,14.192,5.936-14.192h3.837l-9.379,21.788a8.239,8.239,0,0,1-2.093,3.16,5.04,5.04,0,0,1-3.371,1.225Z" transform="translate(2226.99 115.748)" fill="#231f20" stroke="rgba(0,0,0,0)" stroke-width="1"/>
        <path id="Path_341" data-name="Path 341" d="M-2174.651-88.731h0c-3.128-.025-5.533-.938-7.15-2.713a10.516,10.516,0,0,1-2.464-7.385,10.749,10.749,0,0,1,2.5-7.459,9.013,9.013,0,0,1,6.847-2.712,8.515,8.515,0,0,1,6.547,2.6c1.569,1.722,2.375,4.269,2.4,7.569v1.206h-14.638a6.214,6.214,0,0,0,1.681,4.022,5.693,5.693,0,0,0,4.249,1.5,6.72,6.72,0,0,0,3.374-.861,9.953,9.953,0,0,0,2.512-2.105l.122-.142,2.357,2.423-.1.12a12.23,12.23,0,0,1-3.442,2.806,10.143,10.143,0,0,1-4.786,1.128Zm-4.188-15.616a5.579,5.579,0,0,0-1.734,3.539h10.971a5.869,5.869,0,0,0-1.6-3.615,5.267,5.267,0,0,0-3.681-1.245A5.706,5.706,0,0,0-2178.839-104.347Z" transform="translate(2250.27 115.01)" fill="#231f20" stroke="rgba(0,0,0,0)" stroke-width="1"/>
        <path id="Path_342" data-name="Path 342" d="M-2184.268-90.023v-18.793h3.637v3.249a5.791,5.791,0,0,1,1.878-2.257,8.28,8.28,0,0,1,4.7-1.176h2.56v3.664h-3.129a5.421,5.421,0,0,0-4.6,1.888,9.493,9.493,0,0,0-1.411,5.762v7.664Z" transform="translate(2271.366 115.564)" fill="#231f20" stroke="rgba(0,0,0,0)" stroke-width="1"/>
        <path id="Path_343" data-name="Path 343" d="M-2181.277-90.271a6.744,6.744,0,0,1-2.968-5.028l-.022-.165,3.452-.612.034.164a4.2,4.2,0,0,0,2.031,3.056,7.67,7.67,0,0,0,3.814.829,7.142,7.142,0,0,0,3.547-.752,2.322,2.322,0,0,0,1.292-2.1,1.983,1.983,0,0,0-1.626-1.976,30.915,30.915,0,0,0-4.707-.806,13.652,13.652,0,0,1-5.245-1.609,4.532,4.532,0,0,1-2.134-4.018,4.953,4.953,0,0,1,2.224-4.2,10.331,10.331,0,0,1,5.811-1.507,10.782,10.782,0,0,1,6.079,1.542,7.1,7.1,0,0,1,2.9,4.535l.035.173-3.487.612-.042-.15a4.127,4.127,0,0,0-1.9-2.627,6.935,6.935,0,0,0-3.644-.79,6.614,6.614,0,0,0-3.277.678,1.918,1.918,0,0,0-1.158,1.659,1.875,1.875,0,0,0,1.464,1.757,15.578,15.578,0,0,0,3.826.766,17.877,17.877,0,0,1,5.7,1.343c1.715.739,2.632,2.242,2.725,4.467a5.569,5.569,0,0,1-2.287,4.646,10.1,10.1,0,0,1-6.117,1.658h-.17A11.251,11.251,0,0,1-2181.277-90.271Z" transform="translate(2287.066 115.01)" fill="#231f20" stroke="rgba(0,0,0,0)" stroke-width="1"/>
        <path id="Path_344" data-name="Path 344" d="M-2090.32-97.54a2.324,2.324,0,0,1-1.4-.4,1.454,1.454,0,0,1-.566-1.2,1.689,1.689,0,0,1,.254-.925,1.989,1.989,0,0,1,.614-.612.984.984,0,0,1-.278-.4,1.2,1.2,0,0,1-.081-.417,1.1,1.1,0,0,1,.2-.638,1.545,1.545,0,0,1,.532-.507,2.486,2.486,0,0,1-.614-.782,2.3,2.3,0,0,1-.219-1.015,2.249,2.249,0,0,1,.844-1.8,3.307,3.307,0,0,1,2.13-.677,3.769,3.769,0,0,1,1.285.208,2.86,2.86,0,0,1,.973.585,1.315,1.315,0,0,1,.369-.677,1,1,0,0,1,.683-.247h.569v1.055h-.509a1.453,1.453,0,0,0-.452.065.407.407,0,0,0-.266.287,2.082,2.082,0,0,1,.243.56,2.427,2.427,0,0,1,.081.638,2.228,2.228,0,0,1-.846,1.8,3.336,3.336,0,0,1-2.13.677,4.261,4.261,0,0,1-.752-.065,3.06,3.06,0,0,1-.659-.2.685.685,0,0,0-.267.235.468.468,0,0,0-.092.273.5.5,0,0,0,.163.366.7.7,0,0,0,.5.182h2.419a2.391,2.391,0,0,1,1.541.441,1.67,1.67,0,0,1,.567,1.342,1.724,1.724,0,0,1-.567,1.368,2.3,2.3,0,0,1-1.551.481Zm-.718-2.37a.9.9,0,0,0-.149.495.779.779,0,0,0,.254.6,1.228,1.228,0,0,0,.845.261h2.442a1.266,1.266,0,0,0,.775-.208.716.716,0,0,0,.279-.612.73.73,0,0,0-.267-.612,1.19,1.19,0,0,0-.751-.208h-2.258c-.1,0-.224,0-.371-.013a3.762,3.762,0,0,1-.451-.078A1.425,1.425,0,0,0-2091.038-99.91Zm.776-5.587a1.291,1.291,0,0,0-.509,1.042,1.3,1.3,0,0,0,.521,1.068,2.258,2.258,0,0,0,1.343.39,2.167,2.167,0,0,0,1.343-.4,1.278,1.278,0,0,0,.51-1.054,1.3,1.3,0,0,0-.5-1.042,2.254,2.254,0,0,0-1.354-.39A2.253,2.253,0,0,0-2090.262-105.5Zm21.068,5.079a2.322,2.322,0,0,1-1-1.732l1.077-.195a1.533,1.533,0,0,0,.73,1.12,2.638,2.638,0,0,0,1.343.3,2.454,2.454,0,0,0,1.25-.273.887.887,0,0,0,.474-.794.756.756,0,0,0-.6-.756,10.376,10.376,0,0,0-1.632-.286,4.544,4.544,0,0,1-1.783-.56,1.544,1.544,0,0,1-.706-1.368,1.691,1.691,0,0,1,.74-1.432,3.414,3.414,0,0,1,1.968-.521,3.581,3.581,0,0,1,2.061.534,2.449,2.449,0,0,1,.973,1.563l-1.088.2a1.511,1.511,0,0,0-.683-.964,2.4,2.4,0,0,0-1.286-.287,2.274,2.274,0,0,0-1.158.248.739.739,0,0,0-.428.638.719.719,0,0,0,.544.677,5.269,5.269,0,0,0,1.331.273,5.957,5.957,0,0,1,1.945.469,1.572,1.572,0,0,1,.9,1.524,1.917,1.917,0,0,1-.764,1.589,3.352,3.352,0,0,1-2.073.573h-.061A3.723,3.723,0,0,1-2069.194-100.418Zm-8.762-.4a3.69,3.69,0,0,1-.834-2.565,3.775,3.775,0,0,1,.845-2.591,3,3,0,0,1,2.315-.938,2.827,2.827,0,0,1,2.211.9,3.885,3.885,0,0,1,.81,2.63v.364h-5.047a2.3,2.3,0,0,0,.6,1.524,1.981,1.981,0,0,0,1.5.547,2.308,2.308,0,0,0,1.191-.313,3.51,3.51,0,0,0,.881-.755l.729.768a4.156,4.156,0,0,1-1.169.976,3.353,3.353,0,0,1-1.62.39A3.1,3.1,0,0,1-2077.956-100.822Zm.936-4.558a2.08,2.08,0,0,0-.625,1.354h3.912a2.18,2.18,0,0,0-.578-1.38,1.835,1.835,0,0,0-1.309-.456A1.985,1.985,0,0,0-2077.02-105.379Zm-23.081,4.532a3.633,3.633,0,0,1-.88-2.513,3.793,3.793,0,0,1,.88-2.579,3.043,3.043,0,0,1,2.315-.976,3.062,3.062,0,0,1,2.315.964,3.779,3.779,0,0,1,.88,2.566,3.739,3.739,0,0,1-.88,2.54,3.057,3.057,0,0,1-2.315.963A3.057,3.057,0,0,1-2100.1-100.847Zm.844-4.324a2.709,2.709,0,0,0-.567,1.784,2.667,2.667,0,0,0,.567,1.758,1.837,1.837,0,0,0,1.47.677,1.866,1.866,0,0,0,1.481-.664,2.7,2.7,0,0,0,.556-1.759,2.8,2.8,0,0,0-.556-1.8,1.845,1.845,0,0,0-1.481-.677A1.835,1.835,0,0,0-2099.257-105.171Zm-13.948,4.324a3.641,3.641,0,0,1-.879-2.513,3.8,3.8,0,0,1,.879-2.579,3.045,3.045,0,0,1,2.315-.976,3.066,3.066,0,0,1,2.316.964,3.782,3.782,0,0,1,.879,2.566,3.742,3.742,0,0,1-.879,2.54,3.06,3.06,0,0,1-2.316.963A3.059,3.059,0,0,1-2113.2-100.847Zm.845-4.324a2.7,2.7,0,0,0-.567,1.784,2.662,2.662,0,0,0,.567,1.758,1.836,1.836,0,0,0,1.47.677,1.867,1.867,0,0,0,1.482-.664,2.715,2.715,0,0,0,.555-1.759,2.81,2.81,0,0,0-.555-1.8,1.846,1.846,0,0,0-1.482-.677A1.833,1.833,0,0,0-2112.36-105.171Zm-27.864,4.323a3.677,3.677,0,0,1-.879-2.526,3.77,3.77,0,0,1,.879-2.566,3.045,3.045,0,0,1,2.316-.976,3.257,3.257,0,0,1,1.9.573,2.856,2.856,0,0,1,1.088,1.563l-1.11.338a2.05,2.05,0,0,0-.707-1.029,1.832,1.832,0,0,0-1.158-.378,1.846,1.846,0,0,0-1.481.677,2.7,2.7,0,0,0-.568,1.784,2.709,2.709,0,0,0,.555,1.758,1.885,1.885,0,0,0,1.494.677,1.8,1.8,0,0,0,1.215-.417,2.206,2.206,0,0,0,.7-1.146l1.122.287a3.01,3.01,0,0,1-1.065,1.718,3.222,3.222,0,0,1-1.979.625A3.058,3.058,0,0,1-2140.223-100.848Zm-8.67.026a3.7,3.7,0,0,1-.833-2.565,3.77,3.77,0,0,1,.845-2.591,3,3,0,0,1,2.316-.938,2.825,2.825,0,0,1,2.21.9,3.879,3.879,0,0,1,.81,2.63v.364h-5.046a2.31,2.31,0,0,0,.6,1.524,1.985,1.985,0,0,0,1.505.547,2.309,2.309,0,0,0,1.192-.313,3.479,3.479,0,0,0,.88-.755l.729.768a4.152,4.152,0,0,1-1.169.976,3.354,3.354,0,0,1-1.621.39A3.1,3.1,0,0,1-2148.893-100.822Zm.937-4.558a2.083,2.083,0,0,0-.625,1.354h3.912a2.184,2.184,0,0,0-.578-1.38,1.837,1.837,0,0,0-1.309-.456A1.984,1.984,0,0,0-2147.956-105.379Zm65.253,5.235v-6.511h1.134v6.511Zm-22.2,0V-109h1.135v8.855Zm-13.045,0v-3.439a2.584,2.584,0,0,0-.51-1.732,1.539,1.539,0,0,0-1.2-.507,1.843,1.843,0,0,0-1.493.781,3.614,3.614,0,0,0-.6,2.149v2.748h-1.133v-6.511h1.133v1.3a2.692,2.692,0,0,1,1-1.2,2.61,2.61,0,0,1,1.355-.364,2.373,2.373,0,0,1,1.864.794,3.653,3.653,0,0,1,.73,2.409v3.568Zm-9.2,0v-3.439a2.492,2.492,0,0,0-.532-1.732,1.646,1.646,0,0,0-1.238-.507,1.843,1.843,0,0,0-1.493.781,3.6,3.6,0,0,0-.6,2.149v2.748h-1.135V-109h1.135v3.646a2.677,2.677,0,0,1,1-1.2,2.668,2.668,0,0,1,1.366-.364,2.445,2.445,0,0,1,1.886.794,3.578,3.578,0,0,1,.752,2.409v3.568Zm-29.355,0v-7.735h-3.368V-109h7.917v1.12h-3.368v7.735Zm-11.252,0-1.922-3.477h-2.5v3.477h-1.181V-109h3.971a2.959,2.959,0,0,1,2.118.73,2.674,2.674,0,0,1,.741,1.953,2.719,2.719,0,0,1-.486,1.627,2.58,2.58,0,0,1-1.4.925l2.014,3.62Zm-4.422-4.6h2.825a1.619,1.619,0,0,0,1.216-.481,1.568,1.568,0,0,0,.4-1.094,1.572,1.572,0,0,0-.4-1.12,1.63,1.63,0,0,0-1.216-.444h-2.825Zm-5.868,4.6V-104.4h-5.035v4.258h-1.181V-109h1.181v3.476h5.035V-109h1.192v8.854Zm95.233-7.513V-109h1.366v1.341Z" transform="translate(2184.268 193.113)" fill="#231f20" stroke="rgba(0,0,0,0)" stroke-width="1"/>
      </g>
    </g>
  </g>
</svg>
