<svg xmlns="http://www.w3.org/2000/svg" xmlns:xlink="http://www.w3.org/1999/xlink" width="152" height="67" viewBox="0 0 152 67">
  <defs>
    <clipPath id="clip-path">
      <rect id="Rectangle_22" data-name="Rectangle 22" width="152" height="67" transform="translate(95 69)" fill="#fff"/>
    </clipPath>
  </defs>
  <g id="Mask_Group_2" data-name="Mask Group 2" transform="translate(-95 -69)" clip-path="url(#clip-path)">
    <g id="Group_3" data-name="Group 3" transform="translate(97.3 70)">
      <path id="Path_40" data-name="Path 40" d="M-2184.268-25.143V-81.371l4.455,2.163,4.464-1.34,6.662-8.7,9.151-19.754.491,83.857Zm29.589,0-.492-72.562,3.575,8.578,5.731,1.772,8.128-1.6,4.453-1.369v65.183Z" transform="translate(2236.007 117.439)" fill="#edc8a3"/>
      <path id="Path_41" data-name="Path 41" d="M-2164.011-26.941l-.492-68.288,3.6,5.986,4.918-.292,6.951,1.237,6.124-6.571v67.929Zm-20.256,0V-88.3l2.408-15.3,7.736-5.4,5.438,2.027.492,80.033Z" transform="translate(2289.871 119.237)" fill="#d3c9fb" stroke="rgba(0,0,0,0)" stroke-width="1"/>
      <g id="Group_2" data-name="Group 2" transform="translate(0 0)">
        <g id="Group_4" data-name="Group 4">
          <path id="Path_39" data-name="Path 39" d="M-2157.538-40.286l.006-61.8c-.055-.913-.006-6.912-.006-6.912l5.548,5.187,14.017-2.713,2.816,4.131v6.483l.491,55.626Zm-26.73,0v-62.109h22.346l.492,62.108Z" transform="translate(2184.268 133.284)" fill="#bce1dc"/>
          <path id="Path_38" data-name="Path 38" d="M-2184.268-77.982V-109h4.6V-82.27h17.747v4.289Z" transform="translate(2184.268 109)" fill="#231f20" stroke="rgba(0,0,0,0)" stroke-width="1"/>
          <path id="Path_37" data-name="Path 37" d="M-2175.245-84.411h0a10.174,10.174,0,0,1-6.357-1.934,6.936,6.936,0,0,1-2.664-5.7v-.02c.223-3.2,1.62-5.285,4.152-6.212a21.267,21.267,0,0,1,7.04-1.318l6.626-.348a4.756,4.756,0,0,0-1.785-3.86,7.2,7.2,0,0,0-4.3-1.133,8.089,8.089,0,0,0-4.044.92,6.405,6.405,0,0,0-2.773,3.449l-.07.174-4.329-1.188.07-.21a9.265,9.265,0,0,1,4.576-5.747,13.305,13.305,0,0,1,6.407-1.46c3.281,0,5.891.788,7.753,2.343,1.9,1.533,2.876,3.858,2.9,6.909v8.1c0,1.169.015,2.258.041,3.235.028,1.014.068,1.98.123,2.873l.015.222h-4.4l-.01-.2q-.041-.853-.082-1.755v-1.245a9.252,9.252,0,0,1-3.3,2.817,12.587,12.587,0,0,1-5.585,1.284Zm2.922-11.206a17.515,17.515,0,0,0-5.1.933,2.924,2.924,0,0,0-2.2,2.7,2.931,2.931,0,0,0,1.27,2.432,6.7,6.7,0,0,0,4.014,1.082,8.625,8.625,0,0,0,5.645-1.842,7.083,7.083,0,0,0,2.3-5.6v-.043Z" transform="translate(2210.304 116.33)" fill="#231f20" stroke="rgba(0,0,0,0)" stroke-width="1"/>
          <path id="Path_36" data-name="Path 36" d="M-2177.639-77.081h0a6.668,6.668,0,0,1-3.764-1.07,9.056,9.056,0,0,1-2.768-2.9l-.095-.157,3.183-2.6.129.18a8.109,8.109,0,0,0,1.714,1.842,2.755,2.755,0,0,0,1.6.5,2.192,2.192,0,0,0,1.768-.737,6.25,6.25,0,0,0,1.234-2.055l.991-2.265L-2183.41-109h4.678l7.279,17.308,7.239-17.308h4.679l-11.438,26.571a10.048,10.048,0,0,1-2.552,3.853,6.146,6.146,0,0,1-4.111,1.494Z" transform="translate(2236.37 117.23)" fill="#231f20" stroke="rgba(0,0,0,0)" stroke-width="1"/>
          <path id="Path_35" data-name="Path 35" d="M-2172.54-84.282h0c-3.814-.03-6.747-1.144-8.719-3.308-1.994-2.158-3.005-5.189-3.005-9.006.027-3.876,1.053-6.936,3.047-9.1a10.99,10.99,0,0,1,8.349-3.307,10.382,10.382,0,0,1,7.984,3.172c1.914,2.1,2.9,5.206,2.924,9.231v1.471h-17.852a7.577,7.577,0,0,0,2.051,4.9,6.942,6.942,0,0,0,5.182,1.832,8.2,8.2,0,0,0,4.115-1.051,12.136,12.136,0,0,0,3.063-2.568l.149-.173,2.875,2.955-.124.146a14.925,14.925,0,0,1-4.2,3.422,12.371,12.371,0,0,1-5.837,1.376Zm-5.107-19.044a6.805,6.805,0,0,0-2.115,4.316h13.379a7.156,7.156,0,0,0-1.957-4.408,6.423,6.423,0,0,0-4.489-1.519A6.957,6.957,0,0,0-2177.647-103.325Z" transform="translate(2264.76 116.329)" fill="#231f20" stroke="rgba(0,0,0,0)" stroke-width="1"/>
          <path id="Path_34" data-name="Path 34" d="M-2184.268-85.857v-22.919h4.435v3.962a7.06,7.06,0,0,1,2.291-2.752,10.1,10.1,0,0,1,5.735-1.434h3.122v4.468h-3.816c-2.568,0-4.456.775-5.611,2.3-1.169,1.574-1.748,3.939-1.72,7.027v9.346Z" transform="translate(2290.487 117.005)" fill="#231f20" stroke="rgba(0,0,0,0)" stroke-width="1"/>
          <path id="Path_32" data-name="Path 32" d="M-2180.621-86.159a8.224,8.224,0,0,1-3.619-6.132l-.027-.2,4.21-.746.041.2a5.118,5.118,0,0,0,2.476,3.727,9.355,9.355,0,0,0,4.652,1.01,8.712,8.712,0,0,0,4.326-.917,2.832,2.832,0,0,0,1.575-2.564,2.419,2.419,0,0,0-1.983-2.409,37.7,37.7,0,0,0-5.741-.983,16.647,16.647,0,0,1-6.4-1.963,5.526,5.526,0,0,1-2.6-4.9,6.039,6.039,0,0,1,2.712-5.127,12.6,12.6,0,0,1,7.086-1.837,13.151,13.151,0,0,1,7.414,1.88,8.655,8.655,0,0,1,3.532,5.531l.043.211-4.252.746-.051-.183a5.032,5.032,0,0,0-2.318-3.2,8.458,8.458,0,0,0-4.444-.964,8.068,8.068,0,0,0-4,.827,2.338,2.338,0,0,0-1.412,2.023,2.286,2.286,0,0,0,1.785,2.143,18.993,18.993,0,0,0,4.666.934A21.805,21.805,0,0,1-2166-97.417c2.092.9,3.21,2.734,3.323,5.448a6.793,6.793,0,0,1-2.79,5.666,12.314,12.314,0,0,1-7.46,2.022h-.208A13.72,13.72,0,0,1-2180.621-86.159Z" transform="translate(2309.635 116.329)" fill="#231f20" stroke="rgba(0,0,0,0)" stroke-width="1"/>
          <path id="Path_33" data-name="Path 33" d="M-2069.694-95.024a2.836,2.836,0,0,1-1.709-.492,1.774,1.774,0,0,1-.691-1.461,2.059,2.059,0,0,1,.31-1.128,2.418,2.418,0,0,1,.748-.747,1.2,1.2,0,0,1-.339-.492,1.475,1.475,0,0,1-.1-.508,1.339,1.339,0,0,1,.24-.779,1.886,1.886,0,0,1,.65-.619,3.028,3.028,0,0,1-.749-.954,2.8,2.8,0,0,1-.267-1.238,2.745,2.745,0,0,1,1.029-2.191,4.034,4.034,0,0,1,2.6-.825,4.6,4.6,0,0,1,1.567.254,3.483,3.483,0,0,1,1.187.714,1.607,1.607,0,0,1,.45-.826,1.214,1.214,0,0,1,.833-.3h.693v1.287h-.621a1.769,1.769,0,0,0-.551.079.5.5,0,0,0-.324.35,2.551,2.551,0,0,1,.3.683,2.957,2.957,0,0,1,.1.778,2.715,2.715,0,0,1-1.032,2.192,4.067,4.067,0,0,1-2.6.825,5.19,5.19,0,0,1-.917-.079,3.718,3.718,0,0,1-.8-.238.836.836,0,0,0-.326.286.57.57,0,0,0-.112.333.6.6,0,0,0,.2.446.857.857,0,0,0,.606.222h2.95a2.916,2.916,0,0,1,1.879.538,2.036,2.036,0,0,1,.691,1.637,2.1,2.1,0,0,1-.691,1.668,2.8,2.8,0,0,1-1.892.587Zm-.876-2.89a1.1,1.1,0,0,0-.182.6.95.95,0,0,0,.309.73,1.5,1.5,0,0,0,1.031.318h2.978a1.543,1.543,0,0,0,.945-.254.874.874,0,0,0,.341-.747.892.892,0,0,0-.326-.746,1.452,1.452,0,0,0-.917-.254h-2.754c-.123,0-.274-.006-.452-.016a4.6,4.6,0,0,1-.551-.1A1.738,1.738,0,0,0-2070.57-97.914Zm.946-6.814a1.574,1.574,0,0,0-.621,1.271,1.59,1.59,0,0,0,.635,1.3,2.753,2.753,0,0,0,1.637.476,2.644,2.644,0,0,0,1.638-.493,1.559,1.559,0,0,0,.622-1.286,1.588,1.588,0,0,0-.608-1.271,2.747,2.747,0,0,0-1.652-.476A2.747,2.747,0,0,0-2069.624-104.728Zm25.694,6.194a2.833,2.833,0,0,1-1.215-2.113l1.313-.238a1.87,1.87,0,0,0,.89,1.366,3.221,3.221,0,0,0,1.638.365,3,3,0,0,0,1.524-.333,1.083,1.083,0,0,0,.577-.969.922.922,0,0,0-.732-.922,12.663,12.663,0,0,0-1.99-.348,5.545,5.545,0,0,1-2.175-.683,1.883,1.883,0,0,1-.861-1.668,2.065,2.065,0,0,1,.9-1.746,4.162,4.162,0,0,1,2.4-.636,4.368,4.368,0,0,1,2.513.651,2.987,2.987,0,0,1,1.186,1.906l-1.326.238a1.843,1.843,0,0,0-.833-1.175,2.923,2.923,0,0,0-1.568-.35,2.769,2.769,0,0,0-1.412.3.9.9,0,0,0-.522.778.876.876,0,0,0,.663.826,6.424,6.424,0,0,0,1.623.333,7.27,7.27,0,0,1,2.373.572,1.918,1.918,0,0,1,1.1,1.859,2.338,2.338,0,0,1-.932,1.937,4.087,4.087,0,0,1-2.527.7h-.074A4.539,4.539,0,0,1-2043.93-98.534Zm-10.687-.493a4.5,4.5,0,0,1-1.017-3.128,4.6,4.6,0,0,1,1.031-3.16,3.656,3.656,0,0,1,2.824-1.144,3.447,3.447,0,0,1,2.7,1.1,4.739,4.739,0,0,1,.988,3.208v.444h-6.155a2.81,2.81,0,0,0,.734,1.859,2.417,2.417,0,0,0,1.835.667,2.812,2.812,0,0,0,1.453-.382,4.269,4.269,0,0,0,1.074-.92l.889.937a5.066,5.066,0,0,1-1.426,1.191,4.088,4.088,0,0,1-1.976.476A3.781,3.781,0,0,1-2054.617-99.026Zm1.142-5.558a2.535,2.535,0,0,0-.762,1.651h4.771a2.657,2.657,0,0,0-.706-1.683,2.237,2.237,0,0,0-1.6-.556A2.418,2.418,0,0,0-2053.475-104.584Zm-28.149,5.527a4.432,4.432,0,0,1-1.073-3.065,4.627,4.627,0,0,1,1.073-3.145,3.711,3.711,0,0,1,2.823-1.191,3.735,3.735,0,0,1,2.823,1.175,4.61,4.61,0,0,1,1.073,3.129,4.561,4.561,0,0,1-1.073,3.1,3.729,3.729,0,0,1-2.823,1.174A3.728,3.728,0,0,1-2081.623-99.057Zm1.03-5.273a3.3,3.3,0,0,0-.692,2.176,3.254,3.254,0,0,0,.692,2.144,2.24,2.24,0,0,0,1.793.826,2.275,2.275,0,0,0,1.806-.81,3.3,3.3,0,0,0,.679-2.145,3.413,3.413,0,0,0-.679-2.191,2.25,2.25,0,0,0-1.806-.825A2.237,2.237,0,0,0-2080.593-104.33Zm-17.011,5.273a4.44,4.44,0,0,1-1.073-3.065,4.635,4.635,0,0,1,1.073-3.145,3.714,3.714,0,0,1,2.824-1.191,3.737,3.737,0,0,1,2.823,1.175,4.608,4.608,0,0,1,1.073,3.129,4.56,4.56,0,0,1-1.073,3.1,3.73,3.73,0,0,1-2.823,1.174A3.731,3.731,0,0,1-2097.6-99.057Zm1.031-5.273a3.3,3.3,0,0,0-.691,2.176,3.252,3.252,0,0,0,.691,2.144,2.24,2.24,0,0,0,1.793.826,2.275,2.275,0,0,0,1.807-.81,3.308,3.308,0,0,0,.677-2.145,3.424,3.424,0,0,0-.677-2.191,2.251,2.251,0,0,0-1.807-.825A2.237,2.237,0,0,0-2096.573-104.33Zm-33.98,5.272a4.484,4.484,0,0,1-1.072-3.081,4.6,4.6,0,0,1,1.072-3.129,3.714,3.714,0,0,1,2.824-1.191,3.971,3.971,0,0,1,2.314.7,3.479,3.479,0,0,1,1.327,1.906l-1.354.412a2.5,2.5,0,0,0-.862-1.255,2.234,2.234,0,0,0-1.412-.461,2.251,2.251,0,0,0-1.806.826,3.3,3.3,0,0,0-.693,2.176,3.3,3.3,0,0,0,.677,2.144,2.3,2.3,0,0,0,1.821.826,2.2,2.2,0,0,0,1.482-.508,2.694,2.694,0,0,0,.848-1.4l1.369.35a3.671,3.671,0,0,1-1.3,2.1,3.929,3.929,0,0,1-2.414.762A3.728,3.728,0,0,1-2130.554-99.058Zm-10.573.032a4.5,4.5,0,0,1-1.016-3.128,4.6,4.6,0,0,1,1.031-3.16,3.656,3.656,0,0,1,2.824-1.144,3.445,3.445,0,0,1,2.7,1.1,4.735,4.735,0,0,1,.988,3.208v.444h-6.155a2.814,2.814,0,0,0,.733,1.859,2.42,2.42,0,0,0,1.836.667,2.815,2.815,0,0,0,1.453-.382,4.243,4.243,0,0,0,1.073-.92l.89.937a5.064,5.064,0,0,1-1.425,1.191,4.091,4.091,0,0,1-1.977.476A3.783,3.783,0,0,1-2141.127-99.026Zm1.143-5.558a2.537,2.537,0,0,0-.762,1.651h4.771a2.662,2.662,0,0,0-.706-1.683,2.239,2.239,0,0,0-1.6-.556A2.42,2.42,0,0,0-2139.984-104.584Zm79.579,6.384v-7.941h1.383V-98.2Zm-27.077,0V-109h1.384v10.8Zm-15.908,0v-4.194a3.152,3.152,0,0,0-.622-2.112,1.876,1.876,0,0,0-1.468-.619,2.248,2.248,0,0,0-1.821.952,4.409,4.409,0,0,0-.735,2.621V-98.2h-1.382v-7.941h1.382v1.588a3.28,3.28,0,0,1,1.215-1.462,3.18,3.18,0,0,1,1.652-.444,2.894,2.894,0,0,1,2.273.969,4.453,4.453,0,0,1,.89,2.938V-98.2Zm-11.225,0v-4.194a3.039,3.039,0,0,0-.649-2.112,2.007,2.007,0,0,0-1.51-.619,2.248,2.248,0,0,0-1.82.952,4.385,4.385,0,0,0-.735,2.621V-98.2h-1.384V-109h1.384v4.447a3.262,3.262,0,0,1,1.215-1.462,3.249,3.249,0,0,1,1.665-.444,2.982,2.982,0,0,1,2.3.969,4.365,4.365,0,0,1,.917,2.938V-98.2Zm-35.8,0v-9.433h-4.107V-109h9.656v1.365h-4.107V-98.2Zm-13.722,0-2.344-4.24h-3.049v4.24h-1.44V-109h4.843a3.61,3.61,0,0,1,2.583.891,3.263,3.263,0,0,1,.9,2.382,3.315,3.315,0,0,1-.593,1.984,3.144,3.144,0,0,1-1.709,1.128l2.457,4.415Zm-5.393-5.606h3.445a1.974,1.974,0,0,0,1.483-.587,1.913,1.913,0,0,0,.493-1.334,1.916,1.916,0,0,0-.493-1.365,1.988,1.988,0,0,0-1.483-.541h-3.445Zm-7.156,5.606v-5.193h-6.141V-98.2h-1.44V-109h1.44v4.24h6.141V-109h1.454v10.8Zm116.14-9.163V-109h1.666v1.636Z" transform="translate(2184.268 211.579)" fill="#231f20" stroke="rgba(0,0,0,0)" stroke-width="1"/>
        </g>
      </g>
    </g>
  </g>
</svg>
