<svg xmlns="http://www.w3.org/2000/svg" width="164.83" height="9.676" viewBox="0 0 164.83 9.676">
  <path id="Path_240" data-name="Path 240" d="M164.83,4.426a14.191,14.191,0,0,0-6.4-4.118,6.323,6.323,0,0,0-5.18.6c-2.238,1.254-4.537,2.431-6.749,3.717a3.462,3.462,0,0,1-3.559.091,35.538,35.538,0,0,0-10.9-3.069A8.53,8.53,0,0,0,125.511,3.1c-1.454,1.114-3.3,1.352-5.155,1.644a15.075,15.075,0,0,1-10.231-2.133A15.722,15.722,0,0,0,103,.78a10.112,10.112,0,0,0-3.32.761,7.9,7.9,0,0,0-1.621.875,11.084,11.084,0,0,1-9.479.928c-1.8-.577-3.591-1.161-5.4-1.7A18.981,18.981,0,0,0,73.7,1.3a12.339,12.339,0,0,0-2.631,1.139c-1.22.578-2.4,1.227-3.639,1.765a5.038,5.038,0,0,1-3.407.193c-2.159-.6-4.345-1.146-6.462-1.843A18.35,18.35,0,0,0,51.584,1.6a11.9,11.9,0,0,0-3.691.769,13.723,13.723,0,0,0-3.125,1.621,9.449,9.449,0,0,1-7.953,1.076,19.938,19.938,0,0,1-4-1.479,24.531,24.531,0,0,0-6.138-2.1A21.752,21.752,0,0,0,22.7,1.166a4.508,4.508,0,0,0-2.869.949c-.47.369-1.036.653-1.493,1.032-2.27,1.878-5.024,2.074-7.978,1.775C7.879,4.669,5.389,4.5,2.9,4.354a2.571,2.571,0,0,0-1.627.371A5.067,5.067,0,0,0,.05,6.565C-.21,7.2.593,8.1,1.451,8.18c3.588.328,7.18.623,10.774.909a12.345,12.345,0,0,0,8.194-2.4,5.752,5.752,0,0,1,4.838-.746,30.96,30.96,0,0,1,6.426,2.3,16.245,16.245,0,0,0,15.071-.87c3.25-1.9,6.29-1.85,9.663-.524A38.09,38.09,0,0,0,61.843,8.5a10.415,10.415,0,0,0,5.343-.171A25.744,25.744,0,0,0,72.073,6.4a12.13,12.13,0,0,1,9.862-.695c1.532.47,2.969,1.161,4.495,1.646a16.51,16.51,0,0,0,9.414-.015,32.755,32.755,0,0,0,4.614-1.73,5.609,5.609,0,0,1,4.681-.132q2.339,1,4.653,2.051a9.087,9.087,0,0,0,3.959,1.046c2.679-.042,5.378.068,8.031-.18a13.269,13.269,0,0,0,6.416-2.18,4.078,4.078,0,0,1,3.1-.616,20.932,20.932,0,0,1,8.347,2.868,6.017,6.017,0,0,0,4.3.764A17.568,17.568,0,0,0,150.53,6.6q1.7-1.042,3.439-2.038a3.938,3.938,0,0,1,3.8-.242A26.153,26.153,0,0,1,160.6,5.774c1.832,1.149,3.048.92,4.063-.859a2.991,2.991,0,0,0,.168-.489" transform="translate(0 0)" fill="#b3e2dc"/>
</svg>
