<svg xmlns="http://www.w3.org/2000/svg" width="156.123" height="26" viewBox="0 0 156.123 26">
  <path id="Path_351" data-name="Path 351" d="M-7372.95-5963c-8.667-.186-9.269-4.266-9.038-6.168a11.332,11.332,0,0,1-10.775,6.076c-7.985-.252-9.663-7.522-6.743-13.067-1.424.01-4.491.613-5.606,6.088l-1.461,6.423h-6.186l4.055-18.04h5.862l-.51,2.224a6.312,6.312,0,0,1,3.013-2.04,9.529,9.529,0,0,1,3.059-.487l-1.021,3.977a11.521,11.521,0,0,1,9.872-4.369c6.139.3,8.48,4.96,7.739,9.552-.116.811-.185.926-.418,1l-6.023,1.995,12.233-.023s-1.043,2.712,2.8,2.735c2.666,0,3.707-3.037.117-3.664-1.646-.3-8.019-1.368-7.3-6.284.6-4.034,4.8-5.449,9.386-5.379,9.382.116,7.622,5.634,7.74,6.006h-6.258s.672-2.318-2.155-2.318c-2.571,0-3.2,2.318-.231,2.944,3.614.789,7.761.974,7.994,5.635.068,1.279-.674,7.191-9.729,7.192C-7372.669-5963-7372.809-5963-7372.95-5963Zm-19.4-4.683c4.586.951,7.67-9.647,3.428-10.5a2.618,2.618,0,0,0-.5-.05C-7393.493-5978.242-7396.332-5968.534-7392.345-5967.687Zm38.349,4.615c-13.184-.558-9.222-19.989,4.31-19.341,12.547.619,9.2,19.351-3.766,19.352C-7353.632-5963.061-7353.813-5963.064-7354-5963.071Zm.395-4.592c4.634.974,7.738-9.646,3.475-10.5a2.692,2.692,0,0,0-.521-.053C-7354.757-5978.22-7357.606-5968.486-7353.6-5967.664Zm-69.655,4.522c-12.142-.256-8.99-19.734,4.8-19.039,7.832.4,7.438,6.911,7.367,7.188h-6.764c.093-.255.323-2.944-1.832-2.9-4.008.116-6.859,10.063-2.433,10.156,2.038.07,2.99-2.3,3.176-2.6h6.811c0,.138-2.012,7.192-10.782,7.193C-7423.03-5963.137-7423.142-5963.139-7423.257-5963.141Zm93.383-1.253c-.789-.533-1.646-1.645-1.112-4.033l2.015-9.092-3.59-.023-3.037,13.867h-6.441l3.011-13.867h-3.312l.927-4.149h3.22c.579-2.319,1.089-3.9,2.525-5.1,1.969-1.6,7.091-.974,7.091-.974l-.719,3.409c-1.807,0-2.154.695-2.457,2.064l-.115.6h3.824l.95-4.359h5.978l-.927,4.359h3.082l-.9,4.149h-3.082l-1.69,7.909a2.522,2.522,0,0,0-.069,1.322c.253.718,2.826.417,2.826.417l-1,4.127a27.285,27.285,0,0,1-2.795.148C-7327.211-5963.62-7328.986-5963.773-7329.875-5964.395Zm-110.228.719,4.009-18.017h6.557l-4.008,18.04Zm-8.688,0,2.895-13.078-6.512,13.078h-5.026l-.256-13.078-3.243,13.078H-7468l5.4-24.324h9.639l.439,13.587,6.487-13.587h9.664l-5.422,24.324Zm133.444-18.04a2.331,2.331,0,1,1,0,4.661A2.331,2.331,0,1,1-7315.347-5981.715Zm0,4.221a1.9,1.9,0,1,0,0-3.8A1.9,1.9,0,1,0-7315.347-5977.494Zm-1-.627.4-2.482h1.134a.764.764,0,0,1,.58.765.7.7,0,0,1-.694.719l.462.928h-.557l-.37-.928h-.325l-.138,1Zm.718-1.345h.463a.433.433,0,0,0,.511-.4.394.394,0,0,0-.4-.417h-.462Zm-119.912-4.568.855-3.965h6.535l-.879,3.965Z" transform="translate(7468.624 5988.5)" fill="#1a1818" stroke="rgba(0,0,0,0)" stroke-width="1"/>
</svg>
