<svg xmlns="http://www.w3.org/2000/svg" width="113" height="39" viewBox="0 0 113 39">
  <path id="Path_363" data-name="Path 363" d="M-9031.068-5834.351a14.639,14.639,0,0,1-4.49-3.04v3.506h-5.51v-38.343h5.564v13.967a14.785,14.785,0,0,1,4.462-3.04,13.464,13.464,0,0,1,5.511-1.122,14.616,14.616,0,0,1,5.785,1.149,14.789,14.789,0,0,1,4.683,3.123,14.682,14.682,0,0,1,3.141,4.657,14.233,14.233,0,0,1,1.156,5.7,14.039,14.039,0,0,1-1.156,5.669,14.774,14.774,0,0,1-3.141,4.629,14.768,14.768,0,0,1-4.683,3.121,14.584,14.584,0,0,1-5.785,1.151A13.623,13.623,0,0,1-9031.068-5834.351Zm1.4-22.4a9.584,9.584,0,0,0-3.084,2.053,9.816,9.816,0,0,0-2.095,3.1,9.462,9.462,0,0,0-.771,3.807,9.572,9.572,0,0,0,.744,3.78,9.524,9.524,0,0,0,2.066,3.067,9.952,9.952,0,0,0,3.086,2.081,9.42,9.42,0,0,0,3.8.768,9.287,9.287,0,0,0,3.746-.768,9.631,9.631,0,0,0,3.057-2.081,10.121,10.121,0,0,0,2.065-3.067,9.257,9.257,0,0,0,.772-3.78,9.447,9.447,0,0,0-.772-3.807,10.038,10.038,0,0,0-2.065-3.1,9.28,9.28,0,0,0-3.057-2.053,9.579,9.579,0,0,0-3.746-.74A9.581,9.581,0,0,0-9029.664-5856.753Zm-37.492,22.458a13.512,13.512,0,0,1-4.628-3.041,14.315,14.315,0,0,1-3.084-4.737,16.167,16.167,0,0,1-1.132-6.163v-23.992h5.786v23.663a11.742,11.742,0,0,0,.717,4.191,9.6,9.6,0,0,0,1.983,3.231,8.561,8.561,0,0,0,3,2.054,9.839,9.839,0,0,0,3.775.712,9.383,9.383,0,0,0,3.718-.74,9.179,9.179,0,0,0,3.03-2.081,9.432,9.432,0,0,0,2.01-3.2,11.518,11.518,0,0,0,.717-4.163v-23.663h5.786v38.343h-5.73v-3.561a13.3,13.3,0,0,1-4.545,3.122,14.5,14.5,0,0,1-5.647,1.1A15.394,15.394,0,0,1-9067.156-5834.3Zm67.491-.083a14.29,14.29,0,0,1-4.737-3.066,14.532,14.532,0,0,1-3.168-4.629,14.312,14.312,0,0,1-1.158-5.779,14.327,14.327,0,0,1,1.1-5.587,14.922,14.922,0,0,1,3.031-4.628,14.081,14.081,0,0,1,4.572-3.15,14.225,14.225,0,0,1,5.729-1.15,14.278,14.278,0,0,1,5.622,1.1,13.319,13.319,0,0,1,4.46,3.04,13.874,13.874,0,0,1,2.921,4.6,15.6,15.6,0,0,1,1.047,5.779v1.809h-22.864a9.326,9.326,0,0,0,1.1,3.148,9.491,9.491,0,0,0,2.065,2.52,9.473,9.473,0,0,0,2.811,1.67,9.211,9.211,0,0,0,3.333.6,9.654,9.654,0,0,0,8.1-4.109l4.022,2.958a14.947,14.947,0,0,1-5.18,4.382,14.937,14.937,0,0,1-6.941,1.588A15.589,15.589,0,0,1-8999.665-5834.379Zm-.22-21.225a9.319,9.319,0,0,0-3.113,5.176h17.135a9.052,9.052,0,0,0-3.058-5.176,8.32,8.32,0,0,0-5.481-1.944A8.319,8.319,0,0,0-8999.885-5855.6Zm22.727,21.719v-27.936h5.509v3.451a7.8,7.8,0,0,1,2.729-2.684,7.742,7.742,0,0,1,3.993-.986H-8963v5.149h-2.313a5.866,5.866,0,0,0-4.518,1.917,7.392,7.392,0,0,0-1.762,5.2v15.885Z" transform="translate(9076 5872.228)" fill="#08080a"/>
</svg>
