<svg xmlns="http://www.w3.org/2000/svg" width="138" height="39" viewBox="0 0 138 39">
  <path id="Path_364" data-name="Path 364" d="M-8571.158-5247.858l.911-10.227c.061-.606.852-1.08,1.762-1.08s1.7.484,1.764,1.08l.911,10.227c0,1.031-1.2,1.815-2.675,1.815C-8570-5246.043-8571.158-5246.892-8571.158-5247.858Zm-14.336-7.955c-.729-1.271-.606-2.721.242-3.205l9.356-4.3a1.6,1.6,0,0,1,1.821.956v.011a1.6,1.6,0,0,1-.059,2.058l-8.445,5.871a1.315,1.315,0,0,1-.659.167A2.848,2.848,0,0,1-8585.494-5255.813Zm31.044,1.39-8.444-5.871a1.6,1.6,0,0,1-.061-2.057v-.011c.487-.787,1.275-1.2,1.823-.957l9.356,4.3c.848.483,1.032,1.935.241,3.205a2.859,2.859,0,0,1-2.258,1.56A1.312,1.312,0,0,1-8554.45-5254.423Zm-40.253-2.61c-.761-.813-1.117-2.185-1.117-4.114v-14.012l0-.053h3.763v4.468h3.358v3.657h-3.358v5.382c0,1.725.458,2.589,1.779,2.589a5.873,5.873,0,0,0,1.475-.154l.051,3a9.02,9.02,0,0,1-2.8.41A4.264,4.264,0,0,1-8594.7-5257.033Zm-26.1-3.149c0-3.657,3.255-5.43,8.446-5.43v-.205c0-.863-.344-2.185-2.746-2.185a7.728,7.728,0,0,0-3.92,1.117l-.764-2.589a10.9,10.9,0,0,1,5.341-1.271c4.682,0,6.054,2.857,6.054,6.094l-.011-.014.1,5.04a23.379,23.379,0,0,0,.2,3.452c-3.255.965-3.864-1.523-3.864-1.523h-.1a5.309,5.309,0,0,1-4.17,1.829A4.316,4.316,0,0,1-8620.8-5260.183Zm3.919-.354a1.764,1.764,0,0,0,1.931,1.879,2.747,2.747,0,0,0,2.6-1.829,1.866,1.866,0,0,0,.1-.763v-1.775C-8614.7-5263.024-8616.881-5262.516-8616.881-5260.536Zm-48.379.354c0-3.657,3.255-5.43,8.444-5.43v-.205c0-.863-.343-2.185-2.744-2.185a7.737,7.737,0,0,0-3.921,1.117l-.765-2.589a10.9,10.9,0,0,1,5.343-1.271c4.68,0,6.054,2.857,6.054,6.1l.093-.013v5.037a23.524,23.524,0,0,0,.2,3.452c-3.255.965-3.864-1.523-3.864-1.523h-.1a5.3,5.3,0,0,1-4.173,1.829A4.314,4.314,0,0,1-8665.26-5260.183Zm3.915-.354a1.766,1.766,0,0,0,1.934,1.879,2.739,2.739,0,0,0,2.594-1.829,1.8,1.8,0,0,0,.1-.76v-1.778C-8659.155-5263.024-8661.345-5262.516-8661.345-5260.536Zm-13.022,1.778-1.32-5.943c-.408-2.119-.765-3.655-1.019-5.836h-.05l-1.222,5.786-2.086,8.582c-3.271.659-4.437-.306-5.05-2.947l-3.917-16.042h.011l4.274.05,1.525,7.87q.668,3.444,1.223,6.907h.048l1.373-6.6,1.935-8.175h4.236l1.78,8.377,1.118,6.3h.05l1.221-6.448,1.729-8.226h4.074l-5.051,18.99a7.385,7.385,0,0,1-1.592.194C-8673.115-5255.925-8673.994-5257.106-8674.367-5258.758Zm68.524,2.588v-14.267l0-.063h3.51v2.69h.1a4.266,4.266,0,0,1,3.918-3,4.506,4.506,0,0,1,.866.1v3.758a7.682,7.682,0,0,0-1.17-.1,3.007,3.007,0,0,0-3.152,2.491,3.538,3.538,0,0,0-.1,1.079v7.312Zm-37.849,0v-14.267l0-.013h3.666v1.927h.05a4.45,4.45,0,0,1,4.171-2.284,4.059,4.059,0,0,1,3.92,2.538h.048a6.8,6.8,0,0,1,1.833-1.775,5.34,5.34,0,0,1,2.8-.763c2.545,0,4.784,1.778,4.784,6.2v8.427h-3.866V-5264c0-2.235-.765-3.554-2.342-3.554a2.425,2.425,0,0,0-2.34,1.728,4.543,4.543,0,0,0-.152,1.167v8.478h-3.868v-8.122c0-1.918-.71-3.237-2.286-3.237a2.592,2.592,0,0,0-2.342,1.826,2.94,2.94,0,0,0-.2,1.169v8.377Zm-6.625,0v-18.99h3.867v18.99Zm74.421-11.514-9.356-4.358c-.849-.484-.972-1.937-.242-3.208s2.064-1.876,2.916-1.393l8.445,5.871a1.6,1.6,0,0,1,.059,2.057,1.885,1.885,0,0,1-1.53,1.073A1,1,0,0,1-8575.9-5267.683Zm12.94-1.031v-.011a1.7,1.7,0,0,1,.061-2.118l8.444-5.871c.85-.487,2.187.122,2.916,1.39.791,1.271.606,2.725-.241,3.208l-9.356,4.358a.844.844,0,0,1-.339.068A1.943,1.943,0,0,1-8562.955-5268.714Zm-7.292-4.287-.911-10.228c0-.967,1.155-1.815,2.673-1.815,1.474,0,2.675.784,2.675,1.815l-.911,10.228c-.061.6-.852,1.079-1.764,1.079S-8570.187-5272.4-8570.247-5273Z" transform="translate(8689.03 5285.043)" fill="#1a1818"/>
</svg>
