<svg xmlns="http://www.w3.org/2000/svg" width="124" height="25" viewBox="0 0 124 25">
  <g id="Group_171" data-name="Group 171" transform="translate(-971.999 -5911.937)">
    <path id="Path_365" data-name="Path 365" d="M-7817.232,26.936h-24.577v-25h24.577c.213,0,.231.041.231.249v24.5C-7817,26.875-7817.019,26.936-7817.232,26.936Zm-18.8-21.121c-.23,0-.293.063-.293.293v8.306l.018,8.36c0,.207.041.293.293.293l8.578-.022a11.647,11.647,0,0,0,2.28-.251,4.214,4.214,0,0,0,3.2-2.856,12.641,12.641,0,0,0,.5-2.6,30.019,30.019,0,0,0,.1-3.876,16.911,16.911,0,0,0-.458-4,4.289,4.289,0,0,0-3.284-3.374,8.477,8.477,0,0,0-2.322-.273ZM-7866.6,26.936H-7891.4v-25h24.808v25Zm-15.5-10.626h4.464l.992.042a1.182,1.182,0,0,1,1.234,1.112l.01.077a6.942,6.942,0,0,1,.074.886c.038,1.328.1,2.871.291,4.38.041.19.085.231.251.231h2.868c.178,0,.267,0,.306-.044s.029-.133.009-.31l-.189-3.207c-.012-.209-.02-.422-.027-.659a11.014,11.014,0,0,0-.119-1.519,2.226,2.226,0,0,0-1.758-1.991l-.62-.147a.281.281,0,0,0-.049-.016.189.189,0,0,1-.118-.067l.016.01c.027-.049.075-.062.137-.077a.632.632,0,0,0,.136-.046,2.681,2.681,0,0,0,2.364-2.178,10.858,10.858,0,0,0-.082-4.8,2.619,2.619,0,0,0-2.115-2.075,6.226,6.226,0,0,0-1.086-.1h-10.564c-.162,0-.211.054-.211.231V22.807c0,.187.02.231.211.231.506-.011,1.02-.016,1.526-.016s1.021.006,1.527.016c.2,0,.251-.056.251-.273l-.022-6.162C-7882.393,16.354-7882.316,16.31-7882.1,16.31Zm-34.073,10.626h-24.6c-.19,0-.231-.041-.231-.231V2.168c0-.19.041-.231.231-.231h24.6l0,25Zm-22.992-21.091h0a.286.286,0,0,1,.022.124l1.191,5.742,2.176,10.584c.127.641.359.837.991.837h2.6a.908.908,0,0,0,1.044-.869l2.282-10.686.273-1.258a.294.294,0,0,1,.1.167l2.513,11.818a.838.838,0,0,0,.962.8h2.679c.6,0,.841-.206.962-.817l1.524-7.479,1.8-8.759c.021-.1.02-.152-.007-.185s-.079-.047-.181-.047h-2.728l-.062,0c-.214,0-.256.1-.3.317l-.867,5.217-1.214,7.1-.187,1.09a1.878,1.878,0,0,1-.168-.562l-.007-.037c0-.024-.009-.049-.014-.073l-2.194-10.2-.46-2.116a.847.847,0,0,0-.835-.755c-.4-.021-.812-.031-1.214-.031s-.811.011-1.213.031a.871.871,0,0,0-.9.819l-2.364,11.033-.387,1.839a.4.4,0,0,1-.07-.229l-1.827-10.792-.418-2.429c0-.011-.005-.023-.008-.035-.017-.076-.034-.154-.16-.154h-3.348Zm41.07,17.257h-11.4c-.166,0-.229-.018-.229-.211V20.439c0-.158.053-.211.211-.211h3.806c.187,0,.229-.043.229-.231V8.912c0-.168-.043-.211-.209-.211h-3.809c-.188,0-.229-.041-.229-.231V6.114c0-.2.036-.273.249-.273l5.712-.022,0-.006h5.67c.211,0,.251.04.251.251v2.39c0,.177-.049.231-.211.231h-3.806c-.209,0-.251.042-.251.251V20c0,.175.051.231.211.231h3.829c.19,0,.211.047.211.231v2.409C-7897.864,23.061-7897.9,23.1-7898.095,23.1Zm43.424-.042h-7.111c-.215,0-.251-.063-.251-.251V20.4c0-.19.041-.231.231-.231h1.9c.154,0,.211-.051.211-.189V8.833c0-.156-.05-.211-.189-.211h-1.925c-.168,0-.209-.041-.209-.211V5.959c0-.17.041-.211.209-.211h14.174c.192,0,.211.067.211.231v5.048c0,.208-.038.273-.273.273-.431-.01-.869-.015-1.3-.015s-.87.005-1.3.015c-.16,0-.231-.033-.231-.231V8.847c0-.156-.016-.251-.231-.251h-5.467c-.166,0-.209.043-.209.211v3.711c0,.207.08.229.249.229h4.217c.211,0,.249.066.249.251-.02.752-.02,1.514,0,2.264,0,.226-.055.251-.271.251h-4.2c-.2,0-.251.05-.251.231v4.191c0,.177.049.231.211.231h5.628c.19,0,.209-.067.209-.231V17.356c0-.186.043-.229.231-.229h2.678c.144,0,.211.018.211.187v5.512c0,.176-.073.19-.168.19h-.063l-7.174.042h0Z" transform="translate(8913 5910)" fill="#08080a"/>
    <path id="Path_362" data-name="Path 362" d="M60.58,25.4l2.887.042a.834.834,0,0,1,.868.713,3.484,3.484,0,0,1,.146,1.027,7.5,7.5,0,0,1-.146,2.159.961.961,0,0,1-1.025.86c-.744.062-1.463.021-2.195.021H57.488c-.211,0-.25-.062-.25-.251V25.649c0-.211.042-.251.25-.251l3.1.021Zm46.29,5.679V25.655c0-.189.042-.251.25-.251h4.623a10,10,0,0,1,1.116.062,1.88,1.88,0,0,1,1.736,1.677,13.621,13.621,0,0,1,.25,2.787l-.1,4.066-.146,1.027a2.006,2.006,0,0,1-2.071,1.718l-3.41.042c-.67,0-1.339-.021-2.009,0-.231,0-.273-.062-.273-.273l.021-5.428Z" transform="translate(973.338 5893.322)" fill="#08080a"/>
  </g>
</svg>
